<svg id="Icons" xmlns="http://www.w3.org/2000/svg" viewBox="0 0 143.25 143.63"><defs><style>.cls-1{fill:#0e69b4;}.cls-2{fill:#dbf1ff;}.cls-3{fill:#fff;}.cls-4{fill:#d13d0f;}</style></defs><title>logo_oneColorText</title><path class="cls-1" d="M128.09,69.71a26.84,26.84,0,0,0-22.52-41.45,26.38,26.38,0,0,0-4,.33,30,30,0,0,0-59.92,0,26.38,26.38,0,0,0-4-.33A26.84,26.84,0,0,0,15.21,69.71a21.11,21.11,0,1,0,18,38.14A49,49,0,0,1,30,90.2c0-24.94,18.45-45.31,41.69-46.66,23.24,1.36,41.69,21.73,41.69,46.66a49,49,0,0,1-3.27,17.65,21.1,21.1,0,1,0,18-38.14Z"/><path class="cls-2" d="M26.55,102a5.16,5.16,0,0,1,2.82-6.73,5.23,5.23,0,0,1,.82-.25c0-.09,0-.19,0-.28a4,4,0,0,1-3.81-1.9c-.25.27-.49.57-.73.88a3.81,3.81,0,0,1,.59,1,4.08,4.08,0,1,1-1.08-1.49A5.76,5.76,0,0,1,25.77,91a4,4,0,0,1,2.48-4,3.93,3.93,0,0,1,1.84-.27c0-.34,0-.69.07-1l-.59-.11a2.29,2.29,0,0,1-.88.67A2.35,2.35,0,0,1,26,85.48a8.59,8.59,0,0,0-.95.21l-.19-.16a3,3,0,0,1,.65-1.21A2.35,2.35,0,0,1,30,83.13c.16,0,.3.13.45.19.08-.58.18-1.16.28-1.73a14.89,14.89,0,0,0-2-.82A8.68,8.68,0,0,0,26,80.22a7.5,7.5,0,0,0-2.35.53h0A1.7,1.7,0,1,1,21,81.89l-.09,0a3.67,3.67,0,0,1,1.74-3,4.5,4.5,0,0,1,3.54-.32,10.61,10.61,0,0,1,4.6,2.52c.07-.37.15-.73.23-1.1a26,26,0,0,0-8.75-4.71,15.13,15.13,0,0,0-3.53-.56,2.88,2.88,0,0,1,.17,1.8,19.92,19.92,0,0,1,2.93-.13l0,.2a21.32,21.32,0,0,0-2.82.89c-.33.12-.62.3-.94.44a3,3,0,0,1-.62.52,2.93,2.93,0,0,1-1.18.34,16.42,16.42,0,0,0-1.81,1.54,4.8,4.8,0,0,0-1.37,2.16l-.19,0a3,3,0,0,1,0-3.42A3.48,3.48,0,0,1,14.12,78a2.71,2.71,0,0,1-.65-.76,2.9,2.9,0,0,1-.28-1.88,28.07,28.07,0,0,0-3.26,1.22l-.14-.2a14.31,14.31,0,0,1,4.37-2.76,2.59,2.59,0,0,1,.48-.4,2.89,2.89,0,0,1,1.78-.29,14.1,14.1,0,0,1,6.46-.06,20.07,20.07,0,0,1,8.71,4.7q.26-1,.56-1.93A18.33,18.33,0,0,1,29.5,72.3a6.64,6.64,0,0,1-1.33-4,3.75,3.75,0,0,1,2.65-3.41l.16.18a6.17,6.17,0,0,0-.36,3.23,17.36,17.36,0,0,0,.64,3.15,17.43,17.43,0,0,0,1.35,2.75,47.32,47.32,0,0,1,7.92-14.34A4.53,4.53,0,0,1,41.13,58a4.63,4.63,0,0,1,3.16-2.25,45.64,45.64,0,0,1,5.57-4.61,14.19,14.19,0,0,1-5.2-1.52A6.43,6.43,0,0,1,41.14,46a5.23,5.23,0,0,1,.94-4.85l.15,0a2.44,2.44,0,1,1,1.72,3.66v0a10.75,10.75,0,0,0,2,2.79,12.25,12.25,0,0,0,3.48,2c.56.25,1.14.45,1.73.65a42.6,42.6,0,0,1,13-5.6,3.23,3.23,0,0,1,4.39-4.5l.16-.12a6.77,6.77,0,0,1,3.68,3.57A42,42,0,0,1,83.57,46a5.5,5.5,0,1,1,8.76,4.39l.46.3a4.22,4.22,0,0,1,4.56,2.09,4.27,4.27,0,0,1,.5,1.86c.9.81,1.76,1.66,2.6,2.55a5.51,5.51,0,0,1,2-2.3l.4-.53a5.45,5.45,0,1,1,1.41-.52,5,5,0,0,1-.82.35l-.16.25a5.5,5.5,0,1,1,3.08,10.45l.39.67c.85-.26,1.69-.53,2.52-.82,1.41-.5,2.7-1.26,4-1.7a17.65,17.65,0,0,0,4-1.75l.21.12c-.26,1.78-1.76,3-3.12,3.86a13.68,13.68,0,0,1-4.59,1.37c-.74.15-1.48.26-2.22.36.66,1.22,1.27,2.47,1.83,3.75a57.84,57.84,0,0,1,9.94,3.48,42.11,42.11,0,0,1,3.84,2.08,2.91,2.91,0,0,1,.74-1.7,23.89,23.89,0,0,1-2.42-1.45l.11-.21a25.76,25.76,0,0,0,3.41.93,2.92,2.92,0,0,1,3,.49c.26,0,.52.07.78.07a17.24,17.24,0,0,0,3.2-.4,5.49,5.49,0,0,0,1.91-.68,21.12,21.12,0,0,0-5.74-3.67c.21-.32.39-.65.59-1a7.35,7.35,0,0,1-4-1.58,4.24,4.24,0,0,1-1.48,3.27,5.15,5.15,0,0,1-4,1,13,13,0,0,1-6.73-2.8l.13-.21a16.17,16.17,0,0,0,3.34.89,10.08,10.08,0,0,0,3.23.15,8.59,8.59,0,0,0,2.61-1h0a2,2,0,0,1,.85-3.77h0a7.21,7.21,0,0,1-.58-1.67,7.24,7.24,0,0,1,10.34-8,26.58,26.58,0,0,0-.2-3.05,3,3,0,0,1-1.32.36l-.06.19a6.6,6.6,0,0,1-5.9-1.93c-1.68-1.65-1.94-4.12-1.89-6.1a18.28,18.28,0,0,1,2-7.76,27.44,27.44,0,0,0-2-1.9c-.12.45-.23.9-.38,1.35a18.48,18.48,0,0,1-12.4,11.66l-.14-.28a27.22,27.22,0,0,0,6.09-5.41,19.32,19.32,0,0,0,3.51-6.91c.23-.82.39-1.66.55-2.51a27.38,27.38,0,0,0-2.65-1.52,4,4,0,0,1-1.5,1.23,4.58,4.58,0,0,1-4.35-.12v-.13a2.12,2.12,0,0,1-.87-3.34,27.16,27.16,0,0,0-5.36-.54,26.38,26.38,0,0,0-4,.33A30,30,0,0,0,91.86,7.87a17.6,17.6,0,0,0-6.23.36,31.9,31.9,0,0,0-12.8,6.85A69.18,69.18,0,0,0,62.61,26.25a105.57,105.57,0,0,0-6.83,10.31,4.52,4.52,0,1,1-6.61,5.84,4.48,4.48,0,0,1-.46-3.05A45.9,45.9,0,0,0,44.2,36.2a26.6,26.6,0,0,0-5.13-2.62,9.37,9.37,0,0,0-5-.47c-.07,0-.14.07-.21.08A3,3,0,0,1,36,34.72a3,3,0,1,1-5.36,2.76,3.06,3.06,0,0,1-.29-1v0l-.24-.07a6.23,6.23,0,0,1,.6-3.17,5.07,5.07,0,0,1,2.62-2.45c2.47-1,4.74.11,6.55,1A32.46,32.46,0,0,1,48.78,39a4.44,4.44,0,0,1,.65-1.32c-1-1.45-2-2.9-3-4.29a69.43,69.43,0,0,0-4.65-5.59c0,.27-.06.54-.08.82-.62-.09-1.24-.17-1.87-.22a24.28,24.28,0,0,1,2.86,2.94l-.17.18a26.9,26.9,0,0,0-3.18-2,19.42,19.42,0,0,0-2.61-1.22,26.71,26.71,0,0,0-16.81,6.75,5.49,5.49,0,0,1-5.79,7.25c-.32.58-.59,1.18-.86,1.79A5.5,5.5,0,0,1,10.9,54.74c0,.06,0,.11,0,.17A5.78,5.78,0,0,1,15.16,58a5.71,5.71,0,0,1,.62,2.17A2.44,2.44,0,0,1,17,59.5,4.26,4.26,0,1,1,19.64,61a2.39,2.39,0,0,1-2.71,3.28s0,0,0,0a10.65,10.65,0,0,0,1.9,2.89,12.11,12.11,0,0,0,3.37,2.15,20.41,20.41,0,0,0,4,1.48l0,.3a16.13,16.13,0,0,1-8.8-2,6.4,6.4,0,0,1-3.33-3.83c0-.16,0-.32-.06-.49a6.69,6.69,0,0,1-1,.78,26.87,26.87,0,0,0,2.18,4.13c-.27.12-.54.25-.8.38a4.46,4.46,0,0,0,.47.28A11.77,11.77,0,0,0,17,71a17.52,17.52,0,0,0,2.24.41v.15a12.58,12.58,0,0,1-4.7-.08,5.57,5.57,0,0,1-1.66-.59A21.43,21.43,0,0,0,9.34,73.5a4,4,0,0,1-.72,2.37H8.5a2,2,0,0,1-2.18,1,21.14,21.14,0,0,0-3.26,7,5.41,5.41,0,0,1,5.16.84A5.44,5.44,0,0,1,3,94.17,21,21,0,0,0,7.59,103,9.17,9.17,0,0,1,7,101.91a5.17,5.17,0,0,1-.55-4.07,4.22,4.22,0,0,1,2.93-2.72l.08.09a2,2,0,1,1-.62,3.21.07.07,0,0,0,0,0,8.63,8.63,0,0,0,0,2.8,10.15,10.15,0,0,0,1.32,3,16.09,16.09,0,0,0,1.42,2,40.26,40.26,0,0,0,5.3,2.65,5.5,5.5,0,1,1,8.52,1.28,20.92,20.92,0,0,0,2.91-.47,5.46,5.46,0,0,1,3.32-4.2,4.89,4.89,0,0,1,.71-.21l-.06-.18A5.16,5.16,0,0,1,26.55,102ZM21.4,84.77a3,3,0,1,1-1.65,3.92A3,3,0,0,1,21.4,84.77ZM118.59,46a15.78,15.78,0,0,1,3-5.08l.15.11a21.2,21.2,0,0,0-1,2.66,13.82,13.82,0,0,0-.67,2.67,13.83,13.83,0,0,0,0,2.47,4.81,4.81,0,0,0,.8,2.34l-.09.17a2.87,2.87,0,0,1-2.54-2.11A5,5,0,0,1,118.59,46ZM72,36a3,3,0,1,1,1.16-4A3,3,0,0,1,72,36Zm11.61,6.24a3,3,0,1,1,1.16-4A3,3,0,0,1,83.57,42.26Zm7.13-2.7a4,4,0,1,1,1.59-5.48A4,4,0,0,1,90.7,39.55ZM90.48,26a3,3,0,1,1-4.1-1.19A3,3,0,0,1,90.48,26Zm1-4.73a2.38,2.38,0,1,1-.94,3.23A2.39,2.39,0,0,1,91.51,21.25Zm9,22.08a5.16,5.16,0,1,1,2-7A5.16,5.16,0,0,1,100.47,43.33Zm12.11-5.43a4.17,4.17,0,0,1,.35.88,19.43,19.43,0,0,0,2.34-1.59c.31-.24.59-.52.89-.77a2,2,0,0,1-.51-2.51,2,2,0,1,1,3.52,2,2,2,0,0,1-2.13,1,18.63,18.63,0,0,1-3.69,4l-.42.31a4.24,4.24,0,1,1-.35-3.22Zm-9.69-8.83a3.32,3.32,0,1,1-1.31,4.51A3.32,3.32,0,0,1,102.89,29.07Zm-4-1.26a4,4,0,1,1-5.48-1.59A4,4,0,0,1,98.93,27.81ZM86.06,9.53A18.83,18.83,0,0,1,93,10.86a6,6,0,0,1,3.14,2.26A3.4,3.4,0,0,1,96,17.07L95.77,17a5.58,5.58,0,0,0-1.46-2.57,15.85,15.85,0,0,0-2.17-2,16.71,16.71,0,0,0-2.92-1.52A24.83,24.83,0,0,0,86,9.75Zm-5.11,2.28a5.15,5.15,0,0,1,4.05.56,4.21,4.21,0,0,1,1.84,3.54l-.11.05a2,2,0,1,1-2.92-1.45h0a8.84,8.84,0,0,0-2.68-.75,10.06,10.06,0,0,0-3.2.48,16.58,16.58,0,0,0-3.22,1.22l-.14-.2A13,13,0,0,1,80.94,11.81Zm-7.29,6.25a7.56,7.56,0,0,1,4.7-1.34,4.32,4.32,0,0,1,3.8,3.22l-.22.18a7,7,0,0,0-3.69-.57,19.9,19.9,0,0,0-3.67.58,20.66,20.66,0,0,0-3.79,1.71,31.51,31.51,0,0,0-3.67,2.25l-.19-.2A23.66,23.66,0,0,1,73.65,18.06Zm-3.48,6.37c2.08-1,4.7-2.25,7.55-1.15a5.83,5.83,0,0,1,3,2.83,7.15,7.15,0,0,1,.7,3.65l-.27.07c-1.32-2-2.72-3.57-4.36-3.86a10.76,10.76,0,0,0-5.74.54,30.43,30.43,0,0,0-5.91,3,52,52,0,0,0-5.57,3.91l-.2-.21A38.65,38.65,0,0,1,70.17,24.43ZM29.84,55.58a3.32,3.32,0,1,1,1.43-4.47A3.32,3.32,0,0,1,29.84,55.58Zm10.46-1a15.38,15.38,0,0,0-2.54,1.31,14.1,14.1,0,0,0-1.87,1.74,4.85,4.85,0,0,0-1.27,2.23l-.19,0a3,3,0,0,1-.13-3.42,5.22,5.22,0,0,1,2.72-2,16.34,16.34,0,0,1,6-1.16l0,.19A21.06,21.06,0,0,0,40.29,54.54ZM36.17,38.92a2.38,2.38,0,1,1-1,3.21A2.39,2.39,0,0,1,36.17,38.92Zm.31,8.34a4.47,4.47,0,0,1,3.44.87,11.26,11.26,0,0,1,4,4.86l-.18.11a14.52,14.52,0,0,0-2.19-2,8.7,8.7,0,0,0-2.42-1.43,7.45,7.45,0,0,0-2.41-.27h0a1.71,1.71,0,1,1-2.82.21l-.07-.07A3.69,3.69,0,0,1,36.48,47.26Zm-2.12-5.51A4,4,0,1,1,28.93,40,4,4,0,0,1,34.37,41.75ZM22.85,33.22a4,4,0,1,1-1.74,5.43A4,4,0,0,1,22.85,33.22ZM24,50.54a5.16,5.16,0,1,1,2.22-7A5.16,5.16,0,0,1,24,50.54Zm.17,18.7a4,4,0,0,1-1.41-2.16,2.27,2.27,0,0,1,1-2.42l.12.08a3.64,3.64,0,0,0,.29,2,10.44,10.44,0,0,0,.88,1.76,10.67,10.67,0,0,0,1.45,1.64,17.88,17.88,0,0,0,1.71,1.49l-.07.13A12.62,12.62,0,0,1,24.19,69.23Zm-7.58,32.55a3,3,0,1,1,1.62-3.86A3,3,0,0,1,16.61,101.79Z"/><path class="cls-2" d="M50,37a4.74,4.74,0,0,1,.95-.72,3.91,3.91,0,0,1,.6-.25,44.7,44.7,0,0,1-2.16-7.65A13.87,13.87,0,0,1,49,23.57c.27-1.56.91-3.42,2.46-4.31l.19.15a17.7,17.7,0,0,0-.2,4.33c.08,1.42-.17,2.89-.12,4.39a75.54,75.54,0,0,0,.71,7.7,4.53,4.53,0,0,1,3.29.46,103.83,103.83,0,0,1,6.1-10.86,70.31,70.31,0,0,1,9.86-12c3.75-3.57,8.23-7,13.76-7.94a15.56,15.56,0,0,1,3.47-.22,29.36,29.36,0,0,0-3.3-2,24.6,24.6,0,0,1-3.88,0l0-.34c.69-.14,1.36-.33,2-.53l-.75-.31A15.33,15.33,0,0,1,79,3.84L79,3.69a18.71,18.71,0,0,0,2-1.63c.15-.13.28-.27.43-.4-.75-.25-1.51-.48-2.29-.69a9.47,9.47,0,0,1-1.67,3.48,23.8,23.8,0,0,1-6.41,6.19l-.19-.21A31,31,0,0,0,73.45,7a20.62,20.62,0,0,0,2-3.62,13.18,13.18,0,0,0,.78-3,27.75,27.75,0,0,0-9.39,0c0,.06-.08.13-.13.2a4,4,0,0,1-4.87,1.05c-.82.29-1.62.6-2.41.95a5.47,5.47,0,0,1-8.08,5.31c-.28.25-.55.51-.82.77a1.49,1.49,0,0,1,.15.18,2.95,2.95,0,0,1-3.83,4.25c-.36.51-.7,1-1,1.57a2,2,0,0,1,.73.88,2,2,0,0,1-1,2.58,1.94,1.94,0,0,1-1.44,0c-.28.65-.56,1.29-.79,2,0,.14,0,.27.06.42a10.28,10.28,0,0,0,1.33,3,15.92,15.92,0,0,0,2,2.78l-.16.19a14.23,14.23,0,0,1-4.07-3.65q-.32,1.32-.53,2.68a68.92,68.92,0,0,1,5.42,7.13C48.33,34.06,49.17,35.51,50,37ZM66.09,8.28s0,0,0,0a2.27,2.27,0,1,1-.72-3.69l.1-.1a4.86,4.86,0,0,1,3.37,3.13,6,6,0,0,1-.63,4.69,15,15,0,0,1-5.81,6l-.18-.22a18.39,18.39,0,0,0,2.35-3.2,11.61,11.61,0,0,0,1.52-3.41A10.17,10.17,0,0,0,66.09,8.28Zm-9.31,6.89a20.34,20.34,0,0,0-.22-5l.22-.18c1.79,1,2.52,3.17,2.83,5a15.76,15.76,0,0,1-.44,5.5,53.11,53.11,0,0,1-3,10.29l-.27-.07a91.49,91.49,0,0,0,1-10.45C57,18.5,56.69,16.8,56.78,15.17Z"/><path class="cls-2" d="M140.51,93c.07-1.46.11-2.87.15-4.29l-.33.07a3.44,3.44,0,0,1,.06,1.05,3.32,3.32,0,0,1-6.5.34,12.83,12.83,0,0,1-1.46-4.19l.14,0a16.19,16.19,0,0,0,1.1,2c.1.17.23.29.33.45a.65.65,0,0,0,0-.13,5.25,5.25,0,0,0,.4-.8,3.63,3.63,0,0,1,.72-.72,16.26,16.26,0,0,1-4.51-7.52l.28-.12a20.22,20.22,0,0,0,2.68,3.32,12.23,12.23,0,0,0,3.12,2.51,10.81,10.81,0,0,0,3.34.88h0a2.41,2.41,0,0,1,0-2.41,21,21,0,0,0-5.26-9,4.07,4.07,0,0,1-2.12,2.07,5.92,5.92,0,0,1-3.76.12,2.93,2.93,0,0,1-1.5,2.69,2.85,2.85,0,0,1-.37.12,16.74,16.74,0,0,1,3,3.55,14.43,14.43,0,0,1,2.07,8.5,4.51,4.51,0,0,1,.71,0,5.52,5.52,0,1,1-6.25,4.67,5.6,5.6,0,0,1,.53-1.61,2.9,2.9,0,0,1-3,.9l0-.19a4.84,4.84,0,0,0,1.61-2,12.75,12.75,0,0,0,.94-2.38,14.88,14.88,0,0,0,.31-2.83,21.45,21.45,0,0,0-.06-3l.19,0a16.2,16.2,0,0,1,1.1,6,7.15,7.15,0,0,1-.35,2.34,5.51,5.51,0,0,1,2.86-1.8c-.06-.57-.14-1.11-.25-1.66A15.41,15.41,0,0,0,128,84.19,27.75,27.75,0,0,0,118.41,76a54.6,54.6,0,0,0-8.36-3.54c.25.67.5,1.34.73,2a19.51,19.51,0,0,1,5.48,3.11A6.62,6.62,0,0,1,118.82,81a3.75,3.75,0,0,1-1.4,4.09l-.22-.12a6,6,0,0,0-.71-3.16A17,17,0,0,0,114.88,79a17.88,17.88,0,0,0-2.58-2.52c-.39-.34-.79-.66-1.2-1,.36,1.14.69,2.31,1,3.49a5.89,5.89,0,0,1,1.26,3.57,4.91,4.91,0,0,1-.34,1.71,49.86,49.86,0,0,1,.37,5.94c0,.36,0,.71,0,1.07A2,2,0,0,1,114.43,95a1.92,1.92,0,0,1-1.33,0c-.11,1.15-.27,2.3-.47,3.42a11.31,11.31,0,0,0,1,1.88,16.23,16.23,0,0,0,2,2.78l-.15.19a15.47,15.47,0,0,1-3.27-2.7c-.18.85-.39,1.69-.61,2.51a22.35,22.35,0,0,1,5.42,1.11l-.06.34a23.4,23.4,0,0,0-4.9.31c-.34,0-.7.11-1,.18-.29.93-.61,1.85-1,2.75a20.2,20.2,0,0,0,2.59,1.13,4.63,4.63,0,0,1,4.36-1.81,4.51,4.51,0,0,1,3.61,3c.66,0,1.32-.08,2-.17a5.36,5.36,0,0,1,4.39-1.41l.76-.34a3.26,3.26,0,0,1-1.83-3.39,3.31,3.31,0,0,1,6.57.86c.33-.21.62-.41.92-.63a2.5,2.5,0,0,1-.17-1.24,2.76,2.76,0,0,1,3.13-2.34,2.59,2.59,0,0,1,.39.1,21,21,0,0,0,3.77-8.59Zm-11.06-15.5.1-.11a16.59,16.59,0,0,0,2,1.15,10.83,10.83,0,0,0,2,.86,10.44,10.44,0,0,0,1.95.27,3.68,3.68,0,0,0,1.94-.34l.11.09a2.26,2.26,0,0,1-2,1.74,4,4,0,0,1-2.5-.65A12.61,12.61,0,0,1,129.45,77.48Zm-10.76.15.11-.17a11.18,11.18,0,0,1,4.8,4.08,4.42,4.42,0,0,1,.83,3.45,3.66,3.66,0,0,1-2.29,2.61l-.08-.07a1.71,1.71,0,1,1,.25-2.82s0,0,0,0a7.52,7.52,0,0,0-.24-2.41,8.59,8.59,0,0,0-1.4-2.43A14.81,14.81,0,0,0,118.69,77.62Zm6.72,26.48a4.24,4.24,0,1,1-3.59-4.8A4.23,4.23,0,0,1,125.42,104.1Z"/><circle class="cls-1" cx="30.14" cy="107.08" r="6.79"/><circle class="cls-1" cx="113.16" cy="107.08" r="6.79"/><path class="cls-3" d="M26.23,89.82c0-28,20.34-50.74,45.42-50.74s45.42,22.72,45.42,50.74a56.45,56.45,0,0,1-1.1,11.08,6.78,6.78,0,0,1,3.78,4.57,62,62,0,0,0,2-15.65c0-30.91-22.43-56-50.1-56s-50.1,25.06-50.1,56a62.06,62.06,0,0,0,2,15.65,6.8,6.8,0,0,1,3.78-4.57A56.45,56.45,0,0,1,26.23,89.82Z"/><path class="cls-4" d="M50.19,63.28H61.86L70,86.14c.56,1.61,1.12,3.85,1.68,6.08a56,56,0,0,1,1.68-6.08l8.11-22.86H93.12l5,47.27H87.94l-2-24.19c-.21-2.45-.35-5.73-.49-9a91.63,91.63,0,0,1-2.52,8.95l-5.8,16.29H66.2l-5.8-16.29a86.72,86.72,0,0,1-2.59-9c-.07,3.36-.21,6.64-.42,9.09l-2,24.19H45.15Z"/><path class="cls-1" d="M3.61,118.8H6.72l4,10.42c.25.64.5,1.6.73,2.44.25-.84.53-1.76.78-2.44l3.95-10.42h3.11l2.24,18.93H18.9L17.42,125c-.08-.73-.17-1.76-.22-2.77-.28,1-.56,2-.84,2.77l-3.44,9.18H10L6.52,125c-.28-.73-.62-1.74-.9-2.72-.06,1-.08,2-.17,2.72L4,137.73H1.37Z"/><path class="cls-1" d="M23.69,123.31h2.58l1.29,9.13c.25,1.85,1,3,2.6,3h1.43l1.51-12.12h2.58L33,143.63H30.49l.78-5.91H30.1c-3.16,0-4.68-2-5.1-5Z"/><path class="cls-4" d="M38.44,136.38a1.64,1.64,0,0,1,3.28,0,1.64,1.64,0,1,1-3.28,0Z"/><path class="cls-1" d="M47.21,118.8h3.11l4,10.42c.25.64.5,1.6.73,2.44.25-.84.53-1.76.78-2.44l3.95-10.42h3.11l2.24,18.93H62.5L61,125c-.08-.73-.17-1.76-.22-2.77-.28,1-.56,2-.84,2.77l-3.44,9.18H53.56L50.12,125c-.28-.73-.62-1.74-.9-2.72-.06,1-.08,2-.17,2.72L47.6,137.73H45Z"/><path class="cls-1" d="M68.09,129.27c0-4.26,2.49-6.33,5.85-6.33s5.85,2.1,5.85,6.33v2.49c0,4.23-2.49,6.33-5.85,6.33s-5.85-2.1-5.85-6.33Zm5.85,6.55c2,0,3.28-1.18,3.28-4.2v-2.21c0-3.05-1.26-4.2-3.28-4.2s-3.28,1.15-3.28,4.2v2.21C70.67,134.65,71.93,135.82,73.95,135.82Z"/><path class="cls-1" d="M83.1,135.15a12.46,12.46,0,0,0,3.72.67c1.57,0,2.6-.81,2.6-1.93C89.43,130.73,83,132,83,127c0-2.32,1.82-4,4.82-4a11.32,11.32,0,0,1,3.72.64l-.59,2.18a10.14,10.14,0,0,0-3.14-.56c-1.54,0-2.21.76-2.21,1.76,0,2.94,6.47,1.74,6.47,6.86,0,2.1-1.65,4.26-5.21,4.26a12.21,12.21,0,0,1-4.2-.76Z"/><path class="cls-1" d="M94.89,129.24c0-4.37,2.49-6.3,6-6.3a13.59,13.59,0,0,1,4.09.67l-.48,2.18a13.85,13.85,0,0,0-3.5-.59c-2.35,0-3.56,1.23-3.56,4.17v2.27c0,2.91,1.2,4.17,3.56,4.17a12.85,12.85,0,0,0,3.5-.56l.48,2.16a14,14,0,0,1-4.09.67c-3.53,0-6-2-6-6.33Z"/><path class="cls-1" d="M108.08,129.27c0-4.26,2.49-6.33,5.85-6.33s5.85,2.1,5.85,6.33v2.49c0,4.23-2.49,6.33-5.85,6.33s-5.85-2.1-5.85-6.33Zm5.85,6.55c2,0,3.28-1.18,3.28-4.2v-2.21c0-3.05-1.26-4.2-3.28-4.2s-3.28,1.15-3.28,4.2v2.21C110.65,134.65,111.91,135.82,113.93,135.82Z"/><path class="cls-1" d="M122.83,123.31h2.55l.64,9.41c.11,1.82,1,3.08,2.55,3.08s2.49-1.29,2.49-3.11v-8.34h2.52v8.34c0,1.82,1,3.11,2.52,3.11s2.44-1.26,2.55-3.08l.64-9.41h2.58l-.7,9.6c-.25,3.22-2.18,5.18-5.07,5.18a4.4,4.4,0,0,1-3.78-2,4.37,4.37,0,0,1-3.78,2c-2.86,0-4.79-2-5-5.21Z"/></svg>