<?xml version="1.0" standalone="no"?>
<!DOCTYPE svg PUBLIC "-//W3C//DTD SVG 20010904//EN"
 "http://www.w3.org/TR/2001/REC-SVG-20010904/DTD/svg10.dtd">
<svg version="1.0" xmlns="http://www.w3.org/2000/svg"
 width="321.000000pt" height="321.000000pt" viewBox="0 0 321.000000 321.000000"
 preserveAspectRatio="xMidYMid meet">
<metadata>
Created by potrace 1.11, written by Peter Selinger 2001-2013
</metadata>
<g transform="translate(0.000000,321.000000) scale(0.100000,-0.100000)"
fill="#000000" stroke="none">
<path d="M508 3198 c-37 -3 -91 -13 -120 -22 -128 -37 -262 -152 -325 -277
-61 -123 -60 -94 -58 -1324 2 -1044 3 -1124 19 -1175 57 -174 174 -300 342
-367 l69 -28 1145 -2 c1014 -3 1152 -1 1205 13 195 51 343 195 401 389 17 56
18 137 19 1180 1 1173 1 1179 -42 1280 -47 111 -144 216 -250 273 -124 66 -85
64 -1268 65 -588 1 -1100 -1 -1137 -5z"/>
</g>
</svg>
