<svg id="Layer_1" data-name="Layer 1" xmlns="http://www.w3.org/2000/svg" viewBox="0 0 40 40"><defs><style>.cls-1{fill:#0e69b4;}</style></defs><title>insta</title><path class="cls-1" d="M20,0h0A20,20,0,0,0,0,20H0A20,20,0,0,0,20,40h0A20,20,0,0,0,40,20h0A20,20,0,0,0,20,0ZM30.19,24.23a7.53,7.53,0,0,1-.48,2.49,5.24,5.24,0,0,1-3,3,7.53,7.53,0,0,1-2.49.48c-1.09,0-1.44.06-4.23.06s-3.13,0-4.23-.06a7.53,7.53,0,0,1-2.49-.48,5.24,5.24,0,0,1-3-3,7.53,7.53,0,0,1-.48-2.49c0-1.09-.06-1.44-.06-4.23s0-3.13.06-4.23a7.53,7.53,0,0,1,.48-2.49,5.24,5.24,0,0,1,3-3,7.53,7.53,0,0,1,2.49-.48c1.09,0,1.44-.06,4.23-.06s3.13,0,4.23.06a7.53,7.53,0,0,1,2.49.48,5.24,5.24,0,0,1,3,3,7.53,7.53,0,0,1,.48,2.49c0,1.09.06,1.44.06,4.23S30.24,23.13,30.19,24.23Z"/><path class="cls-1" d="M28,14A3.4,3.4,0,0,0,26,12a5.68,5.68,0,0,0-1.9-.35c-1.08,0-1.41-.06-4.14-.06s-3.06,0-4.14.06A5.68,5.68,0,0,0,14,12,3.4,3.4,0,0,0,12,14a5.67,5.67,0,0,0-.35,1.9c0,1.08-.06,1.41-.06,4.14s0,3.06.06,4.14A5.67,5.67,0,0,0,12,26,3.4,3.4,0,0,0,14,28a5.67,5.67,0,0,0,1.9.35c1.08,0,1.41.06,4.14.06s3.06,0,4.14-.06A5.67,5.67,0,0,0,26,28,3.4,3.4,0,0,0,28,26a5.67,5.67,0,0,0,.35-1.9c0-1.08.06-1.41.06-4.14s0-3.06-.06-4.14A5.67,5.67,0,0,0,28,14ZM20,25.27A5.27,5.27,0,1,1,25.27,20,5.27,5.27,0,0,1,20,25.27Zm5.47-9.51a1.23,1.23,0,1,1,1.23-1.23A1.23,1.23,0,0,1,25.47,15.76Z"/><circle class="cls-1" cx="20" cy="20" r="3.42"/></svg>