<svg id="Layer_1" data-name="Layer 1" xmlns="http://www.w3.org/2000/svg" viewBox="0 0 40 40"><defs><style>.cls-1{fill:#0e69b4;}</style></defs><title>vk</title><path class="cls-1" d="M20,0h0A20,20,0,0,0,0,20H0A20,20,0,0,0,20,40h0A20,20,0,0,0,40,20h0A20,20,0,0,0,20,0ZM31.05,27.87l-3.39,0A2.4,2.4,0,0,1,26,27.41c-1.27-.87-2.46-3.13-3.39-2.84s-.91,2.33-.91,2.33a1.11,1.11,0,0,1-.21.67,1.28,1.28,0,0,1-.69.3H19.26A8.7,8.7,0,0,1,13,25C9.75,21.66,6.91,15,6.91,15s-.16-.44,0-.65.74-.25.74-.25l3.62,0a1.57,1.57,0,0,1,.59.24,1.13,1.13,0,0,1,.31.43,24.33,24.33,0,0,0,1.36,2.82c1.51,2.62,2.22,3.19,2.73,2.91.75-.41.52-3.7.52-3.7a3.68,3.68,0,0,0-.38-1.73,1.71,1.71,0,0,0-1.13-.57c-.2,0,.13-.5.56-.71A8.22,8.22,0,0,1,19,13.47a6.53,6.53,0,0,1,1.78.18c1.25.3.83,1.47.83,4.26,0,.89-.16,2.15.48,2.57.28.18,1,0,2.66-2.86a22.13,22.13,0,0,0,1.41-3,1.07,1.07,0,0,1,.34-.41.87.87,0,0,1,.49-.09l3.81,0s1.15-.14,1.33.38-.43,1.81-2,3.89c-2.56,3.41-2.84,3.09-.72,5.06A11.32,11.32,0,0,1,32,26.37C32.82,27.77,31.05,27.87,31.05,27.87Z"/></svg>