<svg id="OBJECTS" xmlns="http://www.w3.org/2000/svg" xmlns:xlink="http://www.w3.org/1999/xlink" viewBox="0 0 440 408.16"><defs><style>.cls-1,.cls-12,.cls-13,.cls-16,.cls-17,.cls-26,.cls-33,.cls-7{fill:none;}.cls-2{fill:#f26b2b;}.cls-3{fill:#f9e2c2;}.cls-4{fill:#f2452b;}.cls-5{fill:#071b3c;}.cls-6{fill:#01684b;}.cls-12,.cls-13,.cls-16,.cls-17,.cls-7{stroke:#f9e2c2;}.cls-12,.cls-13,.cls-16,.cls-17,.cls-26,.cls-33,.cls-7{stroke-miterlimit:10;}.cls-7{stroke-width:0.45px;}.cls-8{fill:#ffae01;}.cls-9{fill:#ffe3c6;}.cls-10{fill:#c75823;}.cls-11{clip-path:url(#clip-path);}.cls-12{stroke-width:1.9px;}.cls-13{stroke-width:1.84px;}.cls-14{clip-path:url(#clip-path-2);}.cls-15{clip-path:url(#clip-path-3);}.cls-16{stroke-width:1.99px;}.cls-17{stroke-width:1.93px;}.cls-18{clip-path:url(#clip-path-4);}.cls-19{fill:#a12f0c;}.cls-20{fill:#d13d0f;}.cls-21{fill:#065232;}.cls-22{fill:#098250;}.cls-23{clip-path:url(#clip-path-5);}.cls-24{clip-path:url(#clip-path-6);}.cls-25{clip-path:url(#clip-path-7);}.cls-26{stroke:#01684b;stroke-width:3.92px;}.cls-27{clip-path:url(#clip-path-8);}.cls-28{clip-path:url(#clip-path-9);}.cls-29{clip-path:url(#clip-path-10);}.cls-30{fill:#0c6c9c;}.cls-31{clip-path:url(#clip-path-11);}.cls-32{fill:#018762;}.cls-33{stroke:#071b3c;stroke-width:0.89px;}</style><clipPath id="clip-path"><rect class="cls-1" x="80.66" y="313.52" width="62.7" height="89.09"/></clipPath><clipPath id="clip-path-2"><path class="cls-1" d="M139,215.74a35,35,0,0,0-6-51.35,43.7,43.7,0,0,1-18.39-34.84h-4.23A43.7,43.7,0,0,1,92,164.39a35,35,0,0,0-6,51.35h-.34L81,218.12v.44h62.7v-.44l-4.75-2.38Z"/></clipPath><clipPath id="clip-path-3"><rect class="cls-1" x="333.55" y="309.06" width="65.67" height="93.31"/></clipPath><clipPath id="clip-path-4"><path class="cls-1" d="M394.68,206.65a36.68,36.68,0,0,0-6.26-53.79,45.77,45.77,0,0,1-19.26-36.49h-4.43a45.77,45.77,0,0,1-19.26,36.49,36.68,36.68,0,0,0-6.26,53.79h-.36l-5,2.49v.46h65.67v-.46l-5-2.49Z"/></clipPath><clipPath id="clip-path-5"><rect class="cls-1" x="271.6" y="380.42" width="67.48" height="13.52"/></clipPath><clipPath id="clip-path-6"><rect class="cls-1" x="271.6" y="366.9" width="67.48" height="13.52"/></clipPath><clipPath id="clip-path-7"><path class="cls-1" d="M329.83,290.33A32.28,32.28,0,0,0,324.32,243a40.27,40.27,0,0,1-16.95-32.11h-3.9A40.27,40.27,0,0,1,286.53,243,32.28,32.28,0,0,0,281,290.33h-.32l-4.38,2.19v.41h57.78v-.41l-4.38-2.19Z"/></clipPath><clipPath id="clip-path-8"><rect class="cls-1" x="117.67" y="380.42" width="67.48" height="13.52"/></clipPath><clipPath id="clip-path-9"><rect class="cls-1" x="117.67" y="366.9" width="67.48" height="13.52"/></clipPath><clipPath id="clip-path-10"><path class="cls-1" d="M175.89,290.33A32.28,32.28,0,0,0,170.39,243a40.27,40.27,0,0,1-16.95-32.11h-3.9A40.27,40.27,0,0,1,132.6,243a32.28,32.28,0,0,0-5.51,47.33h-.32l-4.38,2.19v.41h57.78v-.41l-4.38-2.19Z"/></clipPath><clipPath id="clip-path-11"><rect class="cls-1" x="168.92" y="309.06" width="65.67" height="93.31"/></clipPath></defs><title>Basil</title><rect class="cls-2" x="264.23" y="35.34" width="8.29" height="9.53"/><polygon class="cls-3" points="274.79 29.43 262.17 29.43 262.56 30.57 274.35 30.57 274.79 29.43"/><polygon class="cls-2" points="274.35 30.57 262.56 30.57 263.11 32.14 273.75 32.14 274.35 30.57"/><polygon class="cls-3" points="273.75 32.14 263.11 32.14 263.35 32.82 273.49 32.82 273.75 32.14"/><polygon class="cls-3" points="263.92 34.45 264.23 35.34 272.53 35.34 272.87 34.45 263.92 34.45"/><polygon class="cls-2" points="273.49 32.82 263.35 32.82 263.92 34.45 272.87 34.45 273.49 32.82"/><rect class="cls-4" x="265.71" y="35.34" width="0.75" height="9.53"/><rect class="cls-4" x="268.01" y="35.34" width="0.75" height="9.53"/><rect class="cls-4" x="270.31" y="35.34" width="0.75" height="9.53"/><polygon class="cls-2" points="273.24 47.81 273.24 47.81 263.59 47.81 263.59 47.81 247.38 131.22 263.59 131.22 273.24 131.22 289.45 131.22 273.24 47.81"/><polygon class="cls-3" points="254.13 131.6 253.43 131.6 265.63 47.81 266.33 47.81 254.13 131.6"/><polygon class="cls-3" points="282.06 131.6 282.76 131.6 270.56 47.81 269.86 47.81 282.06 131.6"/><polygon class="cls-2" points="290.45 139.12 278.11 139.12 258.72 139.12 246.38 139.12 226.13 222.53 258.72 222.53 278.11 222.53 310.69 222.53 290.45 139.12"/><rect class="cls-2" x="221.12" y="241.54" width="93.98" height="166.04"/><path class="cls-3" d="M239.6,358.54v-.62a5,5,0,0,0-5-5h-2a5,5,0,0,0-5,5v.62Z"/><rect class="cls-3" x="227.56" y="363.06" width="12.04" height="5.73"/><rect class="cls-3" x="227.56" y="372.72" width="12.04" height="5.73"/><rect class="cls-3" x="227.56" y="380.26" width="12.04" height="3.51"/><path class="cls-5" d="M237,383.77V359.36a2.82,2.82,0,0,0-2.82-2.82H233a2.82,2.82,0,0,0-2.82,2.82v24.41Z"/><path class="cls-3" d="M263.87,358.54v-.62a5,5,0,0,0-5-5h-2a5,5,0,0,0-5,5v.62Z"/><rect class="cls-3" x="251.83" y="363.06" width="12.04" height="5.73"/><rect class="cls-3" x="251.83" y="372.72" width="12.04" height="5.73"/><rect class="cls-3" x="251.83" y="380.26" width="12.04" height="3.51"/><path class="cls-5" d="M261.25,383.77V359.36a2.82,2.82,0,0,0-2.82-2.82h-1.15a2.82,2.82,0,0,0-2.82,2.82v24.41Z"/><path class="cls-3" d="M288.14,358.54v-.62a5,5,0,0,0-5-5h-2a5,5,0,0,0-5,5v.62Z"/><rect class="cls-3" x="276.1" y="363.06" width="12.04" height="5.73"/><rect class="cls-3" x="276.1" y="372.72" width="12.04" height="5.73"/><rect class="cls-3" x="276.1" y="380.26" width="12.04" height="3.51"/><path class="cls-5" d="M285.52,383.77V359.36a2.82,2.82,0,0,0-2.82-2.82h-1.15a2.82,2.82,0,0,0-2.82,2.82v24.41Z"/><path class="cls-3" d="M312.41,358.54v-.62a5,5,0,0,0-5-5h-2a5,5,0,0,0-5,5v.62Z"/><rect class="cls-3" x="300.38" y="363.06" width="12.04" height="5.73"/><rect class="cls-3" x="300.38" y="372.72" width="12.04" height="5.73"/><rect class="cls-3" x="300.38" y="380.26" width="12.04" height="3.51"/><path class="cls-5" d="M309.79,383.77V359.36a2.82,2.82,0,0,0-2.82-2.82h-1.15a2.82,2.82,0,0,0-2.82,2.82v24.41Z"/><rect class="cls-3" x="221.12" y="290.33" width="93.98" height="3.43"/><rect class="cls-6" x="221.12" y="284.34" width="93.98" height="6"/><rect class="cls-6" x="221.12" y="321.56" width="93.98" height="14.62"/><path class="cls-3" d="M254.49,267H260a2.88,2.88,0,0,1,2.88,2.88v14.45a0,0,0,0,1,0,0H251.61a0,0,0,0,1,0,0V269.89A2.88,2.88,0,0,1,254.49,267Z"/><path class="cls-5" d="M259.92,284.34h-5.35V272.74a2.67,2.67,0,0,1,2.67-2.67h0a2.67,2.67,0,0,1,2.67,2.67Z"/><polyline class="cls-7" points="248.3 284.34 248.3 264.47 256.94 258.69 265.58 264.47 265.58 284.34"/><path class="cls-3" d="M299.86,267h5.51a2.88,2.88,0,0,1,2.88,2.88v14.45a0,0,0,0,1,0,0H297a0,0,0,0,1,0,0V269.89A2.88,2.88,0,0,1,299.86,267Z"/><path class="cls-5" d="M305.28,284.34h-5.35V272.74a2.67,2.67,0,0,1,2.67-2.67h0a2.67,2.67,0,0,1,2.67,2.67Z"/><polyline class="cls-7" points="293.66 284.34 293.66 264.47 302.3 258.69 310.95 264.47 310.95 284.34"/><rect class="cls-3" x="276.82" y="278.98" width="8.13" height="5.36"/><rect class="cls-3" x="276.82" y="268.83" width="8.13" height="5.36"/><rect class="cls-3" x="276.82" y="258.69" width="8.13" height="5.36"/><rect class="cls-3" x="276.82" y="248.55" width="8.13" height="5.36"/><rect class="cls-3" x="276.82" y="241.54" width="8.13" height="2.23"/><rect class="cls-5" x="274.29" y="241.54" width="2.53" height="42.79"/><rect class="cls-3" x="232.19" y="278.98" width="8.13" height="5.36"/><rect class="cls-3" x="232.19" y="268.83" width="8.13" height="5.36"/><rect class="cls-3" x="232.19" y="258.69" width="8.13" height="5.36"/><rect class="cls-3" x="232.19" y="248.55" width="8.13" height="5.36"/><rect class="cls-3" x="232.19" y="241.54" width="8.13" height="2.23"/><rect class="cls-5" x="229.66" y="241.54" width="2.53" height="42.79"/><rect class="cls-3" x="225.23" y="311.23" width="5.77" height="5.77"/><rect class="cls-3" x="240.7" y="311.23" width="5.77" height="5.77"/><rect class="cls-3" x="256.18" y="311.23" width="5.77" height="5.77"/><rect class="cls-3" x="271.65" y="311.23" width="5.77" height="5.77"/><rect class="cls-3" x="287.13" y="311.23" width="5.77" height="5.77"/><rect class="cls-3" x="302.6" y="311.23" width="5.77" height="5.77"/><rect class="cls-3" x="232.93" y="329.98" width="12.39" height="12.39" transform="translate(307.75 -70.62) rotate(45)"/><rect class="cls-2" x="232.93" y="333.46" width="12.39" height="12.39" transform="translate(310.21 -69.6) rotate(45)"/><rect class="cls-3" x="263.2" y="329.98" width="12.39" height="12.39" transform="translate(316.62 -92.03) rotate(45)"/><rect class="cls-2" x="263.2" y="333.46" width="12.39" height="12.39" transform="translate(319.08 -91.01) rotate(45)"/><rect class="cls-3" x="293.47" y="329.98" width="12.39" height="12.39" transform="translate(325.48 -113.43) rotate(45)"/><rect class="cls-2" x="293.47" y="333.46" width="12.39" height="12.39" transform="translate(327.94 -112.41) rotate(45)"/><rect class="cls-3" x="221.12" y="343.43" width="93.98" height="4.35"/><polygon class="cls-3" points="318.41 232.47 280.94 232.47 274.12 232.47 217.46 232.47 217.46 235.72 318.41 235.72 318.41 232.47"/><polygon class="cls-3" points="219.24 239.2 220.77 241.54 274.12 241.54 280.94 241.54 315.1 241.54 316.63 239.2 219.24 239.2"/><polygon class="cls-2" points="318.41 236.49 318.41 235.72 217.46 235.72 217.46 236.49 219.24 239.2 316.63 239.2 318.41 236.49"/><rect class="cls-2" x="217.46" y="222.53" width="100.96" height="9.95"/><rect class="cls-6" x="217.46" y="222.53" width="100.96" height="2.1"/><rect class="cls-5" x="219.23" y="227.5" width="1.89" height="4.97"/><rect class="cls-5" x="224.7" y="227.5" width="1.89" height="4.97"/><rect class="cls-5" x="230.16" y="227.5" width="1.89" height="4.97"/><rect class="cls-5" x="235.63" y="227.5" width="1.89" height="4.97"/><rect class="cls-5" x="241.09" y="227.5" width="1.89" height="4.97"/><rect class="cls-5" x="246.56" y="227.5" width="1.89" height="4.97"/><rect class="cls-5" x="252.02" y="227.5" width="1.89" height="4.97"/><rect class="cls-5" x="257.49" y="227.5" width="1.89" height="4.97"/><rect class="cls-5" x="262.95" y="227.5" width="1.89" height="4.97"/><rect class="cls-5" x="268.41" y="227.5" width="1.89" height="4.97"/><rect class="cls-5" x="273.88" y="227.5" width="1.89" height="4.97"/><rect class="cls-5" x="279.34" y="227.5" width="1.89" height="4.97"/><rect class="cls-5" x="284.81" y="227.5" width="1.89" height="4.97"/><rect class="cls-5" x="290.27" y="227.5" width="1.89" height="4.97"/><rect class="cls-5" x="295.74" y="227.5" width="1.89" height="4.97"/><rect class="cls-5" x="301.2" y="227.5" width="1.89" height="4.97"/><rect class="cls-5" x="306.67" y="227.5" width="1.89" height="4.97"/><rect class="cls-5" x="312.13" y="227.5" width="1.89" height="4.97"/><rect class="cls-6" x="259.56" y="188.9" width="18.12" height="11.95"/><path class="cls-3" d="M265.7,200.84a18.09,18.09,0,0,0-36.18,0Z"/><path class="cls-2" d="M264,200.84a16.37,16.37,0,0,0-32.73,0Z"/><path class="cls-3" d="M259.56,200.84a12,12,0,0,0-23.91,0Z"/><path class="cls-2" d="M258.38,200.84a10.77,10.77,0,0,0-21.54,0Z"/><path class="cls-3" d="M254,200.84a6.34,6.34,0,0,0-12.69,0Z"/><path class="cls-6" d="M251.09,200.84a3.48,3.48,0,0,0-7,0Z"/><path class="cls-3" d="M306.55,200.84a18.09,18.09,0,0,0-36.18,0Z"/><path class="cls-2" d="M304.82,200.84a16.37,16.37,0,0,0-32.73,0Z"/><path class="cls-3" d="M300.41,200.84a12,12,0,0,0-23.91,0Z"/><path class="cls-2" d="M299.23,200.84a10.77,10.77,0,0,0-21.54,0Z"/><path class="cls-3" d="M294.8,200.84a6.34,6.34,0,0,0-12.69,0Z"/><path class="cls-6" d="M291.93,200.84a3.48,3.48,0,0,0-7,0Z"/><path class="cls-2" d="M271.15,200.84h-6.32v-.78A3.16,3.16,0,0,1,268,196.9h0a3.16,3.16,0,0,1,3.16,3.16Z"/><path class="cls-3" d="M270.15,200.84a2.23,2.23,0,1,0-4.31,0Z"/><path class="cls-6" d="M307.12,206H229.91a2.6,2.6,0,0,1-2.6-2.6h0a2.6,2.6,0,0,1,2.6-2.6h77.22a2.6,2.6,0,0,1,2.6,2.6h0A2.6,2.6,0,0,1,307.12,206Z"/><rect class="cls-6" x="257.48" y="207.77" width="22.38" height="14.75"/><path class="cls-3" d="M265.06,222.52a22.34,22.34,0,0,0-44.68,0Z"/><path class="cls-2" d="M262.93,222.52a20.21,20.21,0,0,0-40.42,0Z"/><path class="cls-3" d="M257.48,222.52a14.76,14.76,0,0,0-29.52,0Z"/><path class="cls-2" d="M256,222.52a13.3,13.3,0,0,0-26.6,0Z"/><path class="cls-3" d="M250.55,222.52a7.83,7.83,0,0,0-15.67,0Z"/><path class="cls-6" d="M247,222.52a4.3,4.3,0,0,0-8.59,0Z"/><path class="cls-3" d="M315.49,222.52a22.34,22.34,0,0,0-44.68,0Z"/><path class="cls-2" d="M313.36,222.52a20.21,20.21,0,0,0-40.42,0Z"/><path class="cls-3" d="M307.91,222.52a14.76,14.76,0,0,0-29.52,0Z"/><path class="cls-2" d="M306.45,222.52a13.3,13.3,0,0,0-26.6,0Z"/><path class="cls-3" d="M301,222.52a7.83,7.83,0,0,0-15.67,0Z"/><path class="cls-6" d="M297.45,222.52a4.3,4.3,0,0,0-8.59,0Z"/><path class="cls-2" d="M271.78,222.52H264v-1a3.9,3.9,0,0,1,3.9-3.9h0a3.9,3.9,0,0,1,3.9,3.9Z"/><path class="cls-3" d="M270.54,222.52a2.76,2.76,0,1,0-5.32,0Z"/><path class="cls-3" d="M273.63,175h-8.26v-20a4.13,4.13,0,0,1,4.13-4.13h0a4.13,4.13,0,0,1,4.13,4.13Z"/><path class="cls-6" d="M272.1,173.34h-5.2V155.52a2.6,2.6,0,0,1,2.6-2.6h0a2.6,2.6,0,0,1,2.6,2.6Z"/><path class="cls-3" d="M292.49,175h-8.26v-20a4.13,4.13,0,0,1,4.13-4.13h0a4.13,4.13,0,0,1,4.13,4.13Z"/><path class="cls-6" d="M291,173.34h-5.2V155.52a2.6,2.6,0,0,1,2.6-2.6h0a2.6,2.6,0,0,1,2.6,2.6Z"/><path class="cls-3" d="M254.77,175h-8.26v-20a4.13,4.13,0,0,1,4.13-4.13h0a4.13,4.13,0,0,1,4.13,4.13Z"/><path class="cls-6" d="M253.24,173.34H248V155.52a2.6,2.6,0,0,1,2.6-2.6h0a2.6,2.6,0,0,1,2.6,2.6Z"/><rect class="cls-6" x="260.37" y="171.58" width="16.28" height="10.73"/><path class="cls-3" d="M265.89,182.32a16.25,16.25,0,0,0-32.51,0Z"/><path class="cls-2" d="M264.34,182.32a14.7,14.7,0,0,0-29.41,0Z"/><path class="cls-3" d="M260.37,182.32a10.74,10.74,0,0,0-21.48,0Z"/><path class="cls-2" d="M259.31,182.32a9.67,9.67,0,0,0-19.35,0Z"/><path class="cls-3" d="M255.34,182.32a5.7,5.7,0,0,0-11.4,0Z"/><path class="cls-6" d="M252.76,182.32a3.13,3.13,0,0,0-6.25,0Z"/><path class="cls-3" d="M302.58,182.32a16.25,16.25,0,0,0-32.51,0Z"/><path class="cls-2" d="M301,182.32a14.7,14.7,0,0,0-29.41,0Z"/><path class="cls-3" d="M297.07,182.32a10.74,10.74,0,0,0-21.48,0Z"/><path class="cls-2" d="M296,182.32a9.67,9.67,0,0,0-19.35,0Z"/><path class="cls-3" d="M292,182.32a5.7,5.7,0,0,0-11.4,0Z"/><path class="cls-6" d="M289.45,182.32a3.13,3.13,0,0,0-6.25,0Z"/><path class="cls-2" d="M270.78,182.32h-5.68v-.7a2.84,2.84,0,0,1,2.84-2.84h0a2.84,2.84,0,0,1,2.84,2.84Z"/><path class="cls-3" d="M269.88,182.32a2,2,0,0,0,.07-.5,2,2,0,1,0-3.94.5Z"/><path class="cls-6" d="M303.1,187H233.73a2.34,2.34,0,0,1-2.34-2.34h0a2.34,2.34,0,0,1,2.34-2.34H303.1a2.34,2.34,0,0,1,2.34,2.34h0A2.34,2.34,0,0,1,303.1,187Z"/><polygon class="cls-3" points="246.38 139.12 243.26 136.01 293.15 136.01 290.24 138.91 246.38 139.12"/><rect class="cls-6" x="243.26" y="134.09" width="49.89" height="1.92"/><rect class="cls-6" x="243.26" y="131.22" width="49.89" height="1.92"/><rect class="cls-3" x="243.26" y="133.13" width="49.89" height="0.96"/><path class="cls-6" d="M268.32,100.42a7,7,0,0,0-7,6.93v6.26h14.08v-6.26A7,7,0,0,0,268.32,100.42Z"/><path class="cls-3" d="M268.32,102.86a5.05,5.05,0,0,0-5.05,5v5.77h10.1v-5.77A5.05,5.05,0,0,0,268.32,102.86Z"/><path class="cls-2" d="M268.32,105.48a2.87,2.87,0,0,0-2.87,2.83v5.3h5.75v-5.3A2.87,2.87,0,0,0,268.32,105.48Z"/><path class="cls-6" d="M261.28,108.55a7,7,0,0,0-7,6.92v6.26h14.08v-6.26A7,7,0,0,0,261.28,108.55Z"/><path class="cls-3" d="M261.28,111a5.05,5.05,0,0,0-5.05,5v5.77h10.1V116A5.05,5.05,0,0,0,261.28,111Z"/><path class="cls-2" d="M261.28,113.61a2.87,2.87,0,0,0-2.87,2.83v5.3h5.75v-5.3A2.87,2.87,0,0,0,261.28,113.61Z"/><path class="cls-6" d="M275.19,108.55a7,7,0,0,0-7,6.92v6.26h14.08v-6.26A7,7,0,0,0,275.19,108.55Z"/><path class="cls-3" d="M275.19,111a5.05,5.05,0,0,0-5.05,5v5.77h10.1V116A5.05,5.05,0,0,0,275.19,111Z"/><path class="cls-2" d="M275.19,113.61a2.87,2.87,0,0,0-2.87,2.83v5.3h5.75v-5.3A2.87,2.87,0,0,0,275.19,113.61Z"/><path class="cls-6" d="M268.5,118.41a7,7,0,0,0-7,6.92v6.26h14.08v-6.26A7,7,0,0,0,268.5,118.41Z"/><path class="cls-3" d="M268.5,120.86a5.05,5.05,0,0,0-5.05,5v5.77h10.1v-5.77A5.05,5.05,0,0,0,268.5,120.86Z"/><path class="cls-2" d="M268.5,123.47a2.87,2.87,0,0,0-2.87,2.83v5.3h5.75v-5.3A2.87,2.87,0,0,0,268.5,123.47Z"/><path class="cls-6" d="M254.42,118.41a7,7,0,0,0-7,6.92v6.26h14.08v-6.26A7,7,0,0,0,254.42,118.41Z"/><path class="cls-3" d="M254.42,120.86a5.05,5.05,0,0,0-5.05,5v5.77h10.1v-5.77A5.05,5.05,0,0,0,254.42,120.86Z"/><path class="cls-2" d="M254.42,123.47a2.87,2.87,0,0,0-2.87,2.83v5.3h5.75v-5.3A2.87,2.87,0,0,0,254.42,123.47Z"/><path class="cls-6" d="M282.42,118.41a7,7,0,0,0-7,6.92v6.26h14.08v-6.26A7,7,0,0,0,282.42,118.41Z"/><path class="cls-3" d="M282.42,120.86a5.05,5.05,0,0,0-5.05,5v5.77h10.1v-5.77A5.05,5.05,0,0,0,282.42,120.86Z"/><path class="cls-2" d="M282.42,123.47a2.87,2.87,0,0,0-2.87,2.83v5.3h5.75v-5.3A2.87,2.87,0,0,0,282.42,123.47Z"/><rect class="cls-5" x="263.61" y="45.38" width="9.58" height="2.44"/><rect class="cls-3" x="263.61" y="44.78" width="9.58" height="0.59"/><path class="cls-3" d="M270.23,44.78a1.83,1.83,0,0,0-3.66,0Z"/><path class="cls-2" d="M270.06,44.78a1.65,1.65,0,0,0-3.31,0Z"/><path class="cls-3" d="M269.61,44.78a1.21,1.21,0,0,0-2.42,0Z"/><path class="cls-2" d="M269.49,44.78a1.09,1.09,0,0,0-2.18,0Z"/><path class="cls-3" d="M269,44.78a.64.64,0,0,0-1.28,0Z"/><path class="cls-6" d="M268.75,44.78a.35.35,0,0,0-.7,0Z"/><path class="cls-3" d="M267.27,44.78a1.83,1.83,0,0,0-3.66,0Z"/><path class="cls-2" d="M267.1,44.78a1.65,1.65,0,0,0-3.31,0Z"/><path class="cls-3" d="M266.65,44.78a1.21,1.21,0,0,0-2.42,0Z"/><path class="cls-2" d="M266.53,44.78a1.09,1.09,0,0,0-2.18,0Z"/><path class="cls-3" d="M266.08,44.78a.64.64,0,0,0-1.28,0Z"/><path class="cls-6" d="M265.79,44.78a.35.35,0,0,0-.7,0Z"/><path class="cls-3" d="M273.15,44.78a1.83,1.83,0,0,0-3.66,0Z"/><path class="cls-2" d="M273,44.78a1.65,1.65,0,0,0-3.31,0Z"/><path class="cls-3" d="M272.53,44.78a1.21,1.21,0,0,0-2.42,0Z"/><path class="cls-2" d="M272.41,44.78a1.09,1.09,0,0,0-2.18,0Z"/><path class="cls-3" d="M272,44.78a.64.64,0,0,0-1.28,0Z"/><path class="cls-6" d="M271.67,44.78a.35.35,0,0,0-.7,0Z"/><path class="cls-8" d="M276.31,25c-.06-3.25-7-4.1-7.17-9V10.73h-1.51V16c-.17,4.94-7.11,5.79-7.17,9s2,4,2,4l-.38.38h12.6l-.38-.38S276.37,28.29,276.31,25Z"/><circle class="cls-8" cx="268.42" cy="9.82" r="1.62"/><rect class="cls-8" x="268.26" y="1.13" width="0.32" height="7.81"/><rect class="cls-8" x="268.18" y="0.1" width="0.49" height="2.05"/><rect class="cls-8" x="268.18" y="0.1" width="0.49" height="2.05" transform="translate(267.29 269.55) rotate(-90)"/><rect class="cls-8" x="268.11" width="0.62" height="0.1"/><rect class="cls-8" x="268.11" y="2.15" width="0.62" height="0.1"/><rect class="cls-3" x="112.06" y="92.73" width="0.96" height="23.66"/><rect class="cls-8" x="111.8" y="89.63" width="1.48" height="6.2"/><rect class="cls-8" x="111.8" y="89.63" width="1.48" height="6.2" transform="translate(19.8 205.27) rotate(-90)"/><rect class="cls-8" x="111.58" y="89.32" width="1.88" height="0.31"/><rect class="cls-8" x="111.58" y="95.83" width="1.88" height="0.31"/><rect class="cls-2" x="85.57" y="224.18" width="53.39" height="78.22"/><path class="cls-9" d="M116.27,291.34H108.8v-34.1a3.74,3.74,0,0,1,3.74-3.74h0a3.74,3.74,0,0,1,3.74,3.74Z"/><path class="cls-9" d="M135.31,291.23h-7.47v-34.1a3.74,3.74,0,0,1,3.74-3.74h0a3.74,3.74,0,0,1,3.74,3.74Z"/><polygon class="cls-10" points="121.9 275.5 114.39 291.24 129.41 291.24 121.9 275.5"/><path class="cls-9" d="M97.6,291.34H90.13v-34.1a3.74,3.74,0,0,1,3.74-3.74h0a3.74,3.74,0,0,1,3.74,3.74Z"/><polygon class="cls-10" points="103.23 275.5 95.72 291.24 110.73 291.24 103.23 275.5"/><path class="cls-5" d="M113.47,291.34H111.3V258.16a1.08,1.08,0,0,1,1.08-1.08h0a1.08,1.08,0,0,1,1.08,1.08Z"/><g class="cls-11"><rect class="cls-2" x="80.66" y="313.52" width="62.7" height="89.09"/><polygon class="cls-12" points="89.99 395.96 110.6 331.73 131.2 395.96 89.99 395.96"/><rect class="cls-5" x="108.22" y="364.73" width="4.76" height="31.23"/><rect class="cls-13" x="102.63" y="358.16" width="15.94" height="37.8"/><polygon class="cls-12" points="48.79 395.96 69.39 331.73 89.99 395.96 48.79 395.96"/><rect class="cls-3" x="67.01" y="364.73" width="4.76" height="31.23"/><rect class="cls-13" x="61.42" y="358.16" width="15.94" height="37.8"/><polygon class="cls-12" points="131.2 395.96 151.8 331.73 172.41 395.96 131.2 395.96"/><rect class="cls-3" x="149.42" y="364.73" width="4.76" height="31.23"/><rect class="cls-13" x="143.83" y="358.16" width="15.94" height="37.8"/><polygon class="cls-3" points="150.59 335.6 111.81 335.6 111.43 331.02 150.97 331.02 150.59 335.6"/><rect class="cls-3" x="129.49" y="331.73" width="3.36" height="62.03"/><rect class="cls-3" x="126.41" y="331.73" width="1.26" height="51.78"/><rect class="cls-3" x="134.81" y="331.73" width="1.26" height="51.78"/><polygon class="cls-3" points="109.39 335.6 70.6 335.6 70.22 331.02 109.77 331.02 109.39 335.6"/><rect class="cls-3" x="88.29" y="331.73" width="3.36" height="62.03"/><rect class="cls-3" x="85.21" y="331.73" width="1.26" height="51.78"/><rect class="cls-3" x="93.61" y="331.73" width="1.26" height="51.78"/><rect class="cls-3" x="68.58" y="326.55" width="83.72" height="2.38"/><polygon class="cls-10" points="88.02 318.71 80.51 326.55 95.53 326.55 88.02 318.71"/><polygon class="cls-10" points="102.63 318.71 95.12 326.55 110.13 326.55 102.63 318.71"/><polygon class="cls-10" points="117.23 318.71 109.73 326.55 124.74 326.55 117.23 318.71"/><polygon class="cls-10" points="131.84 318.71 124.34 326.55 139.35 326.55 131.84 318.71"/><polygon class="cls-10" points="146.45 318.71 138.94 326.55 153.96 326.55 146.45 318.71"/><polygon class="cls-10" points="73.15 318.71 65.64 326.55 80.66 326.55 73.15 318.71"/></g><polygon class="cls-6" points="143.35 395.96 80.66 395.96 75.05 401.56 75.05 402.61 80.66 402.61 83.21 402.61 140.8 402.61 143.35 402.61 148.96 402.61 148.96 401.56 143.35 395.96"/><rect class="cls-3" x="75.05" y="402.61" width="73.91" height="4.97"/><polygon class="cls-3" points="80.66 314.02 143.35 314.02 148.96 308.41 148.96 307.37 143.35 307.37 140.8 307.37 83.21 307.37 80.66 307.37 75.05 307.37 75.05 308.41 80.66 314.02"/><polygon class="cls-8" points="85.72 224.18 138.91 224.18 143.66 219.42 143.66 218.54 138.91 218.54 136.74 218.54 87.89 218.54 85.72 218.54 80.96 218.54 80.96 219.42 85.72 224.18"/><rect class="cls-6" x="75.05" y="302.4" width="73.91" height="4.97" transform="translate(224.01 609.77) rotate(180)"/><rect class="cls-6" x="103.92" y="291.39" width="16.69" height="11.01"/><path class="cls-3" d="M109.58,302.4a16.67,16.67,0,0,0-33.33,0Z"/><path class="cls-2" d="M108,302.4a15.08,15.08,0,0,0-30.15,0Z"/><path class="cls-3" d="M103.92,302.4a11,11,0,0,0-22,0Z"/><path class="cls-2" d="M102.83,302.4a9.92,9.92,0,0,0-19.84,0Z"/><path class="cls-3" d="M98.76,302.4a5.84,5.84,0,0,0-11.69,0Z"/><path class="cls-6" d="M96.12,302.4a3.2,3.2,0,0,0-6.41,0Z"/><path class="cls-3" d="M147.2,302.4a16.67,16.67,0,0,0-33.33,0Z"/><path class="cls-2" d="M145.61,302.4a15.08,15.08,0,0,0-30.15,0Z"/><path class="cls-3" d="M141.55,302.4a11,11,0,0,0-22,0Z"/><path class="cls-2" d="M140.46,302.4a9.92,9.92,0,0,0-19.84,0Z"/><path class="cls-3" d="M136.38,302.4a5.84,5.84,0,0,0-11.69,0Z"/><path class="cls-6" d="M133.74,302.4a3.2,3.2,0,0,0-6.41,0Z"/><path class="cls-2" d="M114.6,302.4h-5.82v-.72a2.91,2.91,0,0,1,2.91-2.91h0a2.91,2.91,0,0,1,2.91,2.91Z"/><path class="cls-3" d="M113.67,302.4a2.06,2.06,0,1,0-4,0Z"/><rect class="cls-9" x="85.57" y="244.46" width="53.39" height="4.69"/><rect class="cls-9" x="85.57" y="233.13" width="53.39" height="2.35"/><rect class="cls-10" x="88.02" y="238.49" width="2.95" height="2.95" transform="translate(-143.47 133.57) rotate(-45)"/><rect class="cls-10" x="94.25" y="238.49" width="2.95" height="2.95" transform="translate(-141.64 137.96) rotate(-45)"/><rect class="cls-10" x="100.47" y="238.49" width="2.95" height="2.95" transform="translate(-139.82 142.37) rotate(-45)"/><rect class="cls-10" x="106.69" y="238.49" width="2.95" height="2.95" transform="translate(-138 146.77) rotate(-45)"/><rect class="cls-10" x="112.92" y="238.49" width="2.95" height="2.95" transform="translate(-136.18 151.17) rotate(-45)"/><rect class="cls-10" x="119.14" y="238.49" width="2.95" height="2.95" transform="translate(-134.35 155.57) rotate(-45)"/><rect class="cls-10" x="125.36" y="238.49" width="2.95" height="2.95" transform="translate(-132.53 159.97) rotate(-45)"/><rect class="cls-10" x="131.59" y="238.49" width="2.95" height="2.95" transform="translate(-130.71 164.37) rotate(-45)"/><path class="cls-9" d="M92.82,233.28v-3.59a1.66,1.66,0,0,0-3.32,0v3.59Z"/><path class="cls-9" d="M100.09,233.28v-3.59a1.66,1.66,0,0,0-3.32,0v3.59Z"/><path class="cls-9" d="M107.36,233.28v-3.59a1.66,1.66,0,0,0-3.32,0v3.59Z"/><path class="cls-9" d="M114.64,233.28v-3.59a1.66,1.66,0,0,0-3.32,0v3.59Z"/><path class="cls-9" d="M121.91,233.28v-3.59a1.66,1.66,0,0,0-3.32,0v3.59Z"/><path class="cls-9" d="M129.19,233.28v-3.59a1.66,1.66,0,1,0-3.32,0v3.59Z"/><path class="cls-9" d="M136.46,233.28v-3.59a1.66,1.66,0,1,0-3.32,0v3.59Z"/><path class="cls-5" d="M88.11,224.18v-1.91a.88.88,0,0,0-1.76,0v1.91Z"/><path class="cls-5" d="M92,224.18v-1.91a.88.88,0,0,0-1.76,0v1.91Z"/><path class="cls-5" d="M95.85,224.18v-1.91a.88.88,0,0,0-1.76,0v1.91Z"/><path class="cls-5" d="M99.72,224.18v-1.91a.88.88,0,0,0-1.76,0v1.91Z"/><path class="cls-5" d="M103.58,224.18v-1.91a.88.88,0,0,0-1.76,0v1.91Z"/><path class="cls-5" d="M107.45,224.18v-1.91a.88.88,0,0,0-1.76,0v1.91Z"/><path class="cls-5" d="M111.32,224.18v-1.91a.88.88,0,0,0-1.76,0v1.91Z"/><path class="cls-5" d="M115.15,224.18v-1.91a.88.88,0,0,0-1.76,0v1.91Z"/><path class="cls-5" d="M119,224.18v-1.91a.88.88,0,0,0-1.76,0v1.91Z"/><path class="cls-5" d="M122.88,224.18v-1.91a.88.88,0,0,0-1.76,0v1.91Z"/><path class="cls-5" d="M126.75,224.18v-1.91a.88.88,0,0,0-1.76,0v1.91Z"/><path class="cls-5" d="M130.62,224.18v-1.91a.88.88,0,0,0-1.76,0v1.91Z"/><path class="cls-5" d="M134.49,224.18v-1.91a.88.88,0,0,0-1.76,0v1.91Z"/><path class="cls-5" d="M138.36,224.18v-1.91a.88.88,0,0,0-1.76,0v1.91Z"/><polygon class="cls-10" points="117.23 318.71 109.73 326.55 124.74 326.55 117.23 318.71"/><path class="cls-8" d="M102.43,224.72a36.18,36.18,0,0,0,20.21,0Z"/><path class="cls-3" d="M114.64,129.06V118.93h-4.2v10.13c0,.17,0,.33,0,.49h4.23C114.65,129.39,114.64,129.23,114.64,129.06Z"/><path class="cls-6" d="M139,215.74a35,35,0,0,0-6-51.35,43.7,43.7,0,0,1-18.39-34.84h-4.23A43.7,43.7,0,0,1,92,164.39a35,35,0,0,0-6,51.35h-.34L81,218.12v.44h62.7v-.44l-4.75-2.38Z"/><circle class="cls-8" cx="112.54" cy="116" r="5.74"/><g class="cls-14"><path class="cls-3" d="M62.91,214.83H48c0-31.23,39.15-62.46,39.15-93.69h14.87C102.06,152.37,62.91,183.6,62.91,214.83Z"/><path class="cls-3" d="M94.21,214.83H79.34c0-31.23,39.15-62.46,39.15-93.69h14.87C133.36,152.37,94.21,183.6,94.21,214.83Z"/><path class="cls-3" d="M125.51,214.83H110.64c0-31.23,39.15-62.46,39.15-93.69h14.87C164.66,152.37,125.51,183.6,125.51,214.83Z"/><path class="cls-3" d="M156.8,214.83H141.94c0-31.23,39.15-62.46,39.15-93.69H196C196,152.37,156.8,183.6,156.8,214.83Z"/></g><rect class="cls-3" x="366.44" y="77.8" width="1.01" height="24.79"/><rect class="cls-8" x="366.17" y="74.55" width="1.55" height="6.5"/><rect class="cls-8" x="366.17" y="74.55" width="1.55" height="6.5" transform="translate(289.14 444.74) rotate(-90)"/><rect class="cls-8" x="365.94" y="74.23" width="1.96" height="0.33"/><rect class="cls-8" x="365.94" y="81.05" width="1.96" height="0.33"/><rect class="cls-2" x="338.7" y="215.48" width="55.92" height="81.93"/><path class="cls-9" d="M370.85,285.83H363V250.11a3.91,3.91,0,0,1,3.91-3.91h0a3.91,3.91,0,0,1,3.91,3.91Z"/><path class="cls-9" d="M390.79,285.72H383V250a3.91,3.91,0,0,1,3.91-3.91h0a3.91,3.91,0,0,1,3.91,3.91Z"/><polygon class="cls-10" points="376.75 269.24 368.89 285.73 384.61 285.73 376.75 269.24"/><path class="cls-9" d="M351.3,285.83h-7.82V250.11a3.91,3.91,0,0,1,3.91-3.91h0a3.91,3.91,0,0,1,3.91,3.91Z"/><polygon class="cls-10" points="357.19 269.24 349.33 285.73 365.05 285.73 357.19 269.24"/><path class="cls-5" d="M367.92,285.83h-2.27V251.07a1.13,1.13,0,0,1,1.13-1.13h0a1.13,1.13,0,0,1,1.13,1.13Z"/><g class="cls-15"><rect class="cls-2" x="333.55" y="309.06" width="65.67" height="93.31"/><polygon class="cls-16" points="343.33 395.41 364.91 328.13 386.49 395.41 343.33 395.41"/><rect class="cls-5" x="362.42" y="362.69" width="4.98" height="32.71"/><rect class="cls-17" x="356.56" y="355.82" width="16.7" height="39.59"/><polygon class="cls-16" points="300.17 395.41 321.75 328.13 343.33 395.41 300.17 395.41"/><rect class="cls-3" x="319.26" y="362.69" width="4.98" height="32.71"/><rect class="cls-17" x="313.4" y="355.82" width="16.7" height="39.59"/><polygon class="cls-16" points="386.49 395.41 408.07 328.13 429.65 395.41 386.49 395.41"/><rect class="cls-3" x="405.58" y="362.69" width="4.98" height="32.71"/><rect class="cls-17" x="399.72" y="355.82" width="16.7" height="39.59"/><polygon class="cls-3" points="406.8 332.18 366.18 332.18 365.78 327.39 407.2 327.39 406.8 332.18"/><rect class="cls-3" x="384.7" y="328.13" width="3.52" height="64.97"/><rect class="cls-3" x="381.47" y="328.13" width="1.32" height="54.23"/><rect class="cls-3" x="390.28" y="328.13" width="1.32" height="54.23"/><polygon class="cls-3" points="363.64 332.18 323.02 332.18 322.62 327.39 364.04 327.39 363.64 332.18"/><rect class="cls-3" x="341.54" y="328.13" width="3.52" height="64.97"/><rect class="cls-3" x="338.31" y="328.13" width="1.32" height="54.23"/><rect class="cls-3" x="347.12" y="328.13" width="1.32" height="54.23"/><rect class="cls-3" x="320.9" y="322.7" width="87.69" height="2.49"/><polygon class="cls-10" points="341.26 314.5 333.4 322.7 349.12 322.7 341.26 314.5"/><polygon class="cls-10" points="356.56 314.5 348.7 322.7 364.42 322.7 356.56 314.5"/><polygon class="cls-10" points="371.86 314.5 364 322.7 379.72 322.7 371.86 314.5"/><polygon class="cls-10" points="387.16 314.5 379.3 322.7 395.02 322.7 387.16 314.5"/><polygon class="cls-10" points="402.46 314.5 394.6 322.7 410.32 322.7 402.46 314.5"/><polygon class="cls-10" points="325.69 314.5 317.83 322.7 333.55 322.7 325.69 314.5"/></g><polygon class="cls-6" points="399.22 395.41 333.55 395.41 327.68 401.28 327.68 402.37 333.55 402.37 336.23 402.37 396.55 402.37 399.22 402.37 405.09 402.37 405.09 401.28 399.22 395.41"/><rect class="cls-3" x="327.68" y="402.37" width="77.41" height="5.21"/><polygon class="cls-3" points="333.55 309.58 399.22 309.58 405.09 303.71 405.09 302.62 399.22 302.62 396.55 302.62 336.23 302.62 333.55 302.62 327.68 302.62 327.68 303.71 333.55 309.58"/><polygon class="cls-8" points="338.85 215.48 394.56 215.48 399.54 210.5 399.54 209.57 394.56 209.57 392.29 209.57 341.12 209.57 338.85 209.57 333.87 209.57 333.87 210.5 338.85 215.48"/><rect class="cls-6" x="327.68" y="297.41" width="77.41" height="5.21" transform="translate(732.77 600.02) rotate(180)"/><rect class="cls-6" x="357.92" y="285.88" width="17.48" height="11.53"/><path class="cls-3" d="M363.84,297.41a17.46,17.46,0,0,0-34.91,0Z"/><path class="cls-2" d="M362.18,297.41a15.79,15.79,0,0,0-31.58,0Z"/><path class="cls-3" d="M357.92,297.41a11.53,11.53,0,0,0-23.07,0Z"/><path class="cls-2" d="M356.78,297.41a10.39,10.39,0,0,0-20.78,0Z"/><path class="cls-3" d="M352.51,297.41a6.12,6.12,0,0,0-12.24,0Z"/><path class="cls-6" d="M349.74,297.41a3.36,3.36,0,0,0-6.71,0Z"/><path class="cls-3" d="M403.25,297.41a17.46,17.46,0,0,0-34.91,0Z"/><path class="cls-2" d="M401.59,297.41a15.79,15.79,0,0,0-31.58,0Z"/><path class="cls-3" d="M397.33,297.41a11.53,11.53,0,0,0-23.07,0Z"/><path class="cls-2" d="M396.19,297.41a10.39,10.39,0,0,0-20.78,0Z"/><path class="cls-3" d="M391.92,297.41a6.12,6.12,0,0,0-12.24,0Z"/><path class="cls-6" d="M389.15,297.41a3.36,3.36,0,0,0-6.71,0Z"/><path class="cls-2" d="M369.1,297.41H363v-.76a3,3,0,0,1,3-3h0a3,3,0,0,1,3,3Z"/><path class="cls-3" d="M368.13,297.41a2.15,2.15,0,1,0-4.16,0Z"/><rect class="cls-9" x="338.7" y="236.72" width="55.92" height="4.92"/><rect class="cls-9" x="338.7" y="224.85" width="55.92" height="2.46"/><rect class="cls-10" x="341.27" y="230.47" width="3.09" height="3.09" transform="translate(-63.65 310.36) rotate(-45)"/><rect class="cls-10" x="347.79" y="230.47" width="3.09" height="3.09" transform="translate(-61.74 314.97) rotate(-45)"/><rect class="cls-10" x="354.3" y="230.47" width="3.09" height="3.09" transform="translate(-59.84 319.58) rotate(-45)"/><rect class="cls-10" x="360.82" y="230.47" width="3.09" height="3.09" transform="translate(-57.93 324.19) rotate(-45)"/><rect class="cls-10" x="367.34" y="230.47" width="3.09" height="3.09" transform="translate(-56.02 328.8) rotate(-45)"/><rect class="cls-10" x="373.86" y="230.47" width="3.09" height="3.09" transform="translate(-54.11 333.41) rotate(-45)"/><rect class="cls-10" x="380.38" y="230.47" width="3.09" height="3.09" transform="translate(-52.2 338.01) rotate(-45)"/><rect class="cls-10" x="386.9" y="230.47" width="3.09" height="3.09" transform="translate(-50.29 342.62) rotate(-45)"/><path class="cls-9" d="M346.29,225v-3.76a1.74,1.74,0,1,0-3.47,0V225Z"/><path class="cls-9" d="M353.91,225v-3.76a1.74,1.74,0,1,0-3.47,0V225Z"/><path class="cls-9" d="M361.52,225v-3.76a1.74,1.74,0,1,0-3.47,0V225Z"/><path class="cls-9" d="M369.14,225v-3.76a1.74,1.74,0,1,0-3.47,0V225Z"/><path class="cls-9" d="M376.76,225v-3.76a1.74,1.74,0,1,0-3.47,0V225Z"/><path class="cls-9" d="M384.38,225v-3.76a1.74,1.74,0,1,0-3.47,0V225Z"/><path class="cls-9" d="M392,225v-3.76a1.74,1.74,0,1,0-3.47,0V225Z"/><path class="cls-5" d="M341.36,215.48v-2a.92.92,0,1,0-1.85,0v2Z"/><path class="cls-5" d="M345.41,215.48v-2a.92.92,0,0,0-1.85,0v2Z"/><path class="cls-5" d="M349.46,215.48v-2a.92.92,0,1,0-1.85,0v2Z"/><path class="cls-5" d="M353.51,215.48v-2a.92.92,0,0,0-1.85,0v2Z"/><path class="cls-5" d="M357.56,215.48v-2a.92.92,0,1,0-1.85,0v2Z"/><path class="cls-5" d="M361.62,215.48v-2a.92.92,0,1,0-1.85,0v2Z"/><path class="cls-5" d="M365.67,215.48v-2a.92.92,0,0,0-1.85,0v2Z"/><path class="cls-5" d="M369.67,215.48v-2a.92.92,0,0,0-1.85,0v2Z"/><path class="cls-5" d="M373.73,215.48v-2a.92.92,0,1,0-1.85,0v2Z"/><path class="cls-5" d="M377.78,215.48v-2a.92.92,0,1,0-1.85,0v2Z"/><path class="cls-5" d="M381.83,215.48v-2a.92.92,0,0,0-1.85,0v2Z"/><path class="cls-5" d="M385.88,215.48v-2a.92.92,0,1,0-1.85,0v2Z"/><path class="cls-5" d="M389.93,215.48v-2a.92.92,0,0,0-1.85,0v2Z"/><path class="cls-5" d="M394,215.48v-2a.92.92,0,1,0-1.85,0v2Z"/><polygon class="cls-10" points="371.86 314.5 364 322.7 379.72 322.7 371.86 314.5"/><path class="cls-8" d="M356.36,216.05a37.9,37.9,0,0,0,21.17,0Z"/><path class="cls-3" d="M369.14,115.85V105.24h-4.4v10.61c0,.17,0,.34,0,.52h4.43C369.16,116.19,369.14,116,369.14,115.85Z"/><path class="cls-6" d="M394.68,206.65a36.68,36.68,0,0,0-6.26-53.79,45.77,45.77,0,0,1-19.26-36.49h-4.43a45.77,45.77,0,0,1-19.26,36.49,36.68,36.68,0,0,0-6.26,53.79h-.36l-5,2.49v.46h65.67v-.46l-5-2.49Z"/><circle class="cls-8" cx="366.94" cy="102.18" r="6.01"/><g class="cls-18"><rect class="cls-19" x="317.65" y="161.66" width="7.95" height="7.95"/><rect class="cls-20" x="321.06" y="169.61" width="7.95" height="7.95"/><rect class="cls-19" x="324.46" y="177.56" width="7.95" height="7.95"/><rect class="cls-20" x="327.86" y="185.51" width="7.95" height="7.95"/><rect class="cls-19" x="331.27" y="193.46" width="7.95" height="7.95"/><rect class="cls-20" x="334.67" y="201.41" width="7.95" height="7.95"/><rect class="cls-19" x="338.07" y="209.36" width="7.95" height="7.95"/><rect class="cls-19" x="334.67" y="161.66" width="7.95" height="7.95"/><rect class="cls-20" x="338.07" y="169.61" width="7.95" height="7.95"/><rect class="cls-19" x="341.47" y="177.56" width="7.95" height="7.95"/><rect class="cls-20" x="344.88" y="185.51" width="7.95" height="7.95"/><rect class="cls-19" x="348.28" y="193.46" width="7.95" height="7.95"/><rect class="cls-20" x="351.68" y="201.41" width="7.95" height="7.95"/><rect class="cls-19" x="355.09" y="209.36" width="7.95" height="7.95"/><rect class="cls-19" x="351.68" y="161.66" width="7.95" height="7.95"/><rect class="cls-20" x="355.09" y="169.61" width="7.95" height="7.95"/><rect class="cls-19" x="358.49" y="177.56" width="7.95" height="7.95"/><rect class="cls-20" x="361.89" y="185.51" width="7.95" height="7.95"/><rect class="cls-19" x="365.3" y="193.46" width="7.95" height="7.95"/><rect class="cls-20" x="368.7" y="201.41" width="7.95" height="7.95"/><rect class="cls-19" x="372.1" y="209.36" width="7.95" height="7.95"/><rect class="cls-19" x="368.7" y="161.66" width="7.95" height="7.95"/><rect class="cls-20" x="372.1" y="169.61" width="7.95" height="7.95"/><rect class="cls-19" x="375.51" y="177.56" width="7.95" height="7.95"/><rect class="cls-20" x="378.91" y="185.51" width="7.95" height="7.95"/><rect class="cls-19" x="382.31" y="193.46" width="7.95" height="7.95"/><rect class="cls-20" x="385.71" y="201.41" width="7.95" height="7.95"/><rect class="cls-19" x="389.12" y="209.36" width="7.95" height="7.95"/><rect class="cls-19" x="385.71" y="161.66" width="7.95" height="7.95"/><rect class="cls-20" x="389.12" y="169.61" width="7.95" height="7.95"/><rect class="cls-19" x="392.52" y="177.56" width="7.95" height="7.95"/><rect class="cls-20" x="395.92" y="185.51" width="7.95" height="7.95"/><rect class="cls-19" x="399.33" y="193.46" width="7.95" height="7.95"/><rect class="cls-20" x="402.73" y="201.41" width="7.95" height="7.95"/><rect class="cls-19" x="406.13" y="209.36" width="7.95" height="7.95"/><rect class="cls-19" x="402.73" y="161.66" width="7.95" height="7.95"/><rect class="cls-20" x="406.13" y="169.61" width="7.95" height="7.95"/><rect class="cls-19" x="409.54" y="177.56" width="7.95" height="7.95"/><rect class="cls-20" x="412.94" y="185.51" width="7.95" height="7.95"/><rect class="cls-19" x="416.34" y="193.46" width="7.95" height="7.95"/><rect class="cls-20" x="419.75" y="201.41" width="7.95" height="7.95"/><rect class="cls-19" x="423.15" y="209.36" width="7.95" height="7.95"/><rect class="cls-20" x="294.96" y="106" width="7.95" height="7.95"/><rect class="cls-19" x="298.36" y="113.95" width="7.95" height="7.95"/><rect class="cls-20" x="301.77" y="121.9" width="7.95" height="7.95"/><rect class="cls-19" x="305.17" y="129.85" width="7.95" height="7.95"/><rect class="cls-20" x="308.57" y="137.8" width="7.95" height="7.95"/><rect class="cls-19" x="311.98" y="145.75" width="7.95" height="7.95"/><rect class="cls-20" x="315.38" y="153.7" width="7.95" height="7.95"/><rect class="cls-20" x="311.98" y="106" width="7.95" height="7.95"/><rect class="cls-19" x="315.38" y="113.95" width="7.95" height="7.95"/><rect class="cls-20" x="318.78" y="121.9" width="7.95" height="7.95"/><rect class="cls-19" x="322.19" y="129.85" width="7.95" height="7.95"/><rect class="cls-20" x="325.59" y="137.8" width="7.95" height="7.95"/><rect class="cls-19" x="328.99" y="145.75" width="7.95" height="7.95"/><rect class="cls-20" x="332.39" y="153.7" width="7.95" height="7.95"/><rect class="cls-20" x="328.99" y="106" width="7.95" height="7.95"/><rect class="cls-19" x="332.39" y="113.95" width="7.95" height="7.95"/><rect class="cls-20" x="335.8" y="121.9" width="7.95" height="7.95"/><rect class="cls-19" x="339.2" y="129.85" width="7.95" height="7.95"/><rect class="cls-20" x="342.6" y="137.8" width="7.95" height="7.95"/><rect class="cls-19" x="346.01" y="145.75" width="7.95" height="7.95"/><rect class="cls-20" x="349.41" y="153.7" width="7.95" height="7.95"/><rect class="cls-20" x="346.01" y="106" width="7.95" height="7.95"/><rect class="cls-19" x="349.41" y="113.95" width="7.95" height="7.95"/><rect class="cls-20" x="352.81" y="121.9" width="7.95" height="7.95"/><rect class="cls-19" x="356.22" y="129.85" width="7.95" height="7.95"/><rect class="cls-20" x="359.62" y="137.8" width="7.95" height="7.95"/><rect class="cls-19" x="363.02" y="145.75" width="7.95" height="7.95"/><rect class="cls-20" x="366.43" y="153.7" width="7.95" height="7.95"/><rect class="cls-20" x="363.02" y="106" width="7.95" height="7.95"/><rect class="cls-19" x="366.43" y="113.95" width="7.95" height="7.95"/><rect class="cls-20" x="369.83" y="121.9" width="7.95" height="7.95"/><rect class="cls-19" x="373.23" y="129.85" width="7.95" height="7.95"/><rect class="cls-20" x="376.63" y="137.8" width="7.95" height="7.95"/><rect class="cls-19" x="380.04" y="145.75" width="7.95" height="7.95"/><rect class="cls-20" x="383.44" y="153.7" width="7.95" height="7.95"/><rect class="cls-20" x="380.04" y="106" width="7.95" height="7.95"/><rect class="cls-19" x="383.44" y="113.95" width="7.95" height="7.95"/><rect class="cls-20" x="386.84" y="121.9" width="7.95" height="7.95"/><rect class="cls-19" x="390.25" y="129.85" width="7.95" height="7.95"/><rect class="cls-20" x="393.65" y="137.8" width="7.95" height="7.95"/><rect class="cls-19" x="397.05" y="145.75" width="7.95" height="7.95"/><rect class="cls-20" x="400.46" y="153.7" width="7.95" height="7.95"/><rect class="cls-21" x="309.15" y="161.66" width="7.95" height="7.95"/><rect class="cls-22" x="312.55" y="169.61" width="7.95" height="7.95"/><rect class="cls-21" x="315.95" y="177.56" width="7.95" height="7.95"/><rect class="cls-22" x="319.36" y="185.51" width="7.95" height="7.95"/><rect class="cls-21" x="322.76" y="193.46" width="7.95" height="7.95"/><rect class="cls-22" x="326.16" y="201.41" width="7.95" height="7.95"/><rect class="cls-21" x="329.57" y="209.36" width="7.95" height="7.95"/><rect class="cls-21" x="326.16" y="161.66" width="7.95" height="7.95"/><rect class="cls-22" x="329.57" y="169.61" width="7.95" height="7.95"/><rect class="cls-21" x="332.97" y="177.56" width="7.95" height="7.95"/><rect class="cls-22" x="336.37" y="185.51" width="7.95" height="7.95"/><rect class="cls-21" x="339.78" y="193.46" width="7.95" height="7.95"/><rect class="cls-22" x="343.18" y="201.41" width="7.95" height="7.95"/><rect class="cls-21" x="346.58" y="209.36" width="7.95" height="7.95"/><rect class="cls-21" x="343.18" y="161.66" width="7.95" height="7.95"/><rect class="cls-22" x="346.58" y="169.61" width="7.95" height="7.95"/><rect class="cls-21" x="349.98" y="177.56" width="7.95" height="7.95"/><rect class="cls-22" x="353.39" y="185.51" width="7.95" height="7.95"/><rect class="cls-21" x="356.79" y="193.46" width="7.95" height="7.95"/><rect class="cls-22" x="360.19" y="201.41" width="7.95" height="7.95"/><rect class="cls-21" x="363.6" y="209.36" width="7.95" height="7.95"/><rect class="cls-21" x="360.19" y="161.66" width="7.95" height="7.95"/><rect class="cls-22" x="363.6" y="169.61" width="7.95" height="7.95"/><rect class="cls-21" x="367" y="177.56" width="7.95" height="7.95"/><rect class="cls-22" x="370.4" y="185.51" width="7.95" height="7.95"/><rect class="cls-21" x="373.81" y="193.46" width="7.95" height="7.95"/><rect class="cls-22" x="377.21" y="201.41" width="7.95" height="7.95"/><rect class="cls-21" x="380.61" y="209.36" width="7.95" height="7.95"/><rect class="cls-21" x="377.21" y="161.66" width="7.95" height="7.95"/><rect class="cls-22" x="380.61" y="169.61" width="7.95" height="7.95"/><rect class="cls-21" x="384.02" y="177.56" width="7.95" height="7.95"/><rect class="cls-22" x="387.42" y="185.51" width="7.95" height="7.95"/><rect class="cls-21" x="390.82" y="193.46" width="7.95" height="7.95"/><rect class="cls-22" x="394.22" y="201.41" width="7.95" height="7.95"/><rect class="cls-21" x="397.63" y="209.36" width="7.95" height="7.95"/><rect class="cls-21" x="394.22" y="161.66" width="7.95" height="7.95"/><rect class="cls-22" x="397.63" y="169.61" width="7.95" height="7.95"/><rect class="cls-21" x="401.03" y="177.56" width="7.95" height="7.95"/><rect class="cls-22" x="404.43" y="185.51" width="7.95" height="7.95"/><rect class="cls-21" x="407.84" y="193.46" width="7.95" height="7.95"/><rect class="cls-22" x="411.24" y="201.41" width="7.95" height="7.95"/><rect class="cls-21" x="414.64" y="209.36" width="7.95" height="7.95"/><rect class="cls-22" x="286.46" y="106" width="7.95" height="7.95"/><rect class="cls-21" x="289.86" y="113.95" width="7.95" height="7.95"/><rect class="cls-22" x="293.26" y="121.9" width="7.95" height="7.95"/><rect class="cls-21" x="296.66" y="129.85" width="7.95" height="7.95"/><rect class="cls-22" x="300.07" y="137.8" width="7.95" height="7.95"/><rect class="cls-21" x="303.47" y="145.75" width="7.95" height="7.95"/><rect class="cls-22" x="306.87" y="153.7" width="7.95" height="7.95"/><rect class="cls-22" x="303.47" y="106" width="7.95" height="7.95"/><rect class="cls-21" x="306.87" y="113.95" width="7.95" height="7.95"/><rect class="cls-22" x="310.28" y="121.9" width="7.95" height="7.95"/><rect class="cls-21" x="313.68" y="129.85" width="7.95" height="7.95"/><rect class="cls-22" x="317.08" y="137.8" width="7.95" height="7.95"/><rect class="cls-21" x="320.49" y="145.75" width="7.95" height="7.95"/><rect class="cls-22" x="323.89" y="153.7" width="7.95" height="7.95"/><rect class="cls-22" x="320.49" y="106" width="7.95" height="7.95"/><rect class="cls-21" x="323.89" y="113.95" width="7.95" height="7.95"/><rect class="cls-22" x="327.29" y="121.9" width="7.95" height="7.95"/><rect class="cls-21" x="330.7" y="129.85" width="7.95" height="7.95"/><rect class="cls-22" x="334.1" y="137.8" width="7.95" height="7.95"/><rect class="cls-21" x="337.5" y="145.75" width="7.95" height="7.95"/><rect class="cls-22" x="340.9" y="153.7" width="7.95" height="7.95"/><rect class="cls-22" x="337.5" y="106" width="7.95" height="7.95"/><rect class="cls-21" x="340.9" y="113.95" width="7.95" height="7.95"/><rect class="cls-22" x="344.31" y="121.9" width="7.95" height="7.95"/><rect class="cls-21" x="347.71" y="129.85" width="7.95" height="7.95"/><rect class="cls-22" x="351.11" y="137.8" width="7.95" height="7.95"/><rect class="cls-21" x="354.52" y="145.75" width="7.95" height="7.95"/><rect class="cls-22" x="357.92" y="153.7" width="7.95" height="7.95"/><rect class="cls-22" x="354.52" y="106" width="7.95" height="7.95"/><rect class="cls-21" x="357.92" y="113.95" width="7.95" height="7.95"/><rect class="cls-22" x="361.32" y="121.9" width="7.95" height="7.95"/><rect class="cls-21" x="364.73" y="129.85" width="7.95" height="7.95"/><rect class="cls-22" x="368.13" y="137.8" width="7.95" height="7.95"/><rect class="cls-21" x="371.53" y="145.75" width="7.95" height="7.95"/><rect class="cls-22" x="374.94" y="153.7" width="7.95" height="7.95"/><rect class="cls-22" x="371.53" y="106" width="7.95" height="7.95"/><rect class="cls-21" x="374.94" y="113.95" width="7.95" height="7.95"/><rect class="cls-22" x="378.34" y="121.9" width="7.95" height="7.95"/><rect class="cls-21" x="381.74" y="129.85" width="7.95" height="7.95"/><rect class="cls-22" x="385.14" y="137.8" width="7.95" height="7.95"/><rect class="cls-21" x="388.55" y="145.75" width="7.95" height="7.95"/><rect class="cls-22" x="391.95" y="153.7" width="7.95" height="7.95"/></g><rect class="cls-2" x="276.11" y="292.93" width="58.11" height="74.06"/><path class="cls-9" d="M309.52,355h-8.13V317.84a4.07,4.07,0,0,1,4.07-4.07h0a4.07,4.07,0,0,1,4.07,4.07Z"/><path class="cls-9" d="M330.24,354.84h-8.13V317.72a4.07,4.07,0,0,1,4.07-4.07h0a4.07,4.07,0,0,1,4.07,4.07Z"/><path class="cls-9" d="M289.19,355h-8.13V317.84a4.07,4.07,0,0,1,4.07-4.07h0a4.07,4.07,0,0,1,4.07,4.07Z"/><path class="cls-5" d="M306.46,355h-2.35V318.84a1.18,1.18,0,0,1,1.18-1.18h0a1.18,1.18,0,0,1,1.18,1.18Z"/><rect class="cls-9" x="276.11" y="306.04" width="58.11" height="2.99"/><rect class="cls-9" x="276.11" y="353.48" width="58.11" height="2.55"/><rect class="cls-9" x="276.11" y="358.2" width="58.11" height="5.1"/><rect class="cls-9" x="276.11" y="298.33" width="58.11" height="5.1"/><g class="cls-23"><rect class="cls-6" x="273.2" y="380.42" width="63.92" height="14.22"/><path class="cls-3" d="M288.06,394.64a14.2,14.2,0,0,0-28.4,0Z"/><path class="cls-2" d="M286.7,394.64a12.84,12.84,0,0,0-25.69,0Z"/><path class="cls-3" d="M283.24,394.64a9.38,9.38,0,0,0-18.76,0Z"/><path class="cls-2" d="M282.31,394.64a8.45,8.45,0,0,0-16.9,0Z"/><path class="cls-3" d="M320.11,394.64a14.2,14.2,0,0,0-28.4,0Z"/><path class="cls-2" d="M318.76,394.64a12.84,12.84,0,0,0-25.69,0Z"/><path class="cls-3" d="M315.29,394.64a9.38,9.38,0,0,0-18.76,0Z"/><path class="cls-2" d="M314.37,394.64a8.45,8.45,0,0,0-16.9,0Z"/><path class="cls-3" d="M351.32,394.64a14.2,14.2,0,0,0-28.4,0Z"/><path class="cls-2" d="M350,394.64a12.84,12.84,0,0,0-25.69,0Z"/><path class="cls-3" d="M346.5,394.64a9.38,9.38,0,0,0-18.76,0Z"/><path class="cls-2" d="M345.57,394.64a8.45,8.45,0,0,0-16.9,0Z"/></g><g class="cls-24"><rect class="cls-6" x="273.2" y="366.9" width="63.92" height="14.22"/><path class="cls-3" d="M288.06,381.12a14.2,14.2,0,0,0-28.4,0Z"/><path class="cls-2" d="M286.7,381.12a12.84,12.84,0,0,0-25.69,0Z"/><path class="cls-3" d="M283.24,381.12a9.38,9.38,0,0,0-18.76,0Z"/><path class="cls-2" d="M282.31,381.12a8.45,8.45,0,0,0-16.9,0Z"/><path class="cls-3" d="M320.11,381.12a14.2,14.2,0,0,0-28.4,0Z"/><path class="cls-2" d="M318.76,381.12a12.84,12.84,0,0,0-25.69,0Z"/><path class="cls-3" d="M315.29,381.12a9.38,9.38,0,0,0-18.76,0Z"/><path class="cls-2" d="M314.37,381.12a8.45,8.45,0,0,0-16.9,0Z"/><path class="cls-3" d="M351.32,381.12a14.2,14.2,0,0,0-28.4,0Z"/><path class="cls-2" d="M350,381.12a12.84,12.84,0,0,0-25.69,0Z"/><path class="cls-3" d="M346.5,381.12a9.38,9.38,0,0,0-18.76,0Z"/><path class="cls-2" d="M345.57,381.12a8.45,8.45,0,0,0-16.9,0Z"/></g><rect class="cls-6" x="273.2" y="393.94" width="63.92" height="14.22"/><path class="cls-3" d="M288.06,408.16a14.2,14.2,0,0,0-28.4,0Z"/><path class="cls-2" d="M286.7,408.16a12.84,12.84,0,0,0-25.69,0Z"/><path class="cls-3" d="M283.24,408.16a9.38,9.38,0,0,0-18.76,0Z"/><path class="cls-2" d="M282.31,408.16a8.45,8.45,0,0,0-16.9,0Z"/><path class="cls-3" d="M320.11,408.16a14.2,14.2,0,0,0-28.4,0Z"/><path class="cls-2" d="M318.76,408.16a12.84,12.84,0,0,0-25.69,0Z"/><path class="cls-3" d="M315.29,408.16a9.38,9.38,0,0,0-18.76,0Z"/><path class="cls-2" d="M314.37,408.16a8.45,8.45,0,0,0-16.9,0Z"/><path class="cls-3" d="M351.32,408.16a14.2,14.2,0,0,0-28.4,0Z"/><path class="cls-2" d="M350,408.16a12.84,12.84,0,0,0-25.69,0Z"/><path class="cls-3" d="M346.5,408.16a9.38,9.38,0,0,0-18.76,0Z"/><path class="cls-2" d="M345.57,408.16a8.45,8.45,0,0,0-16.9,0Z"/><rect class="cls-1" x="271.6" y="393.94" width="67.48" height="13.52"/><rect class="cls-3" x="304.98" y="176.96" width="0.89" height="21.81"/><rect class="cls-8" x="304.75" y="174.1" width="1.36" height="5.71"/><rect class="cls-8" x="304.75" y="174.1" width="1.36" height="5.71" transform="translate(128.47 482.39) rotate(-90)"/><rect class="cls-8" x="304.55" y="173.81" width="1.73" height="0.29"/><rect class="cls-8" x="304.55" y="179.82" width="1.73" height="0.29"/><path class="cls-3" d="M307.36,210.44V201.1h-3.87v9.34c0,.15,0,.3,0,.45h3.9C307.37,210.74,307.36,210.59,307.36,210.44Z"/><path class="cls-8" d="M329.83,290.33A32.28,32.28,0,0,0,324.32,243a40.27,40.27,0,0,1-16.95-32.11h-3.9A40.27,40.27,0,0,1,286.53,243,32.28,32.28,0,0,0,281,290.33h-.32l-4.38,2.19v.41h57.78v-.41l-4.38-2.19Z"/><circle class="cls-8" cx="305.43" cy="198.4" r="5.29"/><g class="cls-25"><rect class="cls-26" x="260.28" y="198.63" width="105.61" height="105.61" transform="translate(-86.09 295.03) rotate(-45)"/><line class="cls-26" x1="300.64" y1="313.66" x2="375.32" y2="238.99"/><line class="cls-26" x1="288.19" y1="301.22" x2="362.87" y2="226.54"/><line class="cls-26" x1="275.75" y1="288.77" x2="350.43" y2="214.09"/><line class="cls-26" x1="263.3" y1="276.32" x2="337.98" y2="201.65"/><line class="cls-26" x1="250.85" y1="263.88" x2="325.53" y2="189.2"/><line class="cls-26" x1="300.64" y1="189.2" x2="375.32" y2="263.88"/><line class="cls-26" x1="288.19" y1="201.65" x2="362.87" y2="276.32"/><line class="cls-26" x1="275.75" y1="214.09" x2="350.43" y2="288.77"/><line class="cls-26" x1="263.3" y1="226.54" x2="337.98" y2="301.22"/><line class="cls-26" x1="250.85" y1="238.99" x2="325.53" y2="313.66"/></g><rect class="cls-2" x="122.17" y="292.93" width="58.11" height="74.06"/><path class="cls-9" d="M155.58,355h-8.13V317.84a4.07,4.07,0,0,1,4.07-4.07h0a4.07,4.07,0,0,1,4.07,4.07Z"/><path class="cls-9" d="M176.3,354.84h-8.13V317.72a4.07,4.07,0,0,1,4.07-4.07h0a4.07,4.07,0,0,1,4.07,4.07Z"/><path class="cls-9" d="M135.26,355h-8.13V317.84a4.07,4.07,0,0,1,4.07-4.07h0a4.07,4.07,0,0,1,4.07,4.07Z"/><path class="cls-5" d="M152.53,355h-2.35V318.84a1.18,1.18,0,0,1,1.18-1.18h0a1.18,1.18,0,0,1,1.18,1.18Z"/><rect class="cls-9" x="122.17" y="306.04" width="58.11" height="2.99"/><rect class="cls-9" x="122.17" y="353.48" width="58.11" height="2.55"/><rect class="cls-9" x="122.17" y="358.2" width="58.11" height="5.1"/><rect class="cls-9" x="122.17" y="298.33" width="58.11" height="5.1"/><g class="cls-27"><rect class="cls-6" x="119.26" y="380.42" width="63.92" height="14.22"/><path class="cls-3" d="M134.12,394.64a14.2,14.2,0,0,0-28.4,0Z"/><path class="cls-2" d="M132.77,394.64a12.84,12.84,0,0,0-25.69,0Z"/><path class="cls-3" d="M129.3,394.64a9.38,9.38,0,0,0-18.76,0Z"/><path class="cls-2" d="M128.38,394.64a8.45,8.45,0,0,0-16.9,0Z"/><path class="cls-3" d="M166.18,394.64a14.2,14.2,0,0,0-28.4,0Z"/><path class="cls-2" d="M164.82,394.64a12.84,12.84,0,0,0-25.69,0Z"/><path class="cls-3" d="M161.36,394.64a9.38,9.38,0,0,0-18.76,0Z"/><path class="cls-2" d="M160.43,394.64a8.45,8.45,0,0,0-16.9,0Z"/><path class="cls-3" d="M197.38,394.64a14.2,14.2,0,0,0-28.4,0Z"/><path class="cls-2" d="M196,394.64a12.84,12.84,0,0,0-25.69,0Z"/><path class="cls-3" d="M192.57,394.64a9.38,9.38,0,0,0-18.76,0Z"/><path class="cls-2" d="M191.64,394.64a8.45,8.45,0,0,0-16.9,0Z"/></g><g class="cls-28"><rect class="cls-6" x="119.26" y="366.9" width="63.92" height="14.22"/><path class="cls-3" d="M134.12,381.12a14.2,14.2,0,0,0-28.4,0Z"/><path class="cls-2" d="M132.77,381.12a12.84,12.84,0,0,0-25.69,0Z"/><path class="cls-3" d="M129.3,381.12a9.38,9.38,0,0,0-18.76,0Z"/><path class="cls-2" d="M128.38,381.12a8.45,8.45,0,0,0-16.9,0Z"/><path class="cls-3" d="M166.18,381.12a14.2,14.2,0,0,0-28.4,0Z"/><path class="cls-2" d="M164.82,381.12a12.84,12.84,0,0,0-25.69,0Z"/><path class="cls-3" d="M161.36,381.12a9.38,9.38,0,0,0-18.76,0Z"/><path class="cls-2" d="M160.43,381.12a8.45,8.45,0,0,0-16.9,0Z"/><path class="cls-3" d="M197.38,381.12a14.2,14.2,0,0,0-28.4,0Z"/><path class="cls-2" d="M196,381.12a12.84,12.84,0,0,0-25.69,0Z"/><path class="cls-3" d="M192.57,381.12a9.38,9.38,0,0,0-18.76,0Z"/><path class="cls-2" d="M191.64,381.12a8.45,8.45,0,0,0-16.9,0Z"/></g><rect class="cls-6" x="119.26" y="393.94" width="63.92" height="14.22"/><path class="cls-3" d="M134.12,408.16a14.2,14.2,0,0,0-28.4,0Z"/><path class="cls-2" d="M132.77,408.16a12.84,12.84,0,0,0-25.69,0Z"/><path class="cls-3" d="M129.3,408.16a9.38,9.38,0,0,0-18.76,0Z"/><path class="cls-2" d="M128.38,408.16a8.45,8.45,0,0,0-16.9,0Z"/><path class="cls-3" d="M166.18,408.16a14.2,14.2,0,0,0-28.4,0Z"/><path class="cls-2" d="M164.82,408.16a12.84,12.84,0,0,0-25.69,0Z"/><path class="cls-3" d="M161.36,408.16a9.38,9.38,0,0,0-18.76,0Z"/><path class="cls-2" d="M160.43,408.16a8.45,8.45,0,0,0-16.9,0Z"/><path class="cls-3" d="M197.38,408.16a14.2,14.2,0,0,0-28.4,0Z"/><path class="cls-2" d="M196,408.16a12.84,12.84,0,0,0-25.69,0Z"/><path class="cls-3" d="M192.57,408.16a9.38,9.38,0,0,0-18.76,0Z"/><path class="cls-2" d="M191.64,408.16a8.45,8.45,0,0,0-16.9,0Z"/><rect class="cls-1" x="117.67" y="393.94" width="67.48" height="13.52"/><rect class="cls-3" x="151.05" y="176.96" width="0.89" height="21.81"/><rect class="cls-8" x="150.81" y="174.1" width="1.36" height="5.71"/><rect class="cls-8" x="150.81" y="174.1" width="1.36" height="5.71" transform="translate(-25.47 328.45) rotate(-90)"/><rect class="cls-8" x="150.61" y="173.81" width="1.73" height="0.29"/><rect class="cls-8" x="150.61" y="179.82" width="1.73" height="0.29"/><path class="cls-3" d="M153.43,210.44V201.1h-3.87v9.34c0,.15,0,.3,0,.45h3.9C153.44,210.74,153.43,210.59,153.43,210.44Z"/><path class="cls-20" d="M175.89,290.33A32.28,32.28,0,0,0,170.39,243a40.27,40.27,0,0,1-16.95-32.11h-3.9A40.27,40.27,0,0,1,132.6,243a32.28,32.28,0,0,0-5.51,47.33h-.32l-4.38,2.19v.41h57.78v-.41l-4.38-2.19Z"/><circle class="cls-8" cx="151.49" cy="198.4" r="5.29"/><g class="cls-29"><path class="cls-30" d="M124.69,321.56h-9.23q0-70.37,0-140.73h9.23C155.06,227.73,94.33,274.65,124.69,321.56Z"/><path class="cls-30" d="M139.1,321.56h-9.23c-44.56-46.91,44.56-93.82,0-140.73h9.23C203.91,227.73,74.3,274.65,139.1,321.56Z"/><path class="cls-30" d="M153.52,321.56h-9.23c-73.32-46.91,73.32-93.82,0-140.73h9.23C237,227.73,70.08,274.65,153.52,321.56Z"/><path class="cls-30" d="M167.93,321.56h-9.23c-86.28-46.91,86.28-93.82,0-140.73h9.23C254.2,227.73,81.65,274.65,167.93,321.56Z"/><path class="cls-30" d="M182.34,321.56H173.1c-83.44-46.91,83.44-93.82,0-140.73h9.23C255.65,227.73,109,274.65,182.34,321.56Z"/><path class="cls-30" d="M196.75,321.56h-9.23c-64.8-46.91,64.8-93.82,0-140.73h9.23C241.31,227.73,152.19,274.65,196.75,321.56Z"/><path class="cls-30" d="M211.16,321.56h-9.23c-30.37-46.91,30.37-93.82,0-140.73h9.23Q211.16,251.19,211.16,321.56Z"/></g><rect class="cls-3" x="201.81" y="77.8" width="1.01" height="24.79"/><rect class="cls-8" x="201.54" y="74.55" width="1.55" height="6.5"/><rect class="cls-8" x="201.54" y="74.55" width="1.55" height="6.5" transform="translate(124.51 280.11) rotate(-90)"/><rect class="cls-8" x="201.31" y="74.23" width="1.96" height="0.33"/><rect class="cls-8" x="201.31" y="81.05" width="1.96" height="0.33"/><rect class="cls-2" x="174.07" y="215.48" width="55.92" height="81.93"/><path class="cls-9" d="M206.22,285.83H198.4V250.11a3.91,3.91,0,0,1,3.91-3.91h0a3.91,3.91,0,0,1,3.91,3.91Z"/><path class="cls-9" d="M226.16,285.72h-7.83V250a3.91,3.91,0,0,1,3.91-3.91h0a3.91,3.91,0,0,1,3.91,3.91Z"/><polygon class="cls-10" points="212.12 269.24 204.26 285.73 219.98 285.73 212.12 269.24"/><path class="cls-9" d="M186.67,285.83h-7.83V250.11a3.91,3.91,0,0,1,3.91-3.91h0a3.91,3.91,0,0,1,3.91,3.91Z"/><polygon class="cls-10" points="192.56 269.24 184.7 285.73 200.42 285.73 192.56 269.24"/><path class="cls-5" d="M202.15,249.94h0a1.13,1.13,0,0,1,1.13,1.13v34.76a0,0,0,0,1,0,0H201a0,0,0,0,1,0,0V251.07A1.13,1.13,0,0,1,202.15,249.94Z"/><g class="cls-31"><rect class="cls-2" x="168.92" y="309.06" width="65.67" height="93.31"/><polygon class="cls-16" points="178.7 395.41 200.28 328.13 221.86 395.41 178.7 395.41"/><rect class="cls-5" x="197.79" y="362.69" width="4.98" height="32.71"/><rect class="cls-17" x="191.93" y="355.82" width="16.7" height="39.59"/><polygon class="cls-16" points="135.54 395.41 157.12 328.13 178.7 395.41 135.54 395.41"/><rect class="cls-3" x="154.63" y="362.69" width="4.98" height="32.71"/><rect class="cls-17" x="148.77" y="355.82" width="16.7" height="39.59"/><polygon class="cls-16" points="221.86 395.41 243.44 328.13 265.02 395.41 221.86 395.41"/><rect class="cls-3" x="240.95" y="362.69" width="4.98" height="32.71"/><rect class="cls-17" x="235.09" y="355.82" width="16.7" height="39.59"/><polygon class="cls-3" points="242.17 332.18 201.55 332.18 201.15 327.39 242.57 327.39 242.17 332.18"/><rect class="cls-3" x="220.07" y="328.13" width="3.52" height="64.97"/><rect class="cls-3" x="216.84" y="328.13" width="1.32" height="54.23"/><rect class="cls-3" x="225.65" y="328.13" width="1.32" height="54.23"/><polygon class="cls-3" points="199.01 332.18 158.39 332.18 157.99 327.39 199.41 327.39 199.01 332.18"/><rect class="cls-3" x="176.91" y="328.13" width="3.52" height="64.97"/><rect class="cls-3" x="173.68" y="328.13" width="1.32" height="54.23"/><rect class="cls-3" x="182.49" y="328.13" width="1.32" height="54.23"/><rect class="cls-3" x="156.27" y="322.7" width="87.69" height="2.49"/><polygon class="cls-10" points="176.63 314.5 168.77 322.7 184.49 322.7 176.63 314.5"/><polygon class="cls-10" points="191.93 314.5 184.07 322.7 199.79 322.7 191.93 314.5"/><polygon class="cls-10" points="207.23 314.5 199.37 322.7 215.09 322.7 207.23 314.5"/><polygon class="cls-10" points="222.53 314.5 214.67 322.7 230.39 322.7 222.53 314.5"/><polygon class="cls-10" points="237.83 314.5 229.97 322.7 245.69 322.7 237.83 314.5"/><polygon class="cls-10" points="161.06 314.5 153.2 322.7 168.92 322.7 161.06 314.5"/></g><polygon class="cls-6" points="234.59 395.41 168.92 395.41 163.05 401.28 163.05 402.37 168.92 402.37 171.6 402.37 231.91 402.37 234.59 402.37 240.46 402.37 240.46 401.28 234.59 395.41"/><rect class="cls-3" x="163.05" y="402.37" width="77.41" height="5.21"/><polygon class="cls-3" points="168.92 309.58 234.59 309.58 240.46 303.71 240.46 302.62 234.59 302.62 231.91 302.62 171.6 302.62 168.92 302.62 163.05 302.62 163.05 303.71 168.92 309.58"/><polygon class="cls-8" points="174.22 215.48 229.93 215.48 234.91 210.5 234.91 209.57 229.93 209.57 227.66 209.57 176.49 209.57 174.22 209.57 169.24 209.57 169.24 210.5 174.22 215.48"/><rect class="cls-6" x="163.05" y="297.41" width="77.41" height="5.21" transform="translate(403.51 600.02) rotate(180)"/><rect class="cls-6" x="193.29" y="285.88" width="17.48" height="11.53"/><path class="cls-3" d="M199.21,297.41a17.46,17.46,0,0,0-34.91,0Z"/><path class="cls-2" d="M197.55,297.41a15.79,15.79,0,0,0-31.58,0Z"/><path class="cls-3" d="M193.29,297.41a11.53,11.53,0,0,0-23.07,0Z"/><path class="cls-2" d="M192.15,297.41a10.39,10.39,0,0,0-20.78,0Z"/><path class="cls-3" d="M187.88,297.41a6.12,6.12,0,0,0-12.24,0Z"/><path class="cls-6" d="M185.11,297.41a3.36,3.36,0,0,0-6.71,0Z"/><path class="cls-3" d="M238.62,297.41a17.46,17.46,0,0,0-34.91,0Z"/><path class="cls-2" d="M237,297.41a15.79,15.79,0,0,0-31.58,0Z"/><path class="cls-3" d="M232.7,297.41a11.53,11.53,0,0,0-23.07,0Z"/><path class="cls-2" d="M231.56,297.41a10.39,10.39,0,0,0-20.78,0Z"/><path class="cls-3" d="M227.29,297.41a6.12,6.12,0,0,0-12.24,0Z"/><path class="cls-6" d="M224.52,297.41a3.36,3.36,0,0,0-6.71,0Z"/><path class="cls-2" d="M204.47,297.41h-6.1v-.76a3,3,0,0,1,3-3h0a3,3,0,0,1,3,3Z"/><path class="cls-3" d="M203.5,297.41a2.15,2.15,0,1,0-4.16,0Z"/><rect class="cls-9" x="174.07" y="236.72" width="55.92" height="4.92"/><rect class="cls-9" x="174.07" y="224.85" width="55.92" height="2.46"/><rect class="cls-10" x="176.64" y="230.47" width="3.09" height="3.09" transform="translate(-111.87 193.95) rotate(-45)"/><rect class="cls-10" x="183.16" y="230.47" width="3.09" height="3.09" transform="translate(-109.96 198.56) rotate(-45)"/><rect class="cls-10" x="189.67" y="230.47" width="3.09" height="3.09" transform="translate(-108.05 203.17) rotate(-45)"/><rect class="cls-10" x="196.19" y="230.47" width="3.09" height="3.09" transform="translate(-106.15 207.78) rotate(-45)"/><rect class="cls-10" x="202.71" y="230.47" width="3.09" height="3.09" transform="translate(-104.24 212.39) rotate(-45)"/><rect class="cls-10" x="209.23" y="230.47" width="3.09" height="3.09" transform="translate(-102.33 216.99) rotate(-45)"/><rect class="cls-10" x="215.75" y="230.47" width="3.09" height="3.09" transform="translate(-100.42 221.6) rotate(-45)"/><rect class="cls-10" x="222.26" y="230.47" width="3.09" height="3.09" transform="translate(-98.51 226.21) rotate(-45)"/><path class="cls-9" d="M181.66,225v-3.76a1.74,1.74,0,1,0-3.47,0V225Z"/><path class="cls-9" d="M189.27,225v-3.76a1.74,1.74,0,1,0-3.47,0V225Z"/><path class="cls-9" d="M196.89,225v-3.76a1.74,1.74,0,1,0-3.47,0V225Z"/><path class="cls-9" d="M204.51,225v-3.76a1.74,1.74,0,1,0-3.47,0V225Z"/><path class="cls-9" d="M212.13,225v-3.76a1.74,1.74,0,1,0-3.47,0V225Z"/><path class="cls-9" d="M219.75,225v-3.76a1.74,1.74,0,1,0-3.47,0V225Z"/><path class="cls-9" d="M227.37,225v-3.76a1.74,1.74,0,1,0-3.47,0V225Z"/><path class="cls-5" d="M176.73,215.48v-2a.92.92,0,0,0-1.85,0v2Z"/><path class="cls-5" d="M180.78,215.48v-2a.92.92,0,1,0-1.85,0v2Z"/><path class="cls-5" d="M184.83,215.48v-2a.92.92,0,1,0-1.85,0v2Z"/><path class="cls-5" d="M188.88,215.48v-2a.92.92,0,0,0-1.85,0v2Z"/><path class="cls-5" d="M192.93,215.48v-2a.92.92,0,0,0-1.85,0v2Z"/><path class="cls-5" d="M197,215.48v-2a.92.92,0,0,0-1.85,0v2Z"/><path class="cls-5" d="M201,215.48v-2a.92.92,0,1,0-1.85,0v2Z"/><path class="cls-5" d="M205,215.48v-2a.92.92,0,1,0-1.85,0v2Z"/><path class="cls-5" d="M209.1,215.48v-2a.92.92,0,1,0-1.85,0v2Z"/><path class="cls-5" d="M213.15,215.48v-2a.92.92,0,0,0-1.85,0v2Z"/><path class="cls-5" d="M217.2,215.48v-2a.92.92,0,1,0-1.85,0v2Z"/><path class="cls-5" d="M221.25,215.48v-2a.92.92,0,1,0-1.85,0v2Z"/><path class="cls-5" d="M225.3,215.48v-2a.92.92,0,0,0-1.85,0v2Z"/><path class="cls-5" d="M229.36,215.48v-2a.92.92,0,1,0-1.85,0v2Z"/><polygon class="cls-10" points="207.23 314.5 199.37 322.7 215.09 322.7 207.23 314.5"/><path class="cls-8" d="M191.73,216.05a37.9,37.9,0,0,0,21.17,0Z"/><path class="cls-3" d="M204.51,115.85V105.24h-4.4v10.61c0,.17,0,.34,0,.52h4.43C204.53,116.19,204.51,116,204.51,115.85Z"/><path class="cls-30" d="M230,206.65a36.68,36.68,0,0,0-6.26-53.79,45.77,45.77,0,0,1-19.26-36.49H200.1a45.77,45.77,0,0,1-19.26,36.49,36.68,36.68,0,0,0-6.26,53.79h-.36l-5,2.49v.46h65.67v-.46l-5-2.49Z"/><path class="cls-3" d="M223.62,206a44.3,44.3,0,0,0,6.38-23.4c0-12.25-4.53-23.1-11.49-29.76-7.44-7.13-12.5-17.67-14-29.43h-4.32c-1.54,11.76-6.59,22.3-14,29.43-7,6.66-11.49,17.51-11.49,29.76A44.3,44.3,0,0,0,181,206Z"/><path class="cls-30" d="M215.73,206a65.1,65.1,0,0,0,4-23.4c0-12.25-2.85-23.1-7.24-29.76-4.69-7.13-7.87-17.67-8.84-29.43H201c-1,11.76-4.15,22.3-8.84,29.43-4.38,6.66-7.24,17.51-7.24,29.76a65.1,65.1,0,0,0,4,23.4Z"/><path class="cls-3" d="M208.53,206a134.64,134.64,0,0,0,1.86-23.4c0-12.25-1.32-23.1-3.35-29.76-2.17-7.13-3.65-17.67-4.1-29.43h-1.26c-.45,11.76-1.92,22.3-4.1,29.43-2,6.66-3.35,17.51-3.35,29.76a134.65,134.65,0,0,0,1.86,23.4Z"/><path class="cls-30" d="M205.32,206c.56-6.35.9-14.5.9-23.4a226.11,226.11,0,0,0-1.62-29.76,250.37,250.37,0,0,1-2-29.43H202a250.39,250.39,0,0,1-2,29.43,226.11,226.11,0,0,0-1.62,29.76c0,8.9.34,17.05.9,23.4Z"/><circle class="cls-8" cx="202.31" cy="102.18" r="6.01"/><path class="cls-32" d="M135.3,408.16a67.65,67.65,0,0,0-135.3,0Z"/><line class="cls-33" x1="67.65" y1="407.92" x2="67.65" y2="340.91"/><line class="cls-33" x1="67.65" y1="395.66" x2="108.44" y2="354.87"/><line class="cls-33" x1="67.65" y1="402.94" x2="22.67" y2="357.97"/><line class="cls-33" x1="52.22" y1="387.52" x2="3.01" y2="387.52"/><line class="cls-33" x1="81.32" y1="381.99" x2="129.48" y2="381.99"/><line class="cls-33" x1="67.65" y1="372.54" x2="93.95" y2="346.24"/><path class="cls-3" d="M149,30.56a34.56,34.56,0,0,0-30.33,18,6.1,6.1,0,0,1-5.79,3.14q-.52,0-1,0a16.42,16.42,0,0,0-11.49,4.67,5.83,5.83,0,0,1-6.93.89,13.14,13.14,0,0,0-7.76-1.64,13.3,13.3,0,0,0-11.24,9.07l0,.15a4.75,4.75,0,0,0,4.61,6.08h98.94a5.66,5.66,0,0,0,5.66-5.65v-.06A34.59,34.59,0,0,0,149,30.56Z"/><path class="cls-3" d="M426.81,55.11l-.55-.47a36,36,0,0,1-7.5-9,28.32,28.32,0,0,0-39.7-9.11,7.68,7.68,0,0,1-4.48,1.25l-1.26,0A37.07,37.07,0,0,0,338.8,61.35a7,7,0,0,0,6.47,9.5h90.1a4.64,4.64,0,0,0,2.58-8.49A24.85,24.85,0,0,0,435,60.66,37.41,37.41,0,0,1,426.81,55.11Z"/><path class="cls-3" d="M84.57,84.1H47.46a3.54,3.54,0,0,1-3.54-3.54h0A3.54,3.54,0,0,1,47.46,77H84.57a3.54,3.54,0,0,1,3.54,3.54h0A3.54,3.54,0,0,1,84.57,84.1Z"/><path class="cls-3" d="M183.86,89.32H179a3.17,3.17,0,0,1-3.17-3.17h0A3.17,3.17,0,0,1,179,83h4.89A3.17,3.17,0,0,1,187,86.15h0A3.17,3.17,0,0,1,183.86,89.32Z"/><path class="cls-3" d="M349.73,86.15h-25A3.79,3.79,0,0,1,321,82.36h0a3.79,3.79,0,0,1,3.79-3.79h25a3.79,3.79,0,0,1,3.79,3.79h0A3.79,3.79,0,0,1,349.73,86.15Z"/></svg>