<svg id="routs" xmlns="http://www.w3.org/2000/svg" xmlns:xlink="http://www.w3.org/1999/xlink" viewBox="0 0 348.29 263.84"><defs><style>.cls-1{fill:none;}.cls-2{fill:#fdfdfd;}.cls-3{clip-path:url(#clip-path);}.cls-4{fill:#fffcf2;}.cls-5{fill:#c2e69c;}.cls-6{fill:#e8e4db;}.cls-7{fill:#d9d4c9;}.cls-8{fill:#f0eee7;}.cls-9{clip-path:url(#clip-path-2);}.cls-10{opacity:0.2;}.cls-11{fill:#d96900;}.cls-12{fill:#854336;}.cls-13{fill:#0e69b4;}.cls-14{fill:#692214;}.cls-15{fill:#020102;}.cls-16{fill:#f6e0bd;}.cls-17{fill:#a34f00;}.cls-18{fill:#ed9926;}.cls-19{fill:#d41900;}</style><clipPath id="clip-path"><polygon class="cls-1" points="98.59 146.53 23.45 145.39 98.45 8.44 157.08 12.61 98.59 146.53 98.59 146.53"/></clipPath><clipPath id="clip-path-2"><polygon class="cls-1" points="226.79 189.16 155.56 189.32 204.03 43.54 260.15 46.88 226.79 189.16 226.79 189.16"/></clipPath></defs><title>routs_map2_bear</title><path class="cls-2" d="M224,201.35l.05,0,.05,0,.05,0,73.8,54L320.31,76.52,261.93,39.27h0l-1.69,7.23,0,0,0,0,0,0,0,0,49.43,31.74.13.11a.67.67,0,0,1,.1.13.48.48,0,0,1,.05.13.37.37,0,0,1,0,.13L288.32,233.47a.58.58,0,0,1,0,.15.56.56,0,0,1-.08.13l-.11.1-.13.06-.09,0h-.2l-.1,0-.06,0-.06,0-.05,0-.05,0-60.7-44-2.7,11.54h0Z"/><g class="cls-3"><polygon class="cls-4" points="147.34 34.91 118.21 54.87 118.22 54.87 147.34 34.91 147.34 34.91 147.34 34.91"/><polygon class="cls-5" points="156.91 12.99 98.84 8.87 84.22 35.63 118.21 54.87 147.34 34.91 156.91 12.99 156.91 12.99"/><path class="cls-6" d="M80.5,143.42l-.18-.08a.64.64,0,0,1-.14-.12.58.58,0,0,1-.1-.16.67.67,0,0,1,0-.2,1,1,0,0,1,.24-.71,3.45,3.45,0,0,1,.7-.65c.28-.21.61-.41.92-.61s.63-.4.9-.59a2.89,2.89,0,0,1,.47-.29,1.89,1.89,0,0,1,.43-.15,1.49,1.49,0,0,1,.39,0,1.43,1.43,0,0,1,.35.07l.21.09.2.11.18.13.17.14.18.13.2.12.2.12a1,1,0,0,1,.17.14,1.93,1.93,0,0,0,.45.31,2.3,2.3,0,0,1,.47.31.44.44,0,0,1,.14.44,1.53,1.53,0,0,1-.51.69,3.41,3.41,0,0,1-.57.43,1.85,1.85,0,0,1-.5.21,1.4,1.4,0,0,1-.45,0,1.7,1.7,0,0,1-.41-.09l-.19-.07-.19-.08L84,143l-.19-.09h-.07l-.08,0-.09,0-.1,0-.11,0h-.34l-.18,0a.4.4,0,0,0-.14.06,4.64,4.64,0,0,1-.64.34,3.77,3.77,0,0,1-.61.21,2.48,2.48,0,0,1-.54.07,1.36,1.36,0,0,1-.45-.06Zm-29.66-37-.15-.07a.37.37,0,0,1-.1-.08.21.21,0,0,1,0-.1.24.24,0,0,1,0-.12,1.59,1.59,0,0,0,.1-.85,1.43,1.43,0,0,0-.32-.66,3.28,3.28,0,0,0-.6-.54c-.23-.17-.48-.32-.72-.49a.61.61,0,0,1-.23-.23.27.27,0,0,1,0-.23.72.72,0,0,1,.2-.24,2.63,2.63,0,0,1,.37-.26l.79-.48.78-.49.77-.48.78-.48a3.06,3.06,0,0,1,.49-.24,2.08,2.08,0,0,1,.44-.11,1.58,1.58,0,0,1,.39,0,1.54,1.54,0,0,1,.34.07l.17.07.16.08.15.09.14.1,1.94,1.45,1.94,1.46,2,1.45q1,.72,2,1.44a1.29,1.29,0,0,1,.45.47.49.49,0,0,1,0,.44,1.47,1.47,0,0,1-.4.45,6.85,6.85,0,0,1-.72.49l-.64.38a4.9,4.9,0,0,1-.61.29,2.23,2.23,0,0,1-.59.14,1.44,1.44,0,0,1-.58-.07l-.13,0-.13-.06-.13-.08-.12-.09-.82-.62-.84-.61-.85-.6-.85-.6-.24-.17-.24-.16-.25-.14-.26-.11a1.79,1.79,0,0,0-.44-.09,1.92,1.92,0,0,0-.5,0,2.79,2.79,0,0,0-.58.19,4.83,4.83,0,0,0-.68.37.93.93,0,0,1-.2.1l-.22.06-.21,0-.15,0H51.4l-.21,0-.19,0-.16,0Zm13.7-6a.9.9,0,0,1-.27-.15,1.12,1.12,0,0,1-.21-.22,1.52,1.52,0,0,1-.15-.27,2.18,2.18,0,0,1-.1-.28,1,1,0,0,1,0-.28c0-.1,0-.19,0-.29a.82.82,0,0,0-.06-.28.66.66,0,0,0-.2-.26,1.56,1.56,0,0,1-.62-.92,1.45,1.45,0,0,1,.21-1,3.41,3.41,0,0,1,1-1,7.28,7.28,0,0,1,1.61-.86A2.48,2.48,0,0,1,66,94.5l.3,0h.26l.22.05.13,0,.12.06.12.06.11.07,2,1.12L71.17,97l1.95,1.13,2,1.13a1,1,0,0,1,.34.29.45.45,0,0,1,.08.33.79.79,0,0,1-.18.36,2.38,2.38,0,0,1-.43.4c-.17.13-.34.27-.5.42s-.33.29-.52.42a3.36,3.36,0,0,1-.63.36,3.45,3.45,0,0,1-.84.23l-.92-.53-.92-.53-.92-.54-.9-.55-.19-.12-.18-.1-.18-.09L68,99.57a1.5,1.5,0,0,0-.39-.08,1.67,1.67,0,0,0-.44,0,2.7,2.7,0,0,0-.53.18,5.25,5.25,0,0,0-.64.35,3.59,3.59,0,0,1-.46.25,2.14,2.14,0,0,1-.39.13,1.33,1.33,0,0,1-.33,0,1,1,0,0,1-.28,0Zm16.37-9.56a3.72,3.72,0,0,1-.8-.41,6.48,6.48,0,0,1-.79-.6,3.69,3.69,0,0,1-.56-.61c-.13-.18-.18-.33-.12-.42a3,3,0,0,1,.71-.59c.36-.24.8-.5,1.25-.74s.91-.47,1.29-.63a2.42,2.42,0,0,1,.84-.24h.09l.1,0,.1,0,.1,0a3.84,3.84,0,0,1,.84.42,5,5,0,0,1,.77.61,2.24,2.24,0,0,1,.47.62c.08.19.08.35,0,.45s-.53.44-.8.67a10.16,10.16,0,0,1-.84.66,4.83,4.83,0,0,1-1,.53,4.22,4.22,0,0,1-1.21.27h-.2l-.11,0-.12,0Zm19.92-1.79-.09,0-.09,0-.08,0-.08-.05-1.94-1.37-1.93-1.37-1.93-1.37-1.93-1.36a.83.83,0,0,1-.24-.24.36.36,0,0,1-.05-.25.59.59,0,0,1,.14-.27,1.83,1.83,0,0,1,.32-.29l.31-.23a2.25,2.25,0,0,1,.34-.19,1.73,1.73,0,0,1,.41-.12,2.23,2.23,0,0,1,.52,0l.24.14.27.15.28.17.28.18,1.58,1.08,1.57,1.09,1.57,1.09,1.56,1.1a2.66,2.66,0,0,1,.51.48,2.39,2.39,0,0,1,.19.28,2,2,0,0,1,.14.29.53.53,0,0,1,0,.29.73.73,0,0,1-.13.3,1.32,1.32,0,0,1-.28.28,2.27,2.27,0,0,1-.42.25l-.3.11-.27,0h-.25l-.23-.05Zm6.58-5.9h-.07l0,0,0,0-1-.57-1-.58-1-.59-1-.58a1.37,1.37,0,0,1-.51-.43.5.5,0,0,1,0-.45,1.29,1.29,0,0,1,.35-.48,5.29,5.29,0,0,1,.69-.52c.2-.13.39-.25.57-.35a3.19,3.19,0,0,1,.52-.23,1.7,1.7,0,0,1,.49-.09,1.44,1.44,0,0,1,.49.08l.13,0,.13.06.13.08.14.09c.29.2.6.39.91.58l1,.56,1,.54,1,.55.29.18a1.54,1.54,0,0,1,.24.2.67.67,0,0,1,.15.23.5.5,0,0,1,0,.28,1.65,1.65,0,0,1-.55.66,4.32,4.32,0,0,1-1,.54,4.67,4.67,0,0,1-1.07.31,2,2,0,0,1-.91,0Zm7.35-11.68a1.4,1.4,0,0,1-.27-.12l-.23-.16-.2-.18-.18-.18a.29.29,0,0,1-.1-.28.54.54,0,0,1,.18-.26,2.75,2.75,0,0,1,.32-.25l.34-.24c.45-.34.83-.62,1.16-.84a5.94,5.94,0,0,1,.85-.51,1.94,1.94,0,0,1,.7-.19,1.85,1.85,0,0,1,.7.11l.34.13.38.19.43.24.5.28,1.15.67,1.15.67,1.16.66,1.18.65a2.47,2.47,0,0,1,.45.29.57.57,0,0,1,.21.31.46.46,0,0,1-.1.36,2,2,0,0,1-.48.43l-.5.35a3.55,3.55,0,0,1-.5.29,1.67,1.67,0,0,1-.53.15,1.38,1.38,0,0,1-.57-.07l-.1,0-.1,0-.1-.05-.11-.06c-.3-.19-.62-.37-.94-.55l-1-.53-1-.51-1-.51-.26-.14-.27-.13-.27-.14-.28-.14-.34.11-.33.11-.32.1-.31.07-.25,0h-.23l-.2,0-.18,0Zm14.29-2.39-.09,0-.09,0-.09-.05-.09-.06-1.15-.84-1.16-.83-1.16-.83-1.15-.83a2.15,2.15,0,0,1-.27-.23.74.74,0,0,1-.18-.26.4.4,0,0,1,0-.29.83.83,0,0,1,.27-.33l.36-.29a4.42,4.42,0,0,1,.39-.28,2.37,2.37,0,0,1,.43-.22,1.87,1.87,0,0,1,.5-.11h.09a9,9,0,0,1,1.34.75c.62.39,1.36.88,2.07,1.38s1.39,1,1.89,1.38.82.67.8.74a.77.77,0,0,1-.24.37,1.81,1.81,0,0,1-.41.27l-.48.22a5,5,0,0,0-.47.22l-.31.14a1.52,1.52,0,0,1-.29.08,1.14,1.14,0,0,1-.27,0,1,1,0,0,1-.25-.05Zm3.4-5.34-1-.48-1-.47-.94-.47-.91-.49c-.09-.05-.13-.11-.13-.17a.3.3,0,0,1,.11-.18,2,2,0,0,1,.24-.19l.26-.18.43-.32.43-.32.41-.33c.13-.11.26-.22.37-.34a3.48,3.48,0,0,1,.49-.4,2,2,0,0,1,.46-.24,1.32,1.32,0,0,1,.87,0l.16.06.16.08.16.1.16.12.2.13.21.12.22.12.21.13a3,3,0,0,0,.58.26l.66.24a1.45,1.45,0,0,1,.48.27.26.26,0,0,1,0,.36,3.48,3.48,0,0,1-.54.62,8.57,8.57,0,0,1-.72.6l-.8.58c-.27.19-.54.39-.79.58l-.11.07-.14.05-.15,0-.14,0Zm6-12.58L49.66,98.85,24.55,144.8l74.05,1.14h.18l.05,0,1.76-4-1.18.89-1.19.85c-.37.26-.71.48-1,.64a2,2,0,0,1-.54.26h-.32l-.14,0-.13,0a1.31,1.31,0,0,1-.28-.13l-.23-.17L95.4,144l-.22-.18a8,8,0,0,1-1.64-1.44,1.29,1.29,0,0,1-.31-1.23,3.09,3.09,0,0,1,1.12-1.32A24.18,24.18,0,0,1,97,138.13l.22-.13.22-.12.23-.11.23-.08.13,0h.16l.18,0,.2.06a5.1,5.1,0,0,1,.75.33,9.22,9.22,0,0,1,.82.49c.27.18.54.38.79.58a7.3,7.3,0,0,1,.65.59l1.58-3.62c-.28-.15-.58-.29-.84-.44a1.9,1.9,0,0,1-.63-.53.85.85,0,0,1-.1-.75,3,3,0,0,1,.73-1.11.26.26,0,0,0,0-.35,1.2,1.2,0,0,0-.38-.34c-.17-.11-.38-.22-.58-.32l-.56-.29-.61-.35a2.37,2.37,0,0,1-.51-.38.94.94,0,0,1-.27-.52,1.5,1.5,0,0,1,.13-.77.65.65,0,0,0,0-.61,1.48,1.48,0,0,0-.5-.44c-.22-.13-.47-.25-.7-.38a3.3,3.3,0,0,1-.63-.4c-.1-.09-.23-.18-.36-.27a1.47,1.47,0,0,1-.32-.28.37.37,0,0,1-.07-.35,1,1,0,0,1,.39-.45,1.66,1.66,0,0,1,.31-.19,1.17,1.17,0,0,1,.28-.09,1,1,0,0,1,.26,0l.24.05.19.08.18.1.17.1.16.1,1.59,1,1.59,1,1.59,1,1.59,1,3-6.82-.16-.1-.16-.1-.16-.1-.16-.1c-.12-.07-.27-.14-.41-.2a1.2,1.2,0,0,1-.35-.22.28.28,0,0,1-.06-.32,1.34,1.34,0,0,1,.45-.48,2.67,2.67,0,0,1,.49-.3,1.83,1.83,0,0,1,.45-.15,1.5,1.5,0,0,1,.41,0,1.69,1.69,0,0,1,.38.08h.12l28.37-65-.36-.18-.36-.18-.36-.18-.37-.17a1.85,1.85,0,0,1-.53-.34.41.41,0,0,1-.14-.34.73.73,0,0,1,.21-.38,3.82,3.82,0,0,1,.51-.45,3.61,3.61,0,0,1,.58-.38,2,2,0,0,1,.54-.19,1.83,1.83,0,0,1,.54,0,2.82,2.82,0,0,1,.58.13l.06,0,.06,0,.06,0,.06,0h0l1-2.4-1.38-.91ZM69.9,78.73l-.12,0-.11,0-.1-.05-.1-.06a1.08,1.08,0,0,1-.29-.26.3.3,0,0,1-.05-.26.58.58,0,0,1,.21-.27,2.7,2.7,0,0,1,.49-.3l.46-.24.44-.26.43-.27.43-.27,1.32-.82a10.35,10.35,0,0,1,1-.52,2.6,2.6,0,0,1,.72-.23,1.29,1.29,0,0,1,.6.05,1.85,1.85,0,0,1,.36.17,4,4,0,0,1,.39.27l.44.37.52.47.34.29a1.25,1.25,0,0,1,.28.31.39.39,0,0,1,0,.35,1,1,0,0,1-.39.42l-.87.62c-.29.21-.59.42-.91.63a9.66,9.66,0,0,1-1,.58,8.71,8.71,0,0,1-1.24.48A.92.92,0,0,0,73,79.6a1,1,0,0,0-.18-.18,1.33,1.33,0,0,0-.22-.14l-.25-.1-.28-.08-.3-.06-.31,0-.32,0-.32,0-.31,0-.3-.06-.28-.08Zm14.94-5.44a4.32,4.32,0,0,1-.92-.49,11.68,11.68,0,0,1-1-.79,7.22,7.22,0,0,1-.82-.79c-.19-.23-.29-.41-.23-.5a3.7,3.7,0,0,1,.61-.63,5.51,5.51,0,0,1,.77-.53,8.5,8.5,0,0,1,.89-.44c.31-.13.63-.25,1-.36h.16a3.88,3.88,0,0,1,.83.49c.34.24.73.55,1.08.85A10.3,10.3,0,0,1,88,71c.22.24.33.42.27.48a8.06,8.06,0,0,1-.68.59,7.94,7.94,0,0,1-.77.52,7.78,7.78,0,0,1-1.77.78H85l-.06,0-.07,0Zm11-7-.11,0-.11,0-.1-.05-.1-.06-.77-.52L93.84,65l-.77-.52c-.26-.17-.53-.33-.8-.49a1.13,1.13,0,0,1-.49-.44.41.41,0,0,1,.05-.42,1.85,1.85,0,0,1,.44-.42c.19-.14.43-.3.67-.46a4.62,4.62,0,0,1,.55-.32,2.53,2.53,0,0,1,.49-.18,1.61,1.61,0,0,1,.44-.05,1.42,1.42,0,0,1,.41.07l.13,0,.13.06.13.07.13.08.82.57.83.56.82.57.82.57a1.34,1.34,0,0,1,.21.18.54.54,0,0,1,.13.24.7.7,0,0,1,0,.35,2,2,0,0,1-.22.51,1.19,1.19,0,0,1-.45.41,2.91,2.91,0,0,1-.74.29,3.67,3.67,0,0,1-.88.11,2.76,2.76,0,0,1-.87-.13Zm7.54-4.73a2.88,2.88,0,0,1-.51-.22,1,1,0,0,1-.35-.3.54.54,0,0,1-.07-.42,1.37,1.37,0,0,1,.31-.57.76.76,0,0,0,.18-.33.28.28,0,0,0-.05-.23.72.72,0,0,0-.21-.17l-.28-.16-.88-.52-.88-.52-.87-.53L98.87,57c-.18-.11-.37-.21-.56-.32a2.53,2.53,0,0,1-.5-.34.75.75,0,0,1-.25-.46,1.12,1.12,0,0,1,.18-.68.3.3,0,0,0,0-.37,1.51,1.51,0,0,0-.44-.31l-.59-.3a2.67,2.67,0,0,1-.52-.32.66.66,0,0,1-.16-.2.42.42,0,0,1,0-.22.53.53,0,0,1,.07-.23A1.05,1.05,0,0,1,96.2,53a.7.7,0,0,1,.17-.12.7.7,0,0,1,.2-.07,1,1,0,0,1,.25,0l.3.06.67.39.71.41.73.42.73.44,1.75,1.08,1.75,1.08,1.75,1.08L107,58.89a4.56,4.56,0,0,1,.48.33,1,1,0,0,1,.31.37.46.46,0,0,1,0,.43,1.6,1.6,0,0,1-.55.5,6,6,0,0,0-.63.49c-.21.18-.42.37-.64.52a2.17,2.17,0,0,1-.7.35,1.39,1.39,0,0,1-.8,0l-.23-.07-.26-.07-.28-.08-.28-.09Zm44-26.63-29.12,20h0l-34-19.24L53.44,91.94l86.32-45.85,2.1,1.38,5.48-12.56Z"/><polygon class="cls-2" points="139.53 46.98 52.78 93.15 50.34 97.62 137.91 50.69 138.7 50.27 139.28 50.66 140.2 51.27 141.5 48.28 139.53 46.98 139.53 46.98"/><polygon class="cls-7" points="138.7 50.27 137.91 50.69 50.34 97.62 49.66 98.85 138.46 51.18 139.84 52.09 140.2 51.27 139.28 50.66 138.7 50.27 138.7 50.27"/><polygon class="cls-7" points="139.76 46.09 53.44 91.94 52.78 93.15 139.53 46.98 141.5 48.28 141.86 47.47 139.76 46.09 139.76 46.09"/><path class="cls-8" d="M54.14,100.29a1.54,1.54,0,0,0-.34-.07,1.58,1.58,0,0,0-.39,0,2.08,2.08,0,0,0-.44.11,3.06,3.06,0,0,0-.49.24l-.78.48-.77.48-.78.49-.79.48a2.63,2.63,0,0,0-.37.26.72.72,0,0,0-.2.24.27.27,0,0,0,0,.23.61.61,0,0,0,.23.23c.24.16.49.32.72.49a3.28,3.28,0,0,1,.6.54,1.43,1.43,0,0,1,.32.66,1.59,1.59,0,0,1-.1.85.24.24,0,0,0,0,.12.21.21,0,0,0,0,.1.37.37,0,0,0,.1.08l.15.07.16,0,.19,0,.21,0h.23l.15,0,.21,0,.22-.06a.93.93,0,0,0,.2-.1,4.83,4.83,0,0,1,.68-.37,2.79,2.79,0,0,1,.58-.19,1.92,1.92,0,0,1,.5,0,1.79,1.79,0,0,1,.44.09l.26.11.25.14.24.16.24.17.85.6.85.6.84.61.82.62.12.09.13.08.13.06.13,0a1.44,1.44,0,0,0,.58.07,2.23,2.23,0,0,0,.59-.14,4.9,4.9,0,0,0,.61-.29l.64-.38a6.85,6.85,0,0,0,.72-.49,1.47,1.47,0,0,0,.4-.45.49.49,0,0,0,0-.44,1.29,1.29,0,0,0-.45-.47q-1-.71-2-1.44l-2-1.45-1.94-1.46-1.94-1.45-.14-.1-.15-.09-.16-.08-.17-.07Z"/><path class="cls-8" d="M66.78,94.52l-.22-.05H66.3l-.3,0a2.48,2.48,0,0,0-.35.11,7.28,7.28,0,0,0-1.61.86,3.41,3.41,0,0,0-1,1,1.45,1.45,0,0,0-.21,1,1.56,1.56,0,0,0,.62.92.66.66,0,0,1,.2.26.82.82,0,0,1,.06.28c0,.1,0,.19,0,.29a1,1,0,0,0,0,.28,2.18,2.18,0,0,0,.1.28,1.52,1.52,0,0,0,.15.27,1.12,1.12,0,0,0,.21.22.9.9,0,0,0,.27.15,1,1,0,0,0,.28,0,1.33,1.33,0,0,0,.33,0,2.14,2.14,0,0,0,.39-.13,3.59,3.59,0,0,0,.46-.25,5.25,5.25,0,0,1,.64-.35,2.7,2.7,0,0,1,.53-.18,1.67,1.67,0,0,1,.44,0,1.5,1.5,0,0,1,.39.08l.19.07.18.09.18.1.19.12.9.55.92.54.92.53.92.53a3.45,3.45,0,0,0,.84-.23,3.36,3.36,0,0,0,.63-.36c.19-.13.36-.28.52-.42s.33-.29.5-.42a2.38,2.38,0,0,0,.43-.4.79.79,0,0,0,.18-.36.45.45,0,0,0-.08-.33,1,1,0,0,0-.34-.29l-2-1.13L71.17,97l-1.95-1.13-2-1.12-.11-.07L67,94.63l-.12-.06-.13,0Z"/><path class="cls-8" d="M98.4,126.59l-.24-.05a1,1,0,0,0-.26,0,1.17,1.17,0,0,0-.28.09,1.66,1.66,0,0,0-.31.19,1,1,0,0,0-.39.45.37.37,0,0,0,.07.35,1.47,1.47,0,0,0,.32.28c.13.09.26.18.36.27a3.3,3.3,0,0,0,.63.4c.24.12.49.24.7.38a1.48,1.48,0,0,1,.5.44.65.65,0,0,1,0,.61,1.5,1.5,0,0,0-.13.77.94.94,0,0,0,.27.52,2.37,2.37,0,0,0,.51.38l.61.35.56.29c.2.1.41.21.58.32a1.2,1.2,0,0,1,.38.34.26.26,0,0,1,0,.35,3,3,0,0,0-.73,1.11.85.85,0,0,0,.1.75,1.9,1.9,0,0,0,.63.53c.26.15.56.29.84.44l2.34-5.35-1.59-1-1.59-1-1.59-1-1.59-1-.16-.1-.17-.1-.18-.1-.19-.08Z"/><path class="cls-8" d="M109.17,122a1.69,1.69,0,0,0-.38-.08,1.5,1.5,0,0,0-.41,0,1.83,1.83,0,0,0-.45.15,2.67,2.67,0,0,0-.49.3,1.34,1.34,0,0,0-.45.48.28.28,0,0,0,.06.32,1.2,1.2,0,0,0,.35.22c.14.07.29.13.41.2l.16.1.16.1.16.1.16.1.86-2h-.12Z"/><path class="cls-8" d="M138.51,54.38a2.82,2.82,0,0,0-.58-.13,1.83,1.83,0,0,0-.54,0,2,2,0,0,0-.54.19,3.61,3.61,0,0,0-.58.38,3.82,3.82,0,0,0-.51.45.73.73,0,0,0-.21.38.41.41,0,0,0,.14.34,1.85,1.85,0,0,0,.53.34l.37.17.36.18.36.18.36.18,1.13-2.58h0l-.06,0-.06,0-.06,0-.06,0Z"/><path class="cls-8" d="M118,68.39a1.85,1.85,0,0,0-.7-.11,1.94,1.94,0,0,0-.7.19,5.94,5.94,0,0,0-.85.51c-.33.22-.7.5-1.16.84l-.34.24a2.75,2.75,0,0,0-.32.25.54.54,0,0,0-.18.26.29.29,0,0,0,.1.28l.18.18.2.18.23.16a1.4,1.4,0,0,0,.27.12l.18,0,.2,0h.23l.25,0,.31-.07.32-.1.33-.11.34-.11.28.14.27.14.27.13.26.14,1,.51,1,.51,1,.53c.32.18.63.36.94.55l.11.06.1.05.1,0,.1,0a1.38,1.38,0,0,0,.57.07,1.67,1.67,0,0,0,.53-.15,3.55,3.55,0,0,0,.5-.29l.5-.35a2,2,0,0,0,.48-.43.46.46,0,0,0,.1-.36.57.57,0,0,0-.21-.31,2.47,2.47,0,0,0-.45-.29l-1.18-.65L122,70.57l-1.15-.67-1.15-.67-.5-.28-.43-.24-.38-.19-.34-.13Z"/><path class="cls-8" d="M98.54,137.78l-.2-.06-.18,0H98l-.13,0-.23.08-.23.11-.22.12-.22.13a24.18,24.18,0,0,0-2.62,1.71,3.09,3.09,0,0,0-1.12,1.32,1.29,1.29,0,0,0,.31,1.23,8,8,0,0,0,1.64,1.44l.22.18.21.19.23.17a1.31,1.31,0,0,0,.28.13l.13,0,.14,0h.32a2,2,0,0,0,.54-.26c.27-.16.6-.38,1-.64l1.19-.85,1.18-.89.95-2.17a7.3,7.3,0,0,0-.65-.59c-.25-.2-.51-.4-.79-.58a9.22,9.22,0,0,0-.82-.49,5.1,5.1,0,0,0-.75-.33Z"/><path class="cls-8" d="M94.5,81.8a2.23,2.23,0,0,0-.52,0,1.73,1.73,0,0,0-.41.12,2.25,2.25,0,0,0-.34.19l-.31.23a1.83,1.83,0,0,0-.32.29.59.59,0,0,0-.14.27.36.36,0,0,0,.05.25.83.83,0,0,0,.24.24l1.93,1.36,1.93,1.37,1.93,1.37,1.94,1.37.08.05.08,0,.09,0,.09,0,.23.05h.25l.27,0,.3-.11a2.27,2.27,0,0,0,.42-.25,1.32,1.32,0,0,0,.28-.28.73.73,0,0,0,.13-.3.53.53,0,0,0,0-.29,2,2,0,0,0-.14-.29,2.39,2.39,0,0,0-.19-.28,2.66,2.66,0,0,0-.51-.48l-1.56-1.1-1.57-1.09-1.57-1.09-1.58-1.08-.28-.18L95,82.09l-.27-.15-.24-.14Z"/><path class="cls-8" d="M105.85,78.3a1.44,1.44,0,0,0-.49-.08,1.7,1.7,0,0,0-.49.09,3.19,3.19,0,0,0-.52.23c-.18.1-.37.22-.57.35a5.29,5.29,0,0,0-.69.52,1.29,1.29,0,0,0-.35.48.5.5,0,0,0,0,.45,1.37,1.37,0,0,0,.51.43l1,.58,1,.59,1,.58,1,.57,0,0,0,0h.07a2,2,0,0,0,.91,0,4.67,4.67,0,0,0,1.07-.31,4.32,4.32,0,0,0,1-.54,1.65,1.65,0,0,0,.55-.66.5.5,0,0,0,0-.28.67.67,0,0,0-.15-.23,1.54,1.54,0,0,0-.24-.2l-.29-.18-1-.55-1-.54-1-.56c-.31-.19-.62-.38-.91-.58l-.14-.09-.13-.08-.13-.06-.13,0Z"/><path class="cls-8" d="M125.66,63.6h-.09a1.87,1.87,0,0,0-.5.11,2.37,2.37,0,0,0-.43.22,4.42,4.42,0,0,0-.39.28l-.36.29a.83.83,0,0,0-.27.33.4.4,0,0,0,0,.29.74.74,0,0,0,.18.26,2.15,2.15,0,0,0,.27.23l1.15.83,1.16.83,1.16.83,1.15.84.09.06.09.05.09,0,.09,0a1,1,0,0,0,.25.05,1.14,1.14,0,0,0,.27,0,1.52,1.52,0,0,0,.29-.08l.31-.14a5,5,0,0,1,.47-.22l.48-.22a1.81,1.81,0,0,0,.41-.27.77.77,0,0,0,.24-.37c0-.07-.3-.35-.8-.74s-1.18-.88-1.89-1.38-1.45-1-2.07-1.38a9,9,0,0,0-1.34-.75Z"/><path class="cls-8" d="M132.63,59.18a1.32,1.32,0,0,0-.87,0,2,2,0,0,0-.46.24,3.48,3.48,0,0,0-.49.4c-.12.12-.24.23-.37.34l-.41.33-.43.32-.43.32-.26.18a2,2,0,0,0-.24.19.3.3,0,0,0-.11.18c0,.06,0,.12.13.17l.91.49.94.47,1,.47,1,.48.14,0,.15,0,.14-.05.11-.07c.25-.2.52-.39.79-.58l.8-.58a8.57,8.57,0,0,0,.72-.6,3.48,3.48,0,0,0,.54-.62.26.26,0,0,0,0-.36,1.45,1.45,0,0,0-.48-.27l-.66-.24a3,3,0,0,1-.58-.26l-.21-.13-.22-.12-.21-.12-.2-.13-.16-.12-.16-.1-.16-.08-.16-.06Z"/><path class="cls-8" d="M83.12,86.71l-.1,0-.1,0-.1,0h-.09a2.42,2.42,0,0,0-.84.24c-.38.16-.84.39-1.29.63s-.9.51-1.25.74a3,3,0,0,0-.71.59c-.06.09,0,.24.12.42a3.69,3.69,0,0,0,.56.61,6.48,6.48,0,0,0,.79.6,3.72,3.72,0,0,0,.8.41l.12,0,.11,0h.2a4.22,4.22,0,0,0,1.21-.27,4.83,4.83,0,0,0,1-.53,10.16,10.16,0,0,0,.84-.66c.27-.23.53-.46.8-.67s.13-.26,0-.45a2.24,2.24,0,0,0-.47-.62,5,5,0,0,0-.77-.61,3.84,3.84,0,0,0-.84-.42Z"/><path class="cls-8" d="M84.44,139.9a1.43,1.43,0,0,0-.35-.07,1.49,1.49,0,0,0-.39,0,1.89,1.89,0,0,0-.43.15,2.89,2.89,0,0,0-.47.29c-.27.2-.58.39-.9.59s-.64.4-.92.61a3.45,3.45,0,0,0-.7.65,1,1,0,0,0-.24.71.67.67,0,0,0,0,.2.58.58,0,0,0,.1.16.64.64,0,0,0,.14.12l.18.08a1.36,1.36,0,0,0,.45.06,2.48,2.48,0,0,0,.54-.07,3.77,3.77,0,0,0,.61-.21,4.64,4.64,0,0,0,.64-.34.4.4,0,0,1,.14-.06l.18,0h.34l.11,0,.1,0,.09,0,.08,0h.07L84,143l.18.09.19.08.19.07a1.7,1.7,0,0,0,.41.09,1.4,1.4,0,0,0,.45,0,1.85,1.85,0,0,0,.5-.21,3.41,3.41,0,0,0,.57-.43,1.53,1.53,0,0,0,.51-.69.44.44,0,0,0-.14-.44,2.3,2.3,0,0,0-.47-.31,1.93,1.93,0,0,1-.45-.31,1,1,0,0,0-.17-.14l-.2-.12-.2-.12-.18-.13-.17-.14-.18-.13-.2-.11-.21-.09Z"/><path class="cls-8" d="M97.12,52.91l-.3-.06a1,1,0,0,0-.25,0,.7.7,0,0,0-.2.07.7.7,0,0,0-.17.12,1.05,1.05,0,0,0-.19.24.53.53,0,0,0-.07.23.42.42,0,0,0,0,.22.66.66,0,0,0,.16.2,2.67,2.67,0,0,0,.52.32l.59.3a1.51,1.51,0,0,1,.44.31.3.3,0,0,1,0,.37,1.12,1.12,0,0,0-.18.68.75.75,0,0,0,.25.46,2.53,2.53,0,0,0,.5.34c.19.1.38.21.56.32l.85.54.87.53.88.52.88.52.28.16a.72.72,0,0,1,.21.17.28.28,0,0,1,.05.23.76.76,0,0,1-.18.33,1.37,1.37,0,0,0-.31.57.54.54,0,0,0,.07.42,1,1,0,0,0,.35.3,2.88,2.88,0,0,0,.51.22l.28.09.28.08.26.07.23.07a1.39,1.39,0,0,0,.8,0,2.17,2.17,0,0,0,.7-.35c.22-.16.43-.34.64-.52a6,6,0,0,1,.63-.49,1.6,1.6,0,0,0,.55-.5.46.46,0,0,0,0-.43,1,1,0,0,0-.31-.37,4.56,4.56,0,0,0-.48-.33l-1.75-1.09-1.75-1.08-1.75-1.08-1.75-1.08-.73-.44-.73-.42-.71-.41-.67-.39Z"/><path class="cls-8" d="M75.17,74.88a1.29,1.29,0,0,0-.6-.05,2.6,2.6,0,0,0-.72.23,10.35,10.35,0,0,0-1,.52l-1.32.82-.43.27-.43.27-.44.26-.46.24a2.7,2.7,0,0,0-.49.3.58.58,0,0,0-.21.27.3.3,0,0,0,.05.26,1.08,1.08,0,0,0,.29.26l.1.06.1.05.11,0,.12,0,.28.08.3.06.31,0,.32,0,.32,0,.31,0,.3.06.28.08.25.1a1.33,1.33,0,0,1,.22.14,1,1,0,0,1,.18.18.92.92,0,0,1,.12.23,8.71,8.71,0,0,0,1.24-.48,9.66,9.66,0,0,0,1-.58c.32-.2.62-.41.91-.63l.87-.62a1,1,0,0,0,.39-.42.39.39,0,0,0,0-.35,1.25,1.25,0,0,0-.28-.31l-.34-.29-.52-.47-.44-.37a4,4,0,0,0-.39-.27,1.85,1.85,0,0,0-.36-.17Z"/><path class="cls-8" d="M94.82,61.8a1.42,1.42,0,0,0-.41-.07,1.61,1.61,0,0,0-.44.05,2.53,2.53,0,0,0-.49.18,4.62,4.62,0,0,0-.55.32c-.25.16-.48.31-.67.46a1.85,1.85,0,0,0-.44.42.41.41,0,0,0-.05.42,1.13,1.13,0,0,0,.49.44c.28.16.54.32.8.49l.77.52.76.52.77.52.1.06.1.05.11,0,.11,0a2.76,2.76,0,0,0,.87.13,3.67,3.67,0,0,0,.88-.11,2.91,2.91,0,0,0,.74-.29,1.19,1.19,0,0,0,.45-.41,2,2,0,0,0,.22-.51.7.7,0,0,0,0-.35.54.54,0,0,0-.13-.24,1.34,1.34,0,0,0-.21-.18l-.82-.57L97,63.19l-.83-.56-.82-.57L95.2,62l-.13-.07-.13-.06-.13,0Z"/><path class="cls-8" d="M85.22,68.77h-.16c-.33.11-.65.23-1,.36a8.5,8.5,0,0,0-.89.44,5.51,5.51,0,0,0-.77.53,3.7,3.7,0,0,0-.61.63c-.06.08,0,.27.23.5a7.22,7.22,0,0,0,.82.79,11.68,11.68,0,0,0,1,.79,4.32,4.32,0,0,0,.92.49l.07,0,.06,0h.11a7.78,7.78,0,0,0,1.77-.78,7.94,7.94,0,0,0,.77-.52,8.06,8.06,0,0,0,.68-.59c.06-.06-.05-.24-.27-.48a10.3,10.3,0,0,0-.89-.85c-.35-.3-.74-.61-1.08-.85a3.88,3.88,0,0,0-.83-.49Z"/></g><g class="cls-9"><polygon class="cls-4" points="253.46 75.4 245.47 71.4 216.09 95.49 245.97 107.33 253.46 75.4"/><polygon class="cls-4" points="202 49.64 190.17 85.22 211.34 93.61 241.31 69.31 202 49.64"/><path class="cls-5" d="M256.52,62.33,245.47,71.4l8,4,3.06-13.06Zm3.53-15-56-3.32h-.19L202,49.64l39.3,19.67,16.77-13.59,2-8.43Z"/><path class="cls-6" d="M190.77,184c-.23-.15-.47-.28-.71-.42l-.73-.41a7.43,7.43,0,0,1-.68-.44,3.61,3.61,0,0,1-.57-.52.55.55,0,0,1-.15-.54,1.2,1.2,0,0,1,.35-.5c.17-.16.37-.32.57-.48a3.9,3.9,0,0,0,.52-.48c.1-.12.2-.23.31-.34l.35-.32.36-.31.35-.32c.23-.22.45-.43.67-.63a4.36,4.36,0,0,1,.66-.5,1.91,1.91,0,0,1,.7-.26,1.67,1.67,0,0,1,.79.08l.18.07.19.09.19.11.2.13a2.94,2.94,0,0,1,.8.77,1.16,1.16,0,0,1,.19.78,1.78,1.78,0,0,1-.37.83,5.9,5.9,0,0,1-.89.93l-.52.48-.49.5-.49.5-.5.49-.25.24a2.46,2.46,0,0,1-.27.22,1.51,1.51,0,0,1-.33.18,1.49,1.49,0,0,1-.42.09Zm-12.88-9.61a4.91,4.91,0,0,1-.9-.43,8.61,8.61,0,0,1-.93-.64,5,5,0,0,1-.71-.66c-.17-.2-.26-.38-.24-.5a3.23,3.23,0,0,1,.63-.93c.34-.4.79-.87,1.25-1.31s.93-.86,1.32-1.17a2.3,2.3,0,0,1,.87-.51h.14a5.72,5.72,0,0,1,.83.41c.35.19.74.43,1.11.67s.71.48,1,.67.4.34.39.4a3.16,3.16,0,0,1-.65.91c-.36.41-.83.89-1.32,1.35s-1,.9-1.41,1.23a2.6,2.6,0,0,1-.91.55h-.2l-.11,0-.12,0Zm4,3.34a.47.47,0,0,1-.28-.2.36.36,0,0,1,0-.29,1.28,1.28,0,0,1,.21-.36,4.06,4.06,0,0,1,.37-.41l2.26-2.26,2.23-2.25,2.2-2.24,2.18-2.22a4,4,0,0,1,.43-.39,2.06,2.06,0,0,1,.45-.27,1.35,1.35,0,0,1,1,0h.12l.45.2a1.41,1.41,0,0,1,.36.25.55.55,0,0,1,.17.34.86.86,0,0,1-.13.49,11.94,11.94,0,0,1-1.37,2.88,20,20,0,0,1-2.05,2.63c-.77.85-1.61,1.67-2.47,2.48s-1.76,1.61-2.63,2.42a2.67,2.67,0,0,1-.39.3,1.43,1.43,0,0,1-.35.16,1,1,0,0,1-.31,0A1,1,0,0,1,184,179l-.22-.1-.21-.14-.2-.16-.2-.18-.21-.18-.21-.17-.22-.14-.24-.1H182l-.05,0ZM171,171.07l-.84-.52-.87-.53-.86-.56c-.28-.19-.56-.39-.83-.6a.36.36,0,0,1-.15-.29.7.7,0,0,1,.11-.35,2.4,2.4,0,0,1,.28-.37c.11-.12.24-.25.36-.36l2.33-2.19,2.31-2.18,2.29-2.16,2.27-2.15a3.55,3.55,0,0,1,.49-.4,2.31,2.31,0,0,1,.5-.26,1.64,1.64,0,0,1,.51-.1,1.49,1.49,0,0,1,.51.08l.06,0,.06,0,.06,0,.06,0a.8.8,0,0,1,.38.33.52.52,0,0,1,0,.39,1.35,1.35,0,0,1-.23.42,3.94,3.94,0,0,1-.39.43l-.94.9-.95.9-1,.9-1,.9a4.67,4.67,0,0,0-.57.62,1.39,1.39,0,0,0-.27.57.62.62,0,0,0,.13.5,1.5,1.5,0,0,0,.64.42,1.65,1.65,0,0,1,.55.33.59.59,0,0,1,.2.4.87.87,0,0,1-.15.48,2.84,2.84,0,0,1-.48.57l-.83.8-.83.81-.84.81-.85.8-.23.23a1.69,1.69,0,0,1-.27.22,1,1,0,0,1-.35.14,1.17,1.17,0,0,1-.48,0Zm39.1-16h0l-.87-.32a4.14,4.14,0,0,1-.78-.4,1.58,1.58,0,0,1-.53-.57,1.38,1.38,0,0,1-.12-.84,2.17,2.17,0,0,1,.6-.9,12.68,12.68,0,0,1,1.27-1.15,13.39,13.39,0,0,1,1.38-1,2.3,2.3,0,0,1,1-.4h.11l.06,0,.06,0a3.76,3.76,0,0,1,.76.39,8.28,8.28,0,0,1,.84.61,5.29,5.29,0,0,1,.66.63c.16.19.25.35.21.44a3.26,3.26,0,0,1-.73.77c-.41.36-.94.78-1.48,1.19s-1.09.79-1.53,1.07-.77.44-.87.41ZM197.49,154l-.06,0-.07,0-.07,0-.07,0a1.61,1.61,0,0,1-.73-.53.6.6,0,0,1-.05-.56,2,2,0,0,1,.39-.59c.17-.2.38-.41.58-.62l1.41-1.47,1.4-1.46,1.39-1.46,1.36-1.46a4.27,4.27,0,0,1,.44-.42,1.92,1.92,0,0,1,.41-.27,1.11,1.11,0,0,1,.41-.11,1.1,1.1,0,0,1,.42.06l.14.06.15.08.15.09.16.11a3.43,3.43,0,0,0,.45.29l.51.25.53.23.52.24.29.15a.9.9,0,0,1,.24.2.53.53,0,0,1,.12.29,1,1,0,0,1-.07.43l-.88.9-.93.94-1,1-1,1-.11.06-.16,0-.17,0-.13,0h0l-.16-.09-.15-.07L203,151l-.14-.05a1.66,1.66,0,0,0-1-.05,1.88,1.88,0,0,0-.76.44,6.58,6.58,0,0,0-.64.69,8.58,8.58,0,0,1-.63.71c-.17.17-.33.35-.49.53a3.77,3.77,0,0,1-.5.48,1.38,1.38,0,0,1-.6.28,1.63,1.63,0,0,1-.81-.08Zm-7.83-4.27a1.31,1.31,0,0,1-.46-.24.61.61,0,0,1-.2-.33.63.63,0,0,1,.06-.39,1.43,1.43,0,0,1,.33-.43q1-.91,2-1.81l2-1.78,2-1.75,2-1.74a1.53,1.53,0,0,1,.35-.24,1.2,1.2,0,0,1,.35-.11,1.34,1.34,0,0,1,.36,0,2,2,0,0,1,.37.09h.11l0,0a11.18,11.18,0,0,1,1.81.84c.41.26.63.52.66.82a1.58,1.58,0,0,1-.48,1.06,15.59,15.59,0,0,1-1.61,1.58l-.44.39-.44.39-.44.4-.44.4a2.59,2.59,0,0,1-.3.23,2.19,2.19,0,0,1-.33.18,1.29,1.29,0,0,1-.33.1.66.66,0,0,1-.3,0h0l0,0,0,0,0,0-.2-.15-.2-.12-.19-.1-.18-.07a1.48,1.48,0,0,0-.85,0,2.22,2.22,0,0,0-.75.37,7.16,7.16,0,0,0-.69.59c-.23.21-.45.43-.69.62s-.33.28-.48.42-.31.29-.48.42a3.31,3.31,0,0,1-.52.35,2.23,2.23,0,0,1-.61.22l-.15,0-.14,0-.13,0-.12,0Zm-.28-7.15a1.78,1.78,0,0,1-.48-.25c-.15-.11-.29-.23-.44-.36s-.29-.25-.44-.37a2,2,0,0,0-.48-.27.7.7,0,0,1-.38-.28.46.46,0,0,1,0-.37,1.28,1.28,0,0,1,.22-.41,3.32,3.32,0,0,1,.39-.42l.71-.65.71-.64.7-.65.68-.65a3.49,3.49,0,0,1,.39-.34,1.76,1.76,0,0,1,.39-.22,1.2,1.2,0,0,1,.41-.08,1.31,1.31,0,0,1,.44.07l.06,0,.06,0,.06,0,.06,0,.74.35a6.7,6.7,0,0,1,.7.39,3,3,0,0,1,.59.49,2,2,0,0,1,.4.65c-.37.33-.72.67-1.07,1l-1,1c-.34.32-.69.64-1.05.93a9.09,9.09,0,0,1-1.15.79,2.12,2.12,0,0,1-.34.16,1.46,1.46,0,0,1-.31.08,1.17,1.17,0,0,1-.54-.05Zm34,10.11a2.2,2.2,0,0,1-.53-.27,5.06,5.06,0,0,1-.49-.38l-.47-.41a4.74,4.74,0,0,0-.47-.36.61.61,0,0,1-.3-.38.52.52,0,0,1,.11-.38,2.28,2.28,0,0,1,.34-.37l.4-.36.42-.4.41-.41.41-.41.42-.4c.15-.14.3-.31.45-.48s.3-.35.46-.5a1.91,1.91,0,0,1,.49-.36.8.8,0,0,1,.54-.06l.09,0,.09,0,.09,0,.09,0a4.68,4.68,0,0,1,.69.29,4.86,4.86,0,0,1,1.17.85,4.85,4.85,0,0,1,.46.53.23.23,0,0,1,0,.11.86.86,0,0,1,0,.15c0,.06,0,.13,0,.21s0,.17,0,.27c-.28.26-.56.55-.84.85s-.57.61-.88.91a11.18,11.18,0,0,1-1,.86,6.34,6.34,0,0,1-1.08.7,1.83,1.83,0,0,1-.32.13,1.44,1.44,0,0,1-.3.05,1.38,1.38,0,0,1-.29,0l-.27-.06Zm-45.41-13.43-.14-.06-.13-.08-.12-.1-.1-.11a.31.31,0,0,1-.09-.25.45.45,0,0,1,.13-.23,2.07,2.07,0,0,1,.24-.21L178,138l1.37-1.22,1.37-1.22,1.36-1.21,1.35-1.21a4.66,4.66,0,0,1,.54-.42,2.68,2.68,0,0,1,.53-.27,1.71,1.71,0,0,1,.52-.11,1.44,1.44,0,0,1,.51.07l.17.07.17.09.16.11.16.13a3.13,3.13,0,0,0,.53.37l.58.33a2.51,2.51,0,0,1,.51.39,1.19,1.19,0,0,1,.31.54l-.24.26-.23.24-.22.23-.22.22-.82.75-.83.75-.83.76-.81.77c-.2.19-.4.38-.6.54a4,4,0,0,1-.6.42,1.88,1.88,0,0,1-.61.22,1.31,1.31,0,0,1-.63-.05l-.18-.07-.18-.1-.19-.13-.19-.16-.09-.08-.09-.06-.09,0-.1,0a1.08,1.08,0,0,0-.37-.05,1.82,1.82,0,0,0-.4.06,3.78,3.78,0,0,0-.42.14l-.44.18-.23.08-.21,0h-.19l-.17,0Zm11.36-23.74-9.24.11-2.92,8.77.42.23.42.23.42.23.43.23a1.41,1.41,0,0,1,.39.28.5.5,0,0,1,.14.31.63.63,0,0,1-.11.36,2,2,0,0,1-.37.41,3.38,3.38,0,0,1-.39.31,2,2,0,0,1-.4.21,1.29,1.29,0,0,1-.4.09,1.12,1.12,0,0,1-.41-.06l-.08,0-.07,0-.08,0-.08,0-.15-.1-.15-.1-.15-.1-.16-.09L165.64,159l1.33-1.23,1.32-1.22,1.32-1.22,1.31-1.21.3-.27.31-.26.32-.25.34-.23a1.71,1.71,0,0,1,.37-.17,1.47,1.47,0,0,1,.7-.06,1.9,1.9,0,0,1,.32.08l.08,0,.07,0,.07,0,.07,0,.25.14a.68.68,0,0,1,.19.18.49.49,0,0,1,.08.27,1,1,0,0,1-.08.38l-.14.17-.17.21-.2.23-.23.24-.95,1-.95,1-1,.95c-.33.31-.66.63-1,.93s-.45.4-.62.59a1.65,1.65,0,0,0-.35.53.51.51,0,0,0,.06.48,1.42,1.42,0,0,0,.61.44.65.65,0,0,1,.23.17.54.54,0,0,1,.12.24.51.51,0,0,1,0,.27.65.65,0,0,1-.18.26c-.4.36-.78.74-1.14,1.13l-1.09,1.17c-.37.39-.74.77-1.14,1.14a11.16,11.16,0,0,1-1.31,1,2.5,2.5,0,0,1-.4.22,1.58,1.58,0,0,1-.35.11,1.2,1.2,0,0,1-.31,0,1.22,1.22,0,0,1-.28-.06l-.08,0-.08,0-.07,0-.07,0-4.51,13.57a2.77,2.77,0,0,1,.85.87,1.07,1.07,0,0,1,.06.91,3.4,3.4,0,0,1-.76,1.1,18.49,18.49,0,0,1-1.6,1.46l-1.49,4.5,41.73-.08a3.69,3.69,0,0,1-.67-.32,5.07,5.07,0,0,1-.59-.41c-.19-.15-.36-.31-.53-.47l-.51-.48a.79.79,0,0,1-.29-.54.86.86,0,0,1,.17-.52,3.12,3.12,0,0,1,.44-.5l.53-.49.46-.46.46-.46.47-.45a6.36,6.36,0,0,1,.5-.41,4.1,4.1,0,0,0,.65-.63c.21-.24.4-.48.61-.7a2.37,2.37,0,0,1,.65-.52,1.07,1.07,0,0,1,.77-.08l.06,0,.06,0,.06,0,.06,0a4.48,4.48,0,0,1,.87.4,7.68,7.68,0,0,1,.78.54l.74.6c.25.2.49.4.75.58a.22.22,0,0,1,.07.09.47.47,0,0,1,0,.12s0,.08,0,.12a.56.56,0,0,0,0,.1,3.71,3.71,0,0,1-.64.79c-.37.4-.88.9-1.41,1.42s-1.11,1.06-1.63,1.52-1,.86-1.28,1.08l27.54-.06h.17l.06,0h0l8.14-34.74-.52.54-.52.53-.54.51c-.19.17-.38.33-.58.48a4.76,4.76,0,0,0-.73.76,10.54,10.54,0,0,1-.72.83,2.23,2.23,0,0,1-.87.57,1.83,1.83,0,0,1-1.17,0l-.17-.06-.18-.08-.19-.09-.19-.11h-.06a.57.57,0,0,0-.39,0,2.25,2.25,0,0,0-.46.27c-.16.12-.32.25-.47.39l-.42.39-.57.56-.55.57-.55.57-.57.57-.34.32a2.4,2.4,0,0,1-.35.27,1.07,1.07,0,0,1-.38.16.86.86,0,0,1-.43,0l-.1,0-.11-.05-.11-.07-.12-.08a2.9,2.9,0,0,1-.43-.39.8.8,0,0,1-.2-.39.7.7,0,0,1,.09-.44,2.26,2.26,0,0,1,.44-.55l2.17-2.08,2.14-2.07L229,153.5l2.1-2.05a3,3,0,0,1,.31-.27,1.54,1.54,0,0,1,.31-.18.9.9,0,0,1,.3-.07.84.84,0,0,1,.31,0l.09,0,.09,0,.09.06.1.07a4.87,4.87,0,0,0,.65.4l.71.37a4.58,4.58,0,0,1,.66.42,2.17,2.17,0,0,1,.52.57l1.82-7.78-47.8-29.68Zm52.13,11.21c-.14.14-.27.27-.39.41a1.66,1.66,0,0,0-.26.41.6.6,0,0,0,0,.41.77.77,0,0,0,.31.39l.38-1.62Zm-24.22-6a5.4,5.4,0,0,1-1-.49,11.29,11.29,0,0,1-1.09-.75,6.93,6.93,0,0,1-.85-.76c-.21-.23-.32-.42-.29-.54a2.76,2.76,0,0,1,.58-.85,13.53,13.53,0,0,1,1.11-1.09,12,12,0,0,1,1.18-.92,1.7,1.7,0,0,1,.79-.37h.14l.08,0,.08,0a5.41,5.41,0,0,1,1,.48,11.42,11.42,0,0,1,1.08.74,7,7,0,0,1,.85.76c.21.23.33.42.3.53a2.7,2.7,0,0,1-.57.85,13.12,13.12,0,0,1-1.1,1.09,11.94,11.94,0,0,1-1.18.93,1.71,1.71,0,0,1-.8.37h-.07l-.07,0-.08,0-.08,0Zm-14.67-6.22-.15-.06-.14-.06-.14-.07-.13-.07-.42-.24-.41-.25-.42-.24a4.15,4.15,0,0,0-.45-.2,2.27,2.27,0,0,1-.84-.49.67.67,0,0,1-.21-.56,1.28,1.28,0,0,1,.31-.63,4.89,4.89,0,0,1,.73-.69l.26-.22.25-.23.26-.23.27-.22a3.16,3.16,0,0,0,.54-.54c.16-.2.32-.41.49-.59a2,2,0,0,1,.59-.46,1.62,1.62,0,0,1,.84-.15l.3,0,.28,0,.27.07.26.08a5.86,5.86,0,0,1,.67.27c.21.1.42.21.63.33l.61.36.6.35a.32.32,0,0,1,.1.1.71.71,0,0,1,.07.14l.06.17a1.66,1.66,0,0,0,.07.18l-1,1-1,1-1.06,1q-.54.5-1.1,1a.73.73,0,0,1-.21.13.76.76,0,0,1-.23,0h-.24l-.24-.06Zm27.38,13.73c-.26-.09-.53-.19-.79-.31a7,7,0,0,1-.72-.37,3.27,3.27,0,0,1-.53-.39.72.72,0,0,1-.24-.35.65.65,0,0,1,0-.34,1.08,1.08,0,0,1,.18-.3,2.84,2.84,0,0,1,.26-.28l.28-.27,2.1-2,2.09-2,2.07-2,2-2a4.44,4.44,0,0,1,.47-.41,2.17,2.17,0,0,1,.49-.28,1.55,1.55,0,0,1,.54-.11,1.86,1.86,0,0,1,.62.09h.13a2.22,2.22,0,0,1,.31.12.83.83,0,0,1,.24.17.49.49,0,0,1,.12.26.79.79,0,0,1,0,.37l-.14.17-.16.19-.18.2-.19.2-.87.87-.88.87-.88.88-.89.88c-.23.23-.49.45-.73.67a3.55,3.55,0,0,0-.6.67,1,1,0,0,0-.16.72,1.51,1.51,0,0,0,.58.82c.13.11.06.36-.12.69a7,7,0,0,1-.84,1.13,10.85,10.85,0,0,1-1.13,1.11,3.21,3.21,0,0,1-1,.62,1,1,0,0,1-.27,0l-.34,0-.4-.08-.43-.13Zm-7.14-3.94a2.89,2.89,0,0,1-.44-.19,3.71,3.71,0,0,1-.44-.28,4.71,4.71,0,0,1-.44-.36c-.15-.14-.29-.28-.44-.45a.61.61,0,0,1-.17-.34.47.47,0,0,1,.08-.29,1.32,1.32,0,0,1,.22-.26l.28-.25,2.39-2.2,2.38-2.18,2.37-2.16,2.35-2.13.3-.28a2.32,2.32,0,0,1,.33-.26,1,1,0,0,1,.37-.15.86.86,0,0,1,.43,0l.06,0,.07,0,.07,0,.07,0,.41.23a4.51,4.51,0,0,1,.4.24,1.42,1.42,0,0,1,.32.29.88.88,0,0,1,.18.4l-.19.17-.18.16-.18.16-.18.16-1.06,1-1.07,1-1.07,1-1.08,1-.59.51a2.53,2.53,0,0,0-.46.51.64.64,0,0,0-.1.54,1.16,1.16,0,0,0,.51.58.38.38,0,0,1,.16.2.36.36,0,0,1,0,.22.9.9,0,0,1-.13.23,2.33,2.33,0,0,1-.19.23l-.33.35-.34.35-.35.34-.36.33a10.11,10.11,0,0,1-1.11.88,5.11,5.11,0,0,1-1,.54,3,3,0,0,1-.95.21,2.46,2.46,0,0,1-.89-.13Zm-6.7-28.73-21,17.19,43.31,26.78,2.14-9.15-.7.7-.73.68-.76.67-.78.66-.08,0-.11,0-.15,0-.18,0c-.26-.16-.54-.31-.83-.46l-.86-.46c-.28-.16-.56-.32-.82-.5a5,5,0,0,1-.71-.58.48.48,0,0,1-.16-.48,1.06,1.06,0,0,1,.32-.46,6.25,6.25,0,0,1,.54-.44,6.36,6.36,0,0,0,.52-.42l1.73-1.66,1.73-1.65,1.73-1.63,1.72-1.62.1-.1.1-.09.1-.09.1-.09L246,107.33,216.09,95.49ZM190.17,85.22l-8.59,25.85,8.32-.08,21.44-17.38-21.17-8.39Z"/><polygon class="cls-2" points="257.8 56.88 190.62 111.45 190.23 111.77 189.71 111.78 181.31 111.86 180.34 114.78 189.51 114.67 189.85 114.67 190.09 114.82 237.35 144.14 238.21 140.46 194.37 113.33 193.62 112.87 194.41 112.22 256.8 61.15 257.8 56.88 257.8 56.88"/><polygon class="cls-7" points="189.85 114.67 189.51 114.67 180.34 114.78 180.07 115.59 189.31 115.47 237.11 145.15 237.35 144.14 190.09 114.82 189.85 114.67 189.85 114.67"/><polygon class="cls-7" points="256.8 61.15 194.41 112.22 193.62 112.87 194.37 113.33 238.21 140.46 238.44 139.46 195.14 112.68 256.52 62.33 256.8 61.15 256.8 61.15"/><polygon class="cls-7" points="258.07 55.72 241.31 69.31 211.34 93.61 189.9 110.98 181.57 111.07 181.31 111.86 189.71 111.78 190.23 111.77 190.62 111.45 257.8 56.88 258.07 55.72 258.07 55.72"/><path class="cls-8" d="M173.58,152.95a1.9,1.9,0,0,0-.32-.08,1.47,1.47,0,0,0-.7.06,1.71,1.71,0,0,0-.37.17l-.34.23-.32.25-.31.26-.3.27-1.31,1.21-1.32,1.22L167,157.76,165.64,159l-2.42,7.28.07,0,.07,0,.08,0,.08,0a1.22,1.22,0,0,0,.28.06,1.2,1.2,0,0,0,.31,0,1.58,1.58,0,0,0,.35-.11,2.5,2.5,0,0,0,.4-.22,11.16,11.16,0,0,0,1.31-1c.4-.37.78-.75,1.14-1.14l1.09-1.17c.37-.39.74-.77,1.14-1.13a.65.65,0,0,0,.18-.26.51.51,0,0,0,0-.27.54.54,0,0,0-.12-.24.65.65,0,0,0-.23-.17,1.42,1.42,0,0,1-.61-.44.51.51,0,0,1-.06-.48,1.65,1.65,0,0,1,.35-.53c.17-.19.38-.38.62-.59s.68-.62,1-.93l1-.95.95-1,.95-1,.23-.24.2-.23.17-.21.14-.17a1,1,0,0,0,.08-.38.49.49,0,0,0-.08-.27.68.68,0,0,0-.19-.18l-.25-.14-.07,0-.07,0-.07,0-.08,0Z"/><path class="cls-8" d="M232.37,151a.84.84,0,0,0-.31,0,.9.9,0,0,0-.3.07,1.54,1.54,0,0,0-.31.18,3,3,0,0,0-.31.27L229,153.5l-2.12,2.06-2.14,2.07-2.17,2.08a2.26,2.26,0,0,0-.44.55.7.7,0,0,0-.09.44.8.8,0,0,0,.2.39,2.9,2.9,0,0,0,.43.39l.12.08.11.07.11.05.1,0a.86.86,0,0,0,.43,0,1.07,1.07,0,0,0,.38-.16,2.4,2.4,0,0,0,.35-.27l.34-.32.57-.57.55-.57.55-.57.57-.56.42-.39c.15-.14.31-.27.47-.39a2.25,2.25,0,0,1,.46-.27.57.57,0,0,1,.39,0h.06l.19.11.19.09.18.08.17.06a1.83,1.83,0,0,0,1.17,0,2.23,2.23,0,0,0,.87-.57,10.54,10.54,0,0,0,.72-.83,4.76,4.76,0,0,1,.73-.76c.2-.15.39-.31.58-.48l.54-.51.52-.53.52-.54.21-.9a2.17,2.17,0,0,0-.52-.57,4.58,4.58,0,0,0-.66-.42l-.71-.37a4.87,4.87,0,0,1-.65-.4l-.1-.07-.09-.06-.09,0-.09,0Z"/><path class="cls-8" d="M179.44,158.11a1.49,1.49,0,0,0-.51-.08,1.64,1.64,0,0,0-.51.1,2.31,2.31,0,0,0-.5.26,3.55,3.55,0,0,0-.49.4l-2.27,2.15-2.29,2.16-2.31,2.18-2.33,2.19c-.12.11-.25.24-.36.36a2.4,2.4,0,0,0-.28.37.7.7,0,0,0-.11.35.36.36,0,0,0,.15.29c.26.21.54.41.83.6l.86.56.87.53.84.52a1.17,1.17,0,0,0,.48,0,1,1,0,0,0,.35-.14,1.69,1.69,0,0,0,.27-.22l.23-.23.85-.8.84-.81.83-.81.83-.8a2.84,2.84,0,0,0,.48-.57.87.87,0,0,0,.15-.48.59.59,0,0,0-.2-.4,1.65,1.65,0,0,0-.55-.33,1.5,1.5,0,0,1-.64-.42.62.62,0,0,1-.13-.5,1.39,1.39,0,0,1,.27-.57,4.67,4.67,0,0,1,.57-.62l1-.9,1-.9.95-.9.94-.9a3.94,3.94,0,0,0,.39-.43,1.35,1.35,0,0,0,.23-.42.52.52,0,0,0,0-.39.8.8,0,0,0-.38-.33l-.06,0-.06,0-.06,0-.06,0Z"/><path class="cls-8" d="M192.94,166.81a1.35,1.35,0,0,0-1,0,2.06,2.06,0,0,0-.45.27,4,4,0,0,0-.43.39l-2.18,2.22-2.2,2.24-2.23,2.25-2.26,2.26a4.06,4.06,0,0,0-.37.41,1.28,1.28,0,0,0-.21.36.36.36,0,0,0,0,.29.47.47,0,0,0,.28.2l.05,0h.37l.24.1.22.14.21.17.21.18.2.18.2.16.21.14.22.1a1,1,0,0,0,.28.05,1,1,0,0,0,.31,0,1.43,1.43,0,0,0,.35-.16,2.67,2.67,0,0,0,.39-.3c.87-.81,1.76-1.61,2.63-2.42s1.7-1.63,2.47-2.48a20,20,0,0,0,2.05-2.63,11.94,11.94,0,0,0,1.37-2.88.86.86,0,0,0,.13-.49.55.55,0,0,0-.17-.34,1.41,1.41,0,0,0-.36-.25l-.45-.2h-.12Z"/><path class="cls-8" d="M158.71,179.84l-1.44,4.34a18.49,18.49,0,0,0,1.6-1.46,3.4,3.4,0,0,0,.76-1.1,1.07,1.07,0,0,0-.06-.91,2.77,2.77,0,0,0-.85-.87Z"/><path class="cls-8" d="M204.65,145a1.1,1.1,0,0,0-.42-.06,1.11,1.11,0,0,0-.41.11,1.92,1.92,0,0,0-.41.27,4.27,4.27,0,0,0-.44.42l-1.36,1.46-1.39,1.46-1.4,1.46-1.41,1.47c-.2.21-.41.42-.58.62a2,2,0,0,0-.39.59.6.6,0,0,0,.05.56,1.61,1.61,0,0,0,.73.53l.07,0,.07,0,.07,0,.06,0a1.63,1.63,0,0,0,.81.08,1.38,1.38,0,0,0,.6-.28,3.77,3.77,0,0,0,.5-.48c.16-.18.31-.36.49-.53a8.58,8.58,0,0,0,.63-.71,6.58,6.58,0,0,1,.64-.69,1.88,1.88,0,0,1,.76-.44,1.66,1.66,0,0,1,1,.05l.14.05.15.06.15.07.16.09h0l.13,0,.17,0,.16,0,.11-.06,1-1,1-1,.93-.94.88-.9a1,1,0,0,0,.07-.43.53.53,0,0,0-.12-.29.9.9,0,0,0-.24-.2l-.29-.15-.52-.24-.53-.23-.51-.25a3.43,3.43,0,0,1-.45-.29l-.16-.11-.15-.09-.15-.08-.14-.06Z"/><path class="cls-8" d="M198.71,141a2,2,0,0,0-.37-.09,1.34,1.34,0,0,0-.36,0,1.2,1.2,0,0,0-.35.11,1.53,1.53,0,0,0-.35.24l-2,1.74-2,1.75-2,1.78q-1,.9-2,1.81a1.43,1.43,0,0,0-.33.43.63.63,0,0,0-.06.39.61.61,0,0,0,.2.33,1.31,1.31,0,0,0,.46.24l.12,0,.13,0,.14,0,.15,0a2.23,2.23,0,0,0,.61-.22,3.31,3.31,0,0,0,.52-.35c.16-.13.32-.27.48-.42s.32-.29.48-.42.46-.41.69-.62a7.16,7.16,0,0,1,.69-.59,2.22,2.22,0,0,1,.75-.37,1.48,1.48,0,0,1,.85,0l.18.07.19.1.2.12.2.15,0,0,0,0,0,0h0a.66.66,0,0,0,.3,0,1.29,1.29,0,0,0,.33-.1,2.19,2.19,0,0,0,.33-.18,2.59,2.59,0,0,0,.3-.23l.44-.4.44-.4.44-.39.44-.39a15.59,15.59,0,0,0,1.61-1.58,1.58,1.58,0,0,0,.48-1.06c0-.3-.25-.56-.66-.82a11.18,11.18,0,0,0-1.81-.84l0,0h-.11Z"/><path class="cls-8" d="M185.54,132.39a1.44,1.44,0,0,0-.51-.07,1.71,1.71,0,0,0-.52.11,2.68,2.68,0,0,0-.53.27,4.66,4.66,0,0,0-.54.42l-1.35,1.21-1.36,1.21-1.37,1.22L178,138l-.26.21a2.07,2.07,0,0,0-.24.21.45.45,0,0,0-.13.23.31.31,0,0,0,.09.25l.1.11.12.1.13.08.14.06.17,0h.19l.21,0,.23-.08.44-.18a3.78,3.78,0,0,1,.42-.14,1.82,1.82,0,0,1,.4-.06,1.08,1.08,0,0,1,.37.05l.1,0,.09,0,.09.06.09.08.19.16.19.13.18.1.18.07a1.31,1.31,0,0,0,.63.05,1.88,1.88,0,0,0,.61-.22,4,4,0,0,0,.6-.42c.2-.16.4-.35.6-.54l.81-.77.83-.76.83-.75.82-.75.22-.22.22-.23.23-.24.24-.26a1.19,1.19,0,0,0-.31-.54,2.51,2.51,0,0,0-.51-.39l-.58-.33a3.13,3.13,0,0,1-.53-.37l-.16-.13-.16-.11-.17-.09-.17-.07Z"/><path class="cls-8" d="M200.85,181.23l-.06,0-.06,0-.06,0-.06,0a1.07,1.07,0,0,0-.77.08,2.37,2.37,0,0,0-.65.52c-.21.22-.4.46-.61.7a4.1,4.1,0,0,1-.65.63,6.36,6.36,0,0,0-.5.41l-.47.45-.46.46-.46.46-.53.49a3.12,3.12,0,0,0-.44.5.86.86,0,0,0-.17.52.79.79,0,0,0,.29.54l.51.48c.17.16.35.32.53.47a5.07,5.07,0,0,0,.59.41,3.69,3.69,0,0,0,.67.32h1.67c.3-.23.76-.62,1.28-1.08s1.09-1,1.63-1.52,1-1,1.41-1.42a3.71,3.71,0,0,0,.64-.79.56.56,0,0,1,0-.1s0-.08,0-.12a.47.47,0,0,0,0-.12.22.22,0,0,0-.07-.09c-.26-.18-.5-.38-.75-.58l-.74-.6a7.68,7.68,0,0,0-.78-.54,4.48,4.48,0,0,0-.87-.4Z"/><path class="cls-8" d="M177.16,124.36l-.77,2.31.16.09.15.1.15.1.15.1.08,0,.08,0,.07,0,.08,0a1.12,1.12,0,0,0,.41.06,1.29,1.29,0,0,0,.4-.09,2,2,0,0,0,.4-.21,3.38,3.38,0,0,0,.39-.31,2,2,0,0,0,.37-.41.63.63,0,0,0,.11-.36.5.5,0,0,0-.14-.31,1.41,1.41,0,0,0-.39-.28l-.43-.23-.42-.23-.42-.23-.42-.23Z"/><path class="cls-8" d="M192.2,136.65a1.31,1.31,0,0,0-.44-.07,1.2,1.2,0,0,0-.41.08,1.76,1.76,0,0,0-.39.22,3.49,3.49,0,0,0-.39.34l-.68.65-.7.65-.71.64-.71.65a3.32,3.32,0,0,0-.39.42,1.28,1.28,0,0,0-.22.41.46.46,0,0,0,0,.37.7.7,0,0,0,.38.28,2,2,0,0,1,.48.27c.15.11.3.24.44.37s.29.25.44.36a1.78,1.78,0,0,0,.48.25,1.17,1.17,0,0,0,.54.05,1.46,1.46,0,0,0,.31-.08,2.12,2.12,0,0,0,.34-.16,9.09,9.09,0,0,0,1.15-.79c.36-.29.71-.6,1.05-.93l1-1c.34-.34.7-.68,1.07-1a2,2,0,0,0-.4-.65,3,3,0,0,0-.59-.49,6.7,6.7,0,0,0-.7-.39l-.74-.35-.06,0-.06,0-.06,0-.06,0Z"/><path class="cls-8" d="M225.92,146.81l-.09,0-.09,0-.09,0-.09,0a.8.8,0,0,0-.54.06,1.91,1.91,0,0,0-.49.36c-.16.15-.31.33-.46.5s-.3.34-.45.48l-.42.4-.41.41-.41.41-.42.4-.4.36a2.28,2.28,0,0,0-.34.37.52.52,0,0,0-.11.38.61.61,0,0,0,.3.38,4.74,4.74,0,0,1,.47.36l.47.41a5.06,5.06,0,0,0,.49.38,2.2,2.2,0,0,0,.53.27l.27.06a1.38,1.38,0,0,0,.29,0,1.44,1.44,0,0,0,.3-.05,1.83,1.83,0,0,0,.32-.13,6.34,6.34,0,0,0,1.08-.7,11.18,11.18,0,0,0,1-.86c.3-.3.59-.61.88-.91s.56-.59.84-.85c0-.1,0-.19,0-.27s0-.15,0-.21a.86.86,0,0,0,0-.15.23.23,0,0,0,0-.11,4.85,4.85,0,0,0-.46-.53,4.86,4.86,0,0,0-1.17-.85,4.68,4.68,0,0,0-.69-.29Z"/><path class="cls-8" d="M179.33,168.27h-.14a2.3,2.3,0,0,0-.87.51c-.39.31-.87.72-1.32,1.17s-.91.91-1.25,1.31a3.23,3.23,0,0,0-.63.93c0,.12.06.3.24.5a5,5,0,0,0,.71.66,8.61,8.61,0,0,0,.93.64,4.91,4.91,0,0,0,.9.43l.12,0,.11,0h.2a2.6,2.6,0,0,0,.91-.55c.42-.33.92-.77,1.41-1.23s1-.94,1.32-1.35a3.16,3.16,0,0,0,.65-.91c0-.06-.14-.2-.39-.4s-.59-.43-1-.67-.76-.48-1.11-.67a5.72,5.72,0,0,0-.83-.41Z"/><path class="cls-8" d="M193.54,177.6a1.67,1.67,0,0,0-.79-.08,1.91,1.91,0,0,0-.7.26,4.36,4.36,0,0,0-.66.5c-.22.19-.44.41-.67.63l-.35.32-.36.31-.35.32c-.11.11-.22.22-.31.34a3.9,3.9,0,0,1-.52.48c-.2.16-.4.32-.57.48a1.2,1.2,0,0,0-.35.5.55.55,0,0,0,.15.54,3.61,3.61,0,0,0,.57.52,7.43,7.43,0,0,0,.68.44l.73.41c.24.14.48.27.71.42a1.49,1.49,0,0,0,.42-.09,1.51,1.51,0,0,0,.33-.18,2.46,2.46,0,0,0,.27-.22l.25-.24.5-.49.49-.5.49-.5.52-.48a5.9,5.9,0,0,0,.89-.93,1.78,1.78,0,0,0,.37-.83,1.16,1.16,0,0,0-.19-.78,2.94,2.94,0,0,0-.8-.77l-.2-.13-.19-.11-.19-.09-.18-.07Z"/><path class="cls-8" d="M212.24,149.54l-.06,0-.06,0H212a2.3,2.3,0,0,0-1,.4,13.39,13.39,0,0,0-1.38,1A12.68,12.68,0,0,0,208.4,152a2.17,2.17,0,0,0-.6.9,1.38,1.38,0,0,0,.12.84,1.58,1.58,0,0,0,.53.57,4.14,4.14,0,0,0,.78.4l.87.32h0c.1,0,.43-.13.87-.41s1-.66,1.53-1.07,1.07-.83,1.48-1.19a3.26,3.26,0,0,0,.73-.77c0-.09-.05-.25-.21-.44a5.29,5.29,0,0,0-.66-.63,8.28,8.28,0,0,0-.84-.61,3.76,3.76,0,0,0-.76-.39Z"/><path class="cls-8" d="M232.37,112.48a.86.86,0,0,0-.43,0,1,1,0,0,0-.37.15,2.32,2.32,0,0,0-.33.26l-.3.28-2.35,2.13-2.37,2.16-2.38,2.18-2.39,2.2-.28.25a1.32,1.32,0,0,0-.22.26.47.47,0,0,0-.08.29.61.61,0,0,0,.17.34c.15.16.29.31.44.45a4.71,4.71,0,0,0,.44.36,3.71,3.71,0,0,0,.44.28,2.89,2.89,0,0,0,.44.19,2.46,2.46,0,0,0,.89.13,3,3,0,0,0,.95-.21,5.11,5.11,0,0,0,1-.54,10.11,10.11,0,0,0,1.11-.88l.36-.33.35-.34.34-.35.33-.35a2.33,2.33,0,0,0,.19-.23.9.9,0,0,0,.13-.23.36.36,0,0,0,0-.22.38.38,0,0,0-.16-.2,1.16,1.16,0,0,1-.51-.58.64.64,0,0,1,.1-.54,2.53,2.53,0,0,1,.46-.51l.59-.51,1.08-1,1.07-1,1.07-1,1.06-1,.18-.16.18-.16.18-.16.19-.17a.88.88,0,0,0-.18-.4,1.42,1.42,0,0,0-.32-.29,4.51,4.51,0,0,0-.4-.24l-.41-.23-.07,0-.07,0-.07,0-.06,0Z"/><path class="cls-8" d="M242.44,122.41l-.1.09-.1.09-.1.09-.1.1-1.72,1.62L238.58,126l-1.73,1.65-1.73,1.66a6.36,6.36,0,0,1-.52.42,6.25,6.25,0,0,0-.54.44,1.06,1.06,0,0,0-.32.46.48.48,0,0,0,.16.48,5,5,0,0,0,.71.58c.26.18.53.34.82.5l.86.46c.29.15.57.31.83.46l.18,0,.15,0,.11,0,.08,0,.78-.66.76-.67.73-.68.7-.7.47-2a.77.77,0,0,1-.31-.39.6.6,0,0,1,0-.41,1.66,1.66,0,0,1,.26-.41c.12-.14.25-.28.39-.41l1-4.28Z"/><path class="cls-8" d="M238.93,116.78h-.13a1.86,1.86,0,0,0-.62-.09,1.55,1.55,0,0,0-.54.11,2.17,2.17,0,0,0-.49.28,4.44,4.44,0,0,0-.47.41l-2,2-2.07,2-2.09,2-2.1,2-.28.27a2.84,2.84,0,0,0-.26.28,1.08,1.08,0,0,0-.18.3.65.65,0,0,0,0,.34.72.72,0,0,0,.24.35,3.27,3.27,0,0,0,.53.39,7,7,0,0,0,.72.37c.26.12.52.22.79.31l.43.13.4.08.34,0a1,1,0,0,0,.27,0,3.21,3.21,0,0,0,1-.62,10.85,10.85,0,0,0,1.13-1.11,7,7,0,0,0,.84-1.13c.18-.33.25-.58.12-.69a1.51,1.51,0,0,1-.58-.82,1,1,0,0,1,.16-.72,3.55,3.55,0,0,1,.6-.67c.24-.22.5-.44.73-.67l.89-.88.88-.88.88-.87.87-.87.19-.2.18-.2.16-.19.14-.17a.79.79,0,0,0,0-.37.49.49,0,0,0-.12-.26.83.83,0,0,0-.24-.17,2.22,2.22,0,0,0-.31-.12Z"/><path class="cls-8" d="M204.92,108.45l-.26-.08-.27-.07-.28,0-.3,0a1.62,1.62,0,0,0-.84.15,2,2,0,0,0-.59.46c-.17.19-.33.39-.49.59a3.16,3.16,0,0,1-.54.54l-.27.22-.26.23-.25.23-.26.22a4.89,4.89,0,0,0-.73.69,1.28,1.28,0,0,0-.31.63.67.67,0,0,0,.21.56,2.27,2.27,0,0,0,.84.49,4.15,4.15,0,0,1,.45.2l.42.24.41.25.42.24.13.07.14.07.14.06.15.06.24.06H203a.76.76,0,0,0,.23,0,.73.73,0,0,0,.21-.13q.56-.48,1.1-1l1.06-1,1-1,1-1a1.66,1.66,0,0,1-.07-.18l-.06-.17a.71.71,0,0,0-.07-.14.32.32,0,0,0-.1-.1l-.6-.35-.61-.36c-.2-.12-.41-.23-.63-.33a5.86,5.86,0,0,0-.67-.27Z"/><path class="cls-8" d="M217.94,115l-.08,0-.08,0h-.14a1.7,1.7,0,0,0-.79.37,12,12,0,0,0-1.18.92,13.53,13.53,0,0,0-1.11,1.09,2.76,2.76,0,0,0-.58.85c0,.12.08.31.29.54a6.93,6.93,0,0,0,.85.76,11.29,11.29,0,0,0,1.09.75,5.4,5.4,0,0,0,1,.49l.08,0,.08,0,.07,0h.07a1.71,1.71,0,0,0,.8-.37,11.94,11.94,0,0,0,1.18-.93,13.12,13.12,0,0,0,1.1-1.09,2.7,2.7,0,0,0,.57-.85c0-.11-.09-.31-.3-.53a7,7,0,0,0-.85-.76,11.42,11.42,0,0,0-1.08-.74,5.41,5.41,0,0,0-1-.48Z"/><path class="cls-6" d="M217.46,88.57l-.14.08-.14.08-.14.08-.14.08.14-.08.14-.08.14-.08.14-.08Z"/><path class="cls-6" d="M215.16,86.68l-.12.07-.12.07-.12.07-.12.07.12-.07.12-.07.12-.07.12-.07Z"/></g><path class="cls-5" d="M191.49,35.78,202,49.64l1.9-5.71h0l0,0,0,0,0,0,0,0-12.24-8.07Z"/><polygon class="cls-5" points="156.91 12.99 147.34 34.91 148.48 34.43 173.46 23.9 156.91 12.99 156.91 12.99"/><path class="cls-6" d="M142.35,175.92l-.09,0-.1-.05-.1-.07-.1-.08c-.19-.27-.4-.54-.57-.81a3.47,3.47,0,0,1-.39-.79,1.14,1.14,0,0,1,0-.72,1.17,1.17,0,0,1,.55-.61l1.74-1,1.75-1c.58-.33,1.17-.66,1.77-1s1.19-.6,1.8-.88l.26-.09.24,0h.22l.21,0a1.53,1.53,0,0,1,.65.47,4.53,4.53,0,0,1,.53.78c.16.29.32.6.47.89a7,7,0,0,0,.47.81,1.79,1.79,0,0,1,.36.79.7.7,0,0,1-.13.52,1.42,1.42,0,0,1-.41.35l-.47.27-.85.5-.86.48-.87.47-.87.47-.37.22a3.53,3.53,0,0,1-.37.2,1.31,1.31,0,0,1-.39.12,1,1,0,0,1-.43,0l-.2-.09-.21-.14-.22-.19-.24-.25-.09-.1-.09-.07-.09-.05-.09,0a.52.52,0,0,0-.31,0,1.18,1.18,0,0,0-.29.14l-.29.19a1.11,1.11,0,0,1-.29.14,1.48,1.48,0,0,0-.29.12l-.29.15a1.09,1.09,0,0,1-.3.1.72.72,0,0,1-.33,0Zm-6.45-9.72-.13-.06-.13-.1-.13-.14-.13-.18a3.59,3.59,0,0,1-.24-.44,2.51,2.51,0,0,1-.16-.46,2.1,2.1,0,0,1-.06-.49,2.21,2.21,0,0,1,.07-.52l.18-.11.2-.13.22-.13.23-.13,2.38-1.16,2.37-1.15,2.35-1.15,2.33-1.16.26-.12.24-.07.22,0a.7.7,0,0,1,.21,0,.74.74,0,0,1,.23.13,1.17,1.17,0,0,1,.21.23,2.24,2.24,0,0,1,.2.35,4.6,4.6,0,0,1,.19.48,5.71,5.71,0,0,0,.54,1.09c.22.36.47.73.69,1.08a4.8,4.8,0,0,1,.5,1,1.17,1.17,0,0,1,0,.88,2.51,2.51,0,0,1-.6.77,4.7,4.7,0,0,1-.83.57c-.3.17-.62.32-.94.48s-.63.31-.92.49l-.15.07-.15,0H145l-.14,0a.89.89,0,0,1-.27-.16,1.54,1.54,0,0,1-.24-.25,2.49,2.49,0,0,1-.2-.31,3.31,3.31,0,0,1-.16-.34,5.59,5.59,0,0,0-.31-.63,3.23,3.23,0,0,0-.32-.46,1.83,1.83,0,0,0-.33-.31,1.27,1.27,0,0,0-.34-.17,1.21,1.21,0,0,0-.38-.06,1.63,1.63,0,0,0-.39.05,2.83,2.83,0,0,0-.4.14l-.41.2-1.12.57-1.12.56-1.13.56-1.13.56-.18.08-.18.05h-.17l-.17,0ZM116,155.92c-.27-.46-.57-.92-.87-1.38s-.62-.92-.91-1.38a14.62,14.62,0,0,1-.79-1.39,6.66,6.66,0,0,1-.51-1.4,1,1,0,0,1,.15-.84,2.15,2.15,0,0,1,.7-.6c.29-.17.62-.32.94-.47a7,7,0,0,0,.89-.47l.14-.08.13,0H116l.11,0a.7.7,0,0,1,.29.21,2.25,2.25,0,0,1,.25.35l.22.4a3.39,3.39,0,0,0,.23.36l.31.44.29.45.28.46.29.46a7.53,7.53,0,0,1,.92,2,3,3,0,0,1,.07,1.57,1.8,1.8,0,0,1-.77,1.07,3.23,3.23,0,0,1-1.59.46h-.18l-.2,0-.24-.06-.28-.07Zm7.38-3.34a1.23,1.23,0,0,1-.49-.33,3,3,0,0,1-.4-.56c-.12-.21-.24-.44-.35-.67s-.22-.45-.33-.66l0-.05,0-.05,0-.05,0-.05a14.5,14.5,0,0,1-1-2.07,2.57,2.57,0,0,1-.18-1.38,1.59,1.59,0,0,1,.69-1,7,7,0,0,1,1.6-.79l.16-.07.16-.06.16,0a.38.38,0,0,1,.15,0l.06,0,.06,0,.05.05.05.07.79,1.31.77,1.33L126,149l.76,1.34a.26.26,0,0,1,0,.13.79.79,0,0,1,0,.16l0,.17a1.8,1.8,0,0,0,0,.18,4.79,4.79,0,0,1-.6.63,4.52,4.52,0,0,1-.69.49,4.4,4.4,0,0,1-.76.35,4.33,4.33,0,0,1-.81.2h-.22l-.1,0-.1,0Zm10-.25-.13-.05-.13-.08-.13-.12-.14-.15c-.24-.29-.49-.59-.73-.91a9.57,9.57,0,0,1-.66-1,5.19,5.19,0,0,1-.47-1,3.23,3.23,0,0,1-.15-1.09.68.68,0,0,1,.13-.37.92.92,0,0,1,.33-.27,1.19,1.19,0,0,1,.47-.12,1.46,1.46,0,0,1,.55.07l.08,0,.08,0,.08,0,.08,0a2.57,2.57,0,0,1,.62.76,13.42,13.42,0,0,1,.72,1.33,12.43,12.43,0,0,1,.56,1.36,1.62,1.62,0,0,1,.14.83l-.29.27a3.41,3.41,0,0,1-.31.27,1.07,1.07,0,0,1-.34.18.63.63,0,0,1-.38,0Zm2.93-7.11a1.06,1.06,0,0,1-.42-.27,2.52,2.52,0,0,1-.34-.45c-.1-.17-.2-.35-.3-.54s-.19-.37-.28-.53-.15-.28-.22-.42l-.21-.43c-.07-.14-.14-.28-.22-.42a3.61,3.61,0,0,0-.25-.39,4.55,4.55,0,0,1-.72-1.31,1.41,1.41,0,0,1,0-.92,1.54,1.54,0,0,1,.51-.66,5.25,5.25,0,0,1,.84-.52,2,2,0,0,1,.32-.14,1.54,1.54,0,0,1,.3-.07h.27a1.15,1.15,0,0,1,.25.05,1.44,1.44,0,0,1,.47.27,2.78,2.78,0,0,1,.41.45,6.51,6.51,0,0,1,.38.57l.37.63.4.71.4.72.4.72.4.72.14.26a1.7,1.7,0,0,1,.12.27.92.92,0,0,1,.05.29.94.94,0,0,1-.06.34l-.6.3-.63.32a6.87,6.87,0,0,1-.66.29,4,4,0,0,1-.71.19h-.31l-.09,0Zm22.74,12.92a1.49,1.49,0,0,1-.55-.35,4.05,4.05,0,0,1-.56-.69c-.19-.29-.4-.64-.63-1.06s-.47-.9-.75-1.45a5.07,5.07,0,0,1-.33-.8,2,2,0,0,1-.1-.65,1,1,0,0,1,.16-.52,1.27,1.27,0,0,1,.44-.4l2.32-1.37,2.31-1.35,2.3-1.34,2.29-1.32.19-.12.2-.11a.73.73,0,0,1,.24-.05.79.79,0,0,1,.29,0l.09,0,.1,0,.1.06.11.07.3.46.33.5c.11.17.22.36.33.54a5.7,5.7,0,0,1,.28.57.79.79,0,0,1,.07.47.41.41,0,0,1-.19.26,1.46,1.46,0,0,1-.31.15,1.9,1.9,0,0,0-.31.13l-1.1.69-1.11.7-1.12.68-1.14.65a3.55,3.55,0,0,0-.46.29.84.84,0,0,0-.29.35.78.78,0,0,0,0,.51,2.73,2.73,0,0,0,.38.76,2.81,2.81,0,0,1,.37.73,1.16,1.16,0,0,1,0,.57.89.89,0,0,1-.23.44,1.57,1.57,0,0,1-.46.32l-.23.12-.22.13L162,157l-.21.14c-.32.21-.61.39-.88.54a6.27,6.27,0,0,1-.72.36,2.27,2.27,0,0,1-.6.17,1.19,1.19,0,0,1-.52,0Zm-11-18.51a.74.74,0,0,1-.32-.25,2.82,2.82,0,0,1-.27-.44l-.25-.51a4.14,4.14,0,0,0-.25-.45l-.22-.34-.22-.35-.22-.35-.21-.35c-.13-.21-.29-.43-.44-.65s-.32-.44-.45-.66a2.24,2.24,0,0,1-.28-.65A.91.91,0,0,1,145,134a2.8,2.8,0,0,1,.45-.67,3,3,0,0,1,.6-.5,3.66,3.66,0,0,1,.72-.35,4.76,4.76,0,0,1,.8-.21h.13l.15,0,.17.06.2.06a11.28,11.28,0,0,0,.75,1.21c.28.4.57.8.84,1.2a10,10,0,0,1,.73,1.22,4.31,4.31,0,0,1,.42,1.27,1.45,1.45,0,0,1-.15,1,1.55,1.55,0,0,1-.65.56,6.57,6.57,0,0,1-.87.34,4.88,4.88,0,0,0-.83.34l-.1,0-.1,0h-.09l-.09,0ZM160.18,133h0a4.62,4.62,0,0,1-.83-1c-.32-.46-.67-1-1-1.56a15.87,15.87,0,0,1-.78-1.54,1.76,1.76,0,0,1-.23-.91,1.73,1.73,0,0,1,.54-.51,11.49,11.49,0,0,1,1-.65,11,11,0,0,1,1.07-.54,1.36,1.36,0,0,1,.65-.17h0a3.79,3.79,0,0,1,.76.87c.32.44.68,1,1,1.57s.65,1.13.87,1.58a2.08,2.08,0,0,1,.31.9,1.67,1.67,0,0,1-.55.59,8.43,8.43,0,0,1-1,.68,8.22,8.22,0,0,1-1.1.52,1.38,1.38,0,0,1-.73.14Zm6.85-3.59a5,5,0,0,1-.85-1,16.77,16.77,0,0,1-.89-1.55,13.36,13.36,0,0,1-.66-1.48,1.48,1.48,0,0,1-.15-.85,1.41,1.41,0,0,1,.5-.47,3.34,3.34,0,0,1,.77-.34,3.82,3.82,0,0,1,.85-.16,2,2,0,0,1,.73.07l.08,0,.07,0,.06,0,.06,0a5.37,5.37,0,0,1,.75,1c.28.42.57.92.83,1.4a12,12,0,0,1,.61,1.3c.13.35.18.59.09.63a2.58,2.58,0,0,0-.69.41l-.63.52a2.43,2.43,0,0,1-.68.4,1.5,1.5,0,0,1-.84.05Zm9.32-16.21-71.43,37.3,50.85,38.18,1.49-4.5-.17.08-.18.08-.19.08-.19.09-.29.12-.28.08a1.16,1.16,0,0,1-.27,0,.8.8,0,0,1-.26,0,.84.84,0,0,1-.23-.12,1.26,1.26,0,0,1-.22-.21,2.17,2.17,0,0,1-.21-.32,4,4,0,0,1-.21-.44,4.83,4.83,0,0,0-.26-.54,2.62,2.62,0,0,0-.27-.39,1.53,1.53,0,0,0-.28-.26,1.06,1.06,0,0,0-.29-.15,1,1,0,0,0-.31-.05,1.3,1.3,0,0,0-.32,0,2.22,2.22,0,0,0-.34.12l-.35.17c-.22.12-.43.26-.65.41a6.84,6.84,0,0,1-.66.4,2.69,2.69,0,0,1-.75.26,2.36,2.36,0,0,1-.9,0l-.24-.43-.24-.44-.23-.44c-.07-.15-.14-.3-.2-.45a1.18,1.18,0,0,1-.1-.45.63.63,0,0,1,.09-.32.83.83,0,0,1,.22-.23,2.24,2.24,0,0,1,.29-.17l1.75-1,1.75-1,1.74-1,1.72-1,.22-.11.2-.07.19,0,.18,0a.77.77,0,0,1,.2.1,1.35,1.35,0,0,1,.2.18,2.56,2.56,0,0,1,.21.26c.07.1.15.22.23.35l.39.64.35.59.31.54.27.5,4.51-13.57-.17-.29-.16-.3-.16-.3-.16-.28c-.47-.76-.82-1.32-1-1.77a2.2,2.2,0,0,1-.33-1,1,1,0,0,1,.41-.72,9.46,9.46,0,0,1,1.17-.8l.72-.44.71-.44.71-.44.71-.44,10.75-32.32-.2-.29-.22-.28-.24-.28-.28-.27-.13,0-.15,0-.17,0-.17,0a.49.49,0,0,0-.3.09,2.22,2.22,0,0,0-.27.22,1.29,1.29,0,0,1-.26.2.36.36,0,0,1-.29,0l-.08,0-.08-.06-.09-.08-.09-.11-.75-1c-.25-.33-.5-.66-.73-1a9.38,9.38,0,0,1-.61-1,4.64,4.64,0,0,1-.38-1,1.36,1.36,0,0,1,.05-1,1.28,1.28,0,0,1,.57-.53,6.18,6.18,0,0,1,.81-.33,3.81,3.81,0,0,0,.77-.34l.16-.08.15,0h.14l.14,0a.91.91,0,0,1,.31.18,2.15,2.15,0,0,1,.28.3c.09.11.17.24.25.36l.24.37.6.91.6.92.6.92.6.92,2.92-8.77-3.72-2.39ZM118.79,132.7a.62.62,0,0,1-.21-.13,1.4,1.4,0,0,1-.19-.21l-.17-.25-.15-.25-.28-.5-.28-.51-.28-.5c-.09-.17-.19-.33-.29-.49-.27-.43-.53-.86-.73-1.26a3.51,3.51,0,0,1-.38-1.12,1.16,1.16,0,0,1,.24-.91,2.13,2.13,0,0,1,1.13-.61,1,1,0,0,0,.48-.26.68.68,0,0,0,.19-.43,1.35,1.35,0,0,0-.1-.58,3.38,3.38,0,0,0-.37-.7q-.25-.38-.48-.76l-.46-.78-.44-.79-.44-.79a2.17,2.17,0,0,1-.19-.43,1.12,1.12,0,0,1-.05-.39.68.68,0,0,1,.11-.33.74.74,0,0,1,.28-.25l.12,0,.12,0h.12l.12,0,.14.07.14.1.13.14.12.17,1.44,2.48,1.44,2.5,1.44,2.52,1.45,2.53a1.13,1.13,0,0,1,.11.26.9.9,0,0,1,0,.27.93.93,0,0,1-.06.29,1.27,1.27,0,0,1-.17.3c-.26.13-.51.28-.77.44l-.8.48a7.54,7.54,0,0,1-.86.44,4.61,4.61,0,0,1-1,.29h-.21ZM132.45,126a4.64,4.64,0,0,1-.65-.93c-.3-.5-.67-1.15-1-1.79s-.68-1.28-.93-1.77a4,4,0,0,1-.38-.89c0-.09.21-.21.48-.35a9.87,9.87,0,0,1,1-.43,11,11,0,0,1,1.06-.34,1.59,1.59,0,0,1,.66-.08h0a3.66,3.66,0,0,1,.81.94c.33.48.69,1.07,1,1.67a16.11,16.11,0,0,1,.8,1.64c.18.46.26.79.16.85l-.7.5c-.23.17-.47.33-.71.47a4.19,4.19,0,0,1-.76.36,2.85,2.85,0,0,1-.84.16Zm-6.69,3.07-.08,0-.08,0-.06,0,0,0-.52-1-.51-1-.49-1q-.24-.48-.47-1c-.13-.28-.29-.56-.46-.83a7.29,7.29,0,0,1-.44-.83,2.35,2.35,0,0,1-.2-.87,1.93,1.93,0,0,1,.24-1,.93.93,0,0,0,.06-.67,2.91,2.91,0,0,0-.32-.74c-.15-.26-.32-.52-.48-.78a6,6,0,0,1-.43-.76c-.13-.29-.25-.56-.34-.82a2.32,2.32,0,0,1-.16-.71.87.87,0,0,1,.18-.58,1.46,1.46,0,0,1,.66-.44l.25-.07.22,0h.2l.18,0a1.05,1.05,0,0,1,.38.23,2,2,0,0,1,.3.36c.09.14.18.28.26.44l.25.45L125,119.6l1.14,2.07,1.14,2.09,1.13,2.1c.07.14.16.28.25.43a3.26,3.26,0,0,1,.23.45,1.29,1.29,0,0,1,.1.47,1,1,0,0,1-.14.5,4.21,4.21,0,0,1-.63.45,6.65,6.65,0,0,1-.71.36l-.75.31-.76.29h-.18l-.07,0ZM138.41,122a2,2,0,0,1-.85-.6,4.94,4.94,0,0,1-.64-1c-.19-.37-.36-.76-.54-1.14a9,9,0,0,0-.58-1.08,1.45,1.45,0,0,1-.26-.63.57.57,0,0,1,.11-.42,1,1,0,0,1,.35-.27,3.86,3.86,0,0,1,.45-.19.92.92,0,0,0,.42-.28.62.62,0,0,0,.13-.4,1.41,1.41,0,0,0-.11-.5,4.1,4.1,0,0,0-.29-.59l-.61-1.06-.6-1.06-.6-1.06c-.2-.35-.41-.7-.62-1a2.88,2.88,0,0,1-.34-.74,1.1,1.1,0,0,1,0-.56A.89.89,0,0,1,134,109a1.83,1.83,0,0,1,.46-.32l.18-.08.17,0H135l.15,0a.87.87,0,0,1,.29.17,1.72,1.72,0,0,1,.25.27,3.76,3.76,0,0,1,.23.33l.22.36,1.31,2.24,1.32,2.25,1.32,2.26,1.34,2.27a5,5,0,0,1,.25.46,2,2,0,0,1,.15.46,1.37,1.37,0,0,1,0,.48,1.64,1.64,0,0,1-.19.52,8.11,8.11,0,0,1-.62.56,4.76,4.76,0,0,1-.74.5,2.9,2.9,0,0,1-.83.31,2.1,2.1,0,0,1-.9,0h-.12Zm12.79-6.74a2.34,2.34,0,0,1-.75-.42,3.94,3.94,0,0,1-.69-.75,8,8,0,0,1-.65-1.09c-.21-.42-.42-.9-.63-1.44a1.87,1.87,0,0,1-.14-.54.78.78,0,0,1,.06-.38.6.6,0,0,1,.21-.25,1,1,0,0,1,.32-.14,1.59,1.59,0,0,0,.83-.45.92.92,0,0,0,.2-.69,2.61,2.61,0,0,0-.26-.87,9.9,9.9,0,0,0-.56-1c-.1-.16-.21-.32-.33-.49a5.3,5.3,0,0,1-.32-.51,1.59,1.59,0,0,1-.19-.52.86.86,0,0,1,.07-.52.65.65,0,0,1,.13-.18.49.49,0,0,1,.17-.11.55.55,0,0,1,.21,0,.88.88,0,0,1,.26,0l.14.05.15.08.15.1.16.12.1.14.13.18.14.21.14.22,1,1.7,1,1.7,1,1.71q.51.85,1,1.7a3.31,3.31,0,0,1,.34.68,1.08,1.08,0,0,1,.06.51.68.68,0,0,1-.2.38,1.39,1.39,0,0,1-.42.28l-.15.07a7,7,0,0,1-.77.36,4.23,4.23,0,0,1-.7.21,2.67,2.67,0,0,1-.64.05,2.14,2.14,0,0,1-.59-.11Zm13.93-7.51a.61.61,0,0,1-.22-.14,1.68,1.68,0,0,1-.2-.24l-.18-.28-.16-.27-1.46-2.25-1.45-2.24L160,100.09l-1.44-2.21a2.46,2.46,0,0,1-.29-.57.85.85,0,0,1,0-.43.7.7,0,0,1,.17-.34,1.74,1.74,0,0,1,.35-.29l.83-.54a5.89,5.89,0,0,1,.67-.36,2,2,0,0,1,.56-.17,1.12,1.12,0,0,1,.5,0,1.54,1.54,0,0,1,.52.31,4.23,4.23,0,0,1,.55.6c.2.25.41.56.65.92s.5.78.8,1.26l1,1.59,1,1.59,1,1.59,1,1.6.21.32a2.47,2.47,0,0,1,.19.33,1.23,1.23,0,0,1,.11.37,1.11,1.11,0,0,1,0,.43l-.72.4L167,107l-.78.4c-.27.13-.54.25-.81.37l-.06,0h-.18Zm-25.3-55.65-1,2.39a12.43,12.43,0,0,1,.78,1.15c.24.39.48.79.72,1.19a10.2,10.2,0,0,0,.81,1.13,5.85,5.85,0,0,0,1,1,5.25,5.25,0,0,0,.41,1c.17.33.37.65.57,1s.41.64.6,1a7.53,7.53,0,0,1,.5,1l-.69.33c-.2.09-.38.17-.54.22a1.83,1.83,0,0,1-.43.1.91.91,0,0,1-.37,0,1.1,1.1,0,0,1-.38-.23,3.06,3.06,0,0,1-.4-.44c-.14-.18-.29-.41-.47-.67l-.59-.93-.67-1-.67-1-.68-1-.69-1L109.3,122l.07.11.07.11.07.12.07.12,1.11,2,1.11,2,1.11,2,1.12,2,.36.65.36.65.36.66.36.65a2.67,2.67,0,0,1,.13.26,1.29,1.29,0,0,1,.08.27,1,1,0,0,1,0,.29,1.15,1.15,0,0,1-.09.33,6.73,6.73,0,0,0-.73.43c-.24.16-.49.33-.75.48a4.89,4.89,0,0,1-.81.4,3,3,0,0,1-.91.19h-.2l-.09,0-.09,0a1.09,1.09,0,0,1-.47-.33,2.68,2.68,0,0,1-.35-.53c-.1-.2-.2-.41-.29-.61a4.38,4.38,0,0,0-.31-.57c-.09-.14-.18-.29-.26-.45l-.24-.46c-.08-.15-.16-.31-.24-.46a4.47,4.47,0,0,0-.27-.43,8.53,8.53,0,0,1-.72-1.18,2.57,2.57,0,0,1-.29-1,1.09,1.09,0,0,1,.28-.8,2.13,2.13,0,0,1,1-.55.67.67,0,0,0,.38-.24.52.52,0,0,0,.08-.36,1.57,1.57,0,0,0-.13-.45c-.07-.16-.15-.32-.25-.49l-.38-.69-.38-.69-.37-.69-.37-.69-3,6.82.68,1.24.68,1.24.68,1.25.68,1.25a2.08,2.08,0,0,1,.17.39,1.49,1.49,0,0,1,.07.39,1.47,1.47,0,0,1,0,.41,2.08,2.08,0,0,1-.16.44,4.25,4.25,0,0,1-.63.6,4.47,4.47,0,0,1-.76.47,4.52,4.52,0,0,1-.86.32,4.39,4.39,0,0,1-.93.14h-.16l-.05,0a1,1,0,0,1-.44-.33A3.28,3.28,0,0,1,104,138c-.11-.22-.22-.46-.32-.69s-.2-.46-.31-.65l-.07-.12-.07-.12-.07-.12-.07-.12-1.58,3.62c.06.17.11.33.16.48s.08.28.1.41a1.94,1.94,0,0,1,0,.32.48.48,0,0,1,0,.21.44.44,0,0,1-.13.13l-.26.18-.37.21-.46.23-1.77,4h.11l73.28-37.67L139.84,52.09Zm34.75,48.86a1.41,1.41,0,0,1-.58-.4,3.65,3.65,0,0,1-.47-.67c-.14-.25-.27-.52-.4-.78s-.26-.52-.39-.75a1.22,1.22,0,0,1-.19-.52.62.62,0,0,1,.09-.38,1,1,0,0,1,.26-.27,3.89,3.89,0,0,1,.33-.21l.36-.2.37-.19.37-.19.37-.19.23-.1.23-.05h.22l.22,0a1.25,1.25,0,0,1,.28.14,1.81,1.81,0,0,1,.27.22,2.81,2.81,0,0,1,.27.3,4.43,4.43,0,0,1,.26.37l.46.73.47.72.47.72.47.73c.06.09.12.19.17.28a1.4,1.4,0,0,1,.11.28.76.76,0,0,1,0,.28.65.65,0,0,1-.1.28l-.07.06-.09.08-.09.06-.07,0h0l-.23-.18L178,101l-.22-.11-.21-.08a2,2,0,0,0-.75-.1,3.82,3.82,0,0,0-.69.12c-.22.05-.45.11-.67.15a2.09,2.09,0,0,1-.7,0h-.14Zm-.5-10.56a2.89,2.89,0,0,1-.79-.42,3.77,3.77,0,0,1-.71-.68,5,5,0,0,1-.59-.92,6.38,6.38,0,0,1-.43-1.14.94.94,0,0,1,0-.36.4.4,0,0,1,.1-.22.63.63,0,0,1,.19-.13l.23-.1L173,86l.94-.44.94-.44.94-.43.27-.13.27-.13a1,1,0,0,1,.28-.07.73.73,0,0,1,.3,0l.15.07.16.11.16.16.17.21c.2.28.41.56.6.84s.38.58.55.88a7.9,7.9,0,0,1,.45.92,5.8,5.8,0,0,1,.31,1l-.27.16-.26.16-.25.15-.26.13-.64.3-.64.29-.65.29-.65.29a2.61,2.61,0,0,1-.45.15,2.42,2.42,0,0,1-.45.07,2.38,2.38,0,0,1-.45,0,2.47,2.47,0,0,1-.44-.1ZM156.24,62.21h-.06a3.26,3.26,0,0,1-.65-.74c-.26-.36-.53-.79-.79-1.23a12.46,12.46,0,0,1-.63-1.23,1.4,1.4,0,0,1-.19-.73,1.21,1.21,0,0,1,.52-.35,10.74,10.74,0,0,1,1.05-.41c.39-.13.78-.24,1.11-.31a1.75,1.75,0,0,1,.69-.07h0a2.68,2.68,0,0,1,.63.69,13.79,13.79,0,0,1,.77,1.21,12.14,12.14,0,0,1,.62,1.23,1.43,1.43,0,0,1,.19.75,1.18,1.18,0,0,1-.51.42,7.08,7.08,0,0,1-1,.43,7.8,7.8,0,0,1-1.06.3,1.69,1.69,0,0,1-.73,0Zm-7.76-27.77-1.14.48-5.48,12.56,35.32,60.78,4.39,2.82,8.59-25.85L148.48,34.43Z"/><polygon class="cls-2" points="141.5 48.28 140.2 51.27 172.94 108.05 173.46 108.95 172.8 109.28 100 146.81 103.86 149.71 175.77 112.26 176.12 112.07 176.57 112.36 180.34 114.78 181.31 111.86 176.96 109.07 176.66 108.88 176.47 108.56 141.5 48.28 141.5 48.28"/><polygon class="cls-7" points="176.12 112.07 175.77 112.26 103.86 149.71 104.92 150.5 176.35 113.19 180.07 115.59 180.34 114.78 176.57 112.36 176.12 112.07 176.12 112.07"/><path class="cls-7" d="M140.2,51.26l-.36.82,32.38,56.26L98.94,146h0l0,0,0,0,0,0,1,.72,72.8-37.53.65-.33-.52-.89L140.2,51.26Z"/><polygon class="cls-7" points="141.86 47.47 141.5 48.28 176.47 108.56 176.66 108.88 176.96 109.07 181.31 111.86 181.57 111.07 177.18 108.25 141.86 47.47 141.86 47.47"/><path class="cls-8" d="M161.33,95.24a1.12,1.12,0,0,0-.5,0,2,2,0,0,0-.56.17,5.89,5.89,0,0,0-.67.36l-.83.54a1.74,1.74,0,0,0-.35.29.7.7,0,0,0-.17.34.85.85,0,0,0,0,.43,2.46,2.46,0,0,0,.29.57l1.44,2.21,1.44,2.23,1.45,2.24,1.46,2.25.16.27.18.28a1.68,1.68,0,0,0,.2.24.61.61,0,0,0,.22.14h.18l.06,0c.28-.12.55-.24.81-.37l.78-.4.75-.41.72-.4a1.11,1.11,0,0,0,0-.43,1.23,1.23,0,0,0-.11-.37,2.47,2.47,0,0,0-.19-.33l-.21-.32-1-1.6-1-1.59-1-1.59-1-1.59c-.3-.48-.57-.9-.8-1.26s-.45-.67-.65-.92a4.23,4.23,0,0,0-.55-.6,1.54,1.54,0,0,0-.52-.31Z"/><path class="cls-8" d="M105.46,130.8l-2.34,5.35.07.12.07.12.07.12.07.12c.1.2.2.42.31.65s.21.47.32.69a3.28,3.28,0,0,0,.36.58,1,1,0,0,0,.44.33l.05,0H105a4.39,4.39,0,0,0,.93-.14,4.52,4.52,0,0,0,.86-.32,4.47,4.47,0,0,0,.76-.47,4.25,4.25,0,0,0,.63-.6,2.08,2.08,0,0,0,.16-.44,1.47,1.47,0,0,0,0-.41,1.49,1.49,0,0,0-.07-.39,2.08,2.08,0,0,0-.17-.39l-.68-1.25-.68-1.25-.68-1.24-.68-1.24Z"/><path class="cls-8" d="M135.14,108.59l-.15,0h-.16l-.17,0-.18.08a1.83,1.83,0,0,0-.46.32.89.89,0,0,0-.24.42,1.1,1.1,0,0,0,0,.56,2.88,2.88,0,0,0,.34.74c.21.34.42.69.62,1l.6,1.06.6,1.06.61,1.06a4.1,4.1,0,0,1,.29.59,1.41,1.41,0,0,1,.11.5.62.62,0,0,1-.13.4.92.92,0,0,1-.42.28,3.86,3.86,0,0,0-.45.19,1,1,0,0,0-.35.27.57.57,0,0,0-.11.42,1.45,1.45,0,0,0,.26.63,9,9,0,0,1,.58,1.08c.18.38.36.77.54,1.14a4.94,4.94,0,0,0,.64,1,2,2,0,0,0,.85.6h.12a2.1,2.1,0,0,0,.9,0,2.9,2.9,0,0,0,.83-.31,4.76,4.76,0,0,0,.74-.5,8.11,8.11,0,0,0,.62-.56,1.64,1.64,0,0,0,.19-.52,1.37,1.37,0,0,0,0-.48,2,2,0,0,0-.15-.46,5,5,0,0,0-.25-.46l-1.34-2.27-1.32-2.26L137.44,112l-1.31-2.24-.22-.36a3.76,3.76,0,0,0-.23-.33,1.72,1.72,0,0,0-.25-.27.87.87,0,0,0-.29-.17Z"/><path class="cls-8" d="M122.68,116.06l-.18,0h-.2l-.22,0-.25.07a1.46,1.46,0,0,0-.66.44.87.87,0,0,0-.18.58,2.32,2.32,0,0,0,.16.71c.09.25.21.53.34.82a6,6,0,0,0,.43.76c.16.26.34.52.48.78a2.91,2.91,0,0,1,.32.74.93.93,0,0,1-.06.67,1.93,1.93,0,0,0-.24,1,2.35,2.35,0,0,0,.2.87,7.29,7.29,0,0,0,.44.83c.16.27.32.55.46.83s.31.65.47,1l.49,1,.51,1,.52,1,0,0,.06,0,.08,0,.08,0,.07,0H126l.76-.29.75-.31a6.65,6.65,0,0,0,.71-.36,4.21,4.21,0,0,0,.63-.45,1,1,0,0,0,.14-.5,1.29,1.29,0,0,0-.1-.47,3.26,3.26,0,0,0-.23-.45c-.09-.15-.17-.29-.25-.43l-1.13-2.1-1.14-2.09L125,119.6l-1.15-2.06-.25-.45c-.08-.15-.17-.3-.26-.44a2,2,0,0,0-.3-.36,1.05,1.05,0,0,0-.38-.23Z"/><path class="cls-8" d="M109.3,122l-.86,2,.37.69.37.69.38.69.38.69c.09.16.18.33.25.49a1.57,1.57,0,0,1,.13.45.52.52,0,0,1-.08.36.67.67,0,0,1-.38.24,2.13,2.13,0,0,0-1,.55,1.09,1.09,0,0,0-.28.8,2.57,2.57,0,0,0,.29,1,8.53,8.53,0,0,0,.72,1.18,4.47,4.47,0,0,1,.27.43c.08.15.16.3.24.46l.24.46c.08.15.17.3.26.45a4.38,4.38,0,0,1,.31.57c.1.2.19.41.29.61a2.68,2.68,0,0,0,.35.53,1.09,1.09,0,0,0,.47.33l.09,0,.09,0h.2a3,3,0,0,0,.91-.19,4.89,4.89,0,0,0,.81-.4c.26-.16.5-.32.75-.48a6.73,6.73,0,0,1,.73-.43,1.15,1.15,0,0,0,.09-.33,1,1,0,0,0,0-.29,1.29,1.29,0,0,0-.08-.27,2.67,2.67,0,0,0-.13-.26l-.36-.65-.36-.66-.36-.65-.36-.65-1.12-2-1.11-2-1.11-2-1.11-2-.07-.12-.07-.12-.07-.11-.07-.11Z"/><path class="cls-8" d="M116.2,119.44l-.12,0H116l-.12,0-.12,0a.74.74,0,0,0-.28.25.68.68,0,0,0-.11.33,1.12,1.12,0,0,0,.05.39,2.17,2.17,0,0,0,.19.43l.44.79.44.79.46.78q.23.39.48.76a3.38,3.38,0,0,1,.37.7,1.35,1.35,0,0,1,.1.58.68.68,0,0,1-.19.43,1,1,0,0,1-.48.26,2.13,2.13,0,0,0-1.13.61,1.16,1.16,0,0,0-.24.91,3.51,3.51,0,0,0,.38,1.12c.2.4.46.83.73,1.26.1.16.2.32.29.49l.28.5.28.51.28.5.15.25.17.25a1.4,1.4,0,0,0,.19.21.62.62,0,0,0,.21.13H119a4.61,4.61,0,0,0,1-.29,7.54,7.54,0,0,0,.86-.44l.8-.48c.26-.16.52-.31.77-.44a1.27,1.27,0,0,0,.17-.3.93.93,0,0,0,.06-.29.9.9,0,0,0,0-.27,1.13,1.13,0,0,0-.11-.26L121,127.41l-1.44-2.52-1.44-2.5-1.44-2.48-.12-.17-.13-.14-.14-.1-.14-.07Z"/><path class="cls-8" d="M138.79,54.48l-1.13,2.58.69,1,.68,1,.67,1,.67,1,.59.93c.17.27.33.49.47.67a3.06,3.06,0,0,0,.4.44,1.1,1.1,0,0,0,.38.23.91.91,0,0,0,.37,0,1.83,1.83,0,0,0,.43-.1c.16-.05.34-.13.54-.22l.69-.33a7.53,7.53,0,0,0-.5-1c-.19-.32-.4-.64-.6-1s-.4-.64-.57-1a5.25,5.25,0,0,1-.41-1,5.85,5.85,0,0,1-1-1,10.2,10.2,0,0,1-.81-1.13c-.25-.39-.48-.79-.72-1.19a12.43,12.43,0,0,0-.78-1.15Z"/><path class="cls-8" d="M149.16,104.9a.88.88,0,0,0-.26,0,.55.55,0,0,0-.21,0,.49.49,0,0,0-.17.11.65.65,0,0,0-.13.18.86.86,0,0,0-.07.52,1.59,1.59,0,0,0,.19.52,5.3,5.3,0,0,0,.32.51c.12.17.23.33.33.49a9.9,9.9,0,0,1,.56,1,2.61,2.61,0,0,1,.26.87.92.92,0,0,1-.2.69,1.59,1.59,0,0,1-.83.45,1,1,0,0,0-.32.14.6.6,0,0,0-.21.25.78.78,0,0,0-.06.38,1.87,1.87,0,0,0,.14.54c.21.54.42,1,.63,1.44a8,8,0,0,0,.65,1.09,3.94,3.94,0,0,0,.69.75,2.34,2.34,0,0,0,.75.42,2.14,2.14,0,0,0,.59.11,2.67,2.67,0,0,0,.64-.05,4.23,4.23,0,0,0,.7-.21,7,7,0,0,0,.77-.36l.15-.07a1.39,1.39,0,0,0,.42-.28.68.68,0,0,0,.2-.38,1.08,1.08,0,0,0-.06-.51,3.31,3.31,0,0,0-.34-.68q-.52-.85-1-1.7l-1-1.71-1-1.7-1-1.7-.14-.22-.14-.21-.13-.18-.1-.14-.16-.12-.15-.1-.15-.08-.14-.05Z"/><path class="cls-8" d="M101.55,139.77l-.95,2.17.46-.23.37-.21.26-.18a.44.44,0,0,0,.13-.13.48.48,0,0,0,0-.21,1.94,1.94,0,0,0,0-.32c0-.12-.06-.26-.1-.41s-.1-.31-.16-.48Z"/><path class="cls-8" d="M132.66,119.44a1.59,1.59,0,0,0-.66.08,11,11,0,0,0-1.06.34,9.87,9.87,0,0,0-1,.43c-.27.14-.46.27-.48.35a4,4,0,0,0,.38.89c.24.49.58,1.13.93,1.77s.72,1.29,1,1.79a4.64,4.64,0,0,0,.65.93,2.85,2.85,0,0,0,.84-.16,4.19,4.19,0,0,0,.76-.36c.24-.14.48-.31.71-.47l.7-.5c.1-.07,0-.4-.16-.85a16.11,16.11,0,0,0-.8-1.64c-.33-.59-.69-1.19-1-1.67a3.66,3.66,0,0,0-.81-.94h0Z"/><path class="cls-8" d="M166.86,146.6a.79.79,0,0,0-.29,0,.73.73,0,0,0-.24.05l-.2.11-.19.12-2.29,1.32-2.3,1.34-2.31,1.35-2.32,1.37a1.27,1.27,0,0,0-.44.4,1,1,0,0,0-.16.52,2,2,0,0,0,.1.65,5.07,5.07,0,0,0,.33.8c.28.55.53,1,.75,1.45s.43.77.63,1.06a4.05,4.05,0,0,0,.56.69,1.49,1.49,0,0,0,.55.35,1.19,1.19,0,0,0,.52,0,2.27,2.27,0,0,0,.6-.17,6.27,6.27,0,0,0,.72-.36c.26-.15.55-.33.88-.54L162,157l.22-.14.22-.13.23-.12a1.57,1.57,0,0,0,.46-.32.89.89,0,0,0,.23-.44,1.16,1.16,0,0,0,0-.57,2.81,2.81,0,0,0-.37-.73,2.73,2.73,0,0,1-.38-.76.78.78,0,0,1,0-.51.84.84,0,0,1,.29-.35,3.55,3.55,0,0,1,.46-.29l1.14-.65,1.12-.68,1.11-.7,1.1-.69a1.9,1.9,0,0,1,.31-.13,1.46,1.46,0,0,0,.31-.15.41.41,0,0,0,.19-.26.79.79,0,0,0-.07-.47,5.7,5.7,0,0,0-.28-.57c-.1-.19-.22-.37-.33-.54l-.33-.5-.3-.46-.11-.07-.1-.06-.1,0-.09,0Z"/><path class="cls-8" d="M165.64,159l-.71.44-.71.44-.71.44-.72.44a9.46,9.46,0,0,0-1.17.8,1,1,0,0,0-.41.72,2.2,2.2,0,0,0,.33,1c.23.45.58,1,1,1.77l.16.28.16.3.16.3.17.29,2.42-7.28Z"/><path class="cls-8" d="M146.19,158.5a.7.7,0,0,0-.21,0l-.22,0-.24.07-.26.12-2.33,1.16L140.57,161l-2.37,1.15-2.38,1.16-.23.13-.22.13-.2.13-.18.11a2.21,2.21,0,0,0-.07.52,2.1,2.1,0,0,0,.06.49,2.51,2.51,0,0,0,.16.46,3.59,3.59,0,0,0,.24.44l.13.18.13.14.13.1.13.06.17,0h.17l.18-.05.18-.08,1.13-.56,1.13-.56,1.12-.56,1.12-.57.41-.2a2.83,2.83,0,0,1,.4-.14,1.63,1.63,0,0,1,.39-.05,1.21,1.21,0,0,1,.38.06,1.27,1.27,0,0,1,.34.17,1.83,1.83,0,0,1,.33.31,3.23,3.23,0,0,1,.32.46,5.59,5.59,0,0,1,.31.63,3.31,3.31,0,0,0,.16.34,2.49,2.49,0,0,0,.2.31,1.54,1.54,0,0,0,.24.25.89.89,0,0,0,.27.16l.14,0h.14l.15,0,.15-.07c.29-.18.6-.33.92-.49s.64-.31.94-.48a4.7,4.7,0,0,0,.83-.57,2.51,2.51,0,0,0,.6-.77,1.17,1.17,0,0,0,0-.88,4.8,4.8,0,0,0-.5-1c-.22-.35-.46-.72-.69-1.08a5.71,5.71,0,0,1-.54-1.09,4.6,4.6,0,0,0-.19-.48,2.24,2.24,0,0,0-.2-.35,1.17,1.17,0,0,0-.21-.23.74.74,0,0,0-.23-.13Z"/><path class="cls-8" d="M156.54,176.68l-.18,0-.19,0-.2.07-.22.11-1.72,1-1.74,1-1.75,1-1.75,1a2.24,2.24,0,0,0-.29.17.83.83,0,0,0-.22.23.63.63,0,0,0-.09.32,1.18,1.18,0,0,0,.1.45c.06.15.13.3.2.45l.23.44.24.44.24.43a2.36,2.36,0,0,0,.9,0,2.69,2.69,0,0,0,.75-.26,6.84,6.84,0,0,0,.66-.4c.21-.14.43-.28.65-.41l.35-.17a2.22,2.22,0,0,1,.34-.12,1.3,1.3,0,0,1,.32,0,1,1,0,0,1,.31.05,1.06,1.06,0,0,1,.29.15,1.53,1.53,0,0,1,.28.26,2.62,2.62,0,0,1,.27.39,4.83,4.83,0,0,1,.26.54,4,4,0,0,0,.21.44,2.17,2.17,0,0,0,.21.32,1.26,1.26,0,0,0,.22.21.84.84,0,0,0,.23.12.8.8,0,0,0,.26,0,1.16,1.16,0,0,0,.27,0l.28-.08.29-.12.19-.09.19-.08.18-.08.17-.08,1.44-4.34-.27-.5-.31-.54-.35-.59-.39-.64c-.08-.13-.16-.25-.23-.35a2.56,2.56,0,0,0-.21-.26,1.35,1.35,0,0,0-.2-.18.77.77,0,0,0-.2-.1Z"/><path class="cls-8" d="M149.52,168.75l-.21,0h-.22l-.24,0-.26.09c-.61.27-1.21.57-1.8.88s-1.18.63-1.77,1l-1.75,1-1.74,1a1.17,1.17,0,0,0-.55.61,1.14,1.14,0,0,0,0,.72,3.47,3.47,0,0,0,.39.79c.17.27.37.54.57.81l.1.08.1.07.1.05.09,0a.72.72,0,0,0,.33,0,1.09,1.09,0,0,0,.3-.1l.29-.15a1.48,1.48,0,0,1,.29-.12,1.11,1.11,0,0,0,.29-.14l.29-.19a1.18,1.18,0,0,1,.29-.14.52.52,0,0,1,.31,0l.09,0,.09.05.09.07.09.1.24.25.22.19.21.14.2.09a1,1,0,0,0,.43,0,1.31,1.31,0,0,0,.39-.12,3.53,3.53,0,0,0,.37-.2l.37-.22.87-.47.87-.47.86-.48.85-.5.47-.27a1.42,1.42,0,0,0,.41-.35.7.7,0,0,0,.13-.52,1.79,1.79,0,0,0-.36-.79,7,7,0,0,1-.47-.81c-.15-.3-.31-.6-.47-.89a4.53,4.53,0,0,0-.53-.78,1.53,1.53,0,0,0-.65-.47Z"/><path class="cls-8" d="M173.69,119.48l-.14,0h-.14l-.15,0-.16.08a3.81,3.81,0,0,1-.77.34,6.18,6.18,0,0,0-.81.33,1.28,1.28,0,0,0-.57.53,1.36,1.36,0,0,0-.05,1,4.64,4.64,0,0,0,.38,1,9.38,9.38,0,0,0,.61,1c.23.34.48.67.73,1l.75,1,.09.11.09.08.08.06.08,0a.36.36,0,0,0,.29,0,1.29,1.29,0,0,0,.26-.2,2.22,2.22,0,0,1,.27-.22.49.49,0,0,1,.3-.09l.17,0,.17,0,.15,0,.13,0,.28.27.24.28.22.28.2.29.77-2.31-.6-.92-.6-.92-.6-.92-.6-.91-.24-.37c-.08-.12-.16-.25-.25-.36a2.15,2.15,0,0,0-.28-.3.91.91,0,0,0-.31-.18Z"/><path class="cls-8" d="M116.09,147.88l-.11,0h-.12l-.13,0-.14.08a7,7,0,0,1-.89.47c-.32.15-.65.3-.94.47a2.15,2.15,0,0,0-.7.6,1,1,0,0,0-.15.84,6.66,6.66,0,0,0,.51,1.4,14.62,14.62,0,0,0,.79,1.39c.29.46.6.92.91,1.38s.61.92.87,1.38l.28.07.24.06.2,0h.18a3.23,3.23,0,0,0,1.59-.46,1.8,1.8,0,0,0,.77-1.07,3,3,0,0,0-.07-1.57,7.53,7.53,0,0,0-.92-2l-.29-.46-.28-.46-.29-.45-.31-.44a3.39,3.39,0,0,1-.23-.36l-.22-.4a2.25,2.25,0,0,0-.25-.35.7.7,0,0,0-.29-.21Z"/><path class="cls-8" d="M123.42,144.81a.38.38,0,0,0-.15,0l-.16,0-.16.06-.16.07a7,7,0,0,0-1.6.79,1.59,1.59,0,0,0-.69,1,2.57,2.57,0,0,0,.18,1.38,14.5,14.5,0,0,0,1,2.07l0,.05,0,.05,0,.05,0,.05c.11.2.22.43.33.66s.22.46.35.67a3,3,0,0,0,.4.56,1.23,1.23,0,0,0,.49.33l.1,0,.1,0h.22a4.33,4.33,0,0,0,.81-.2,4.4,4.4,0,0,0,.76-.35,4.52,4.52,0,0,0,.69-.49,4.79,4.79,0,0,0,.6-.63,1.8,1.8,0,0,1,0-.18l0-.17a.79.79,0,0,0,0-.16.26.26,0,0,0,0-.13L126,149l-.77-1.34-.77-1.33-.79-1.31-.05-.07-.05-.05-.06,0-.06,0Z"/><path class="cls-8" d="M160.61,126.14a1.36,1.36,0,0,0-.65.17,11,11,0,0,0-1.07.54,11.49,11.49,0,0,0-1,.65,1.73,1.73,0,0,0-.54.51,1.76,1.76,0,0,0,.23.91,15.87,15.87,0,0,0,.78,1.54c.31.55.66,1.11,1,1.56a4.62,4.62,0,0,0,.83,1h0a1.38,1.38,0,0,0,.73-.14,8.22,8.22,0,0,0,1.1-.52,8.43,8.43,0,0,0,1-.68,1.67,1.67,0,0,0,.55-.59,2.08,2.08,0,0,0-.31-.9c-.22-.45-.53-1-.87-1.58s-.7-1.12-1-1.57a3.79,3.79,0,0,0-.76-.87h0Z"/><path class="cls-8" d="M148.19,132.44l-.2-.06-.17-.06-.15,0h-.13a4.76,4.76,0,0,0-.8.21,3.66,3.66,0,0,0-.72.35,3,3,0,0,0-.6.5,2.8,2.8,0,0,0-.45.67.91.91,0,0,0-.06.61,2.24,2.24,0,0,0,.28.65c.13.22.29.44.45.66s.32.44.44.65l.21.35.22.35.22.35.22.34a4.14,4.14,0,0,1,.25.45l.25.51a2.82,2.82,0,0,0,.27.44.74.74,0,0,0,.32.25l.09,0h.09l.1,0,.1,0a4.88,4.88,0,0,1,.83-.34,6.57,6.57,0,0,0,.87-.34,1.55,1.55,0,0,0,.65-.56,1.45,1.45,0,0,0,.15-1,4.31,4.31,0,0,0-.42-1.27,10,10,0,0,0-.73-1.22c-.27-.4-.57-.8-.84-1.2a11.28,11.28,0,0,1-.75-1.21Z"/><path class="cls-8" d="M135.86,138.2a1.15,1.15,0,0,0-.25-.05h-.27a1.54,1.54,0,0,0-.3.07,2,2,0,0,0-.32.14,5.25,5.25,0,0,0-.84.52,1.54,1.54,0,0,0-.51.66,1.41,1.41,0,0,0,0,.92,4.55,4.55,0,0,0,.72,1.31,3.61,3.61,0,0,1,.25.39c.08.13.15.27.22.42l.21.43c.07.14.14.28.22.42s.18.35.28.53.19.37.3.54a2.52,2.52,0,0,0,.34.45,1.06,1.06,0,0,0,.42.27l.09,0h.31a4,4,0,0,0,.71-.19,6.87,6.87,0,0,0,.66-.29l.63-.32.6-.3a.94.94,0,0,0,.06-.34.92.92,0,0,0-.05-.29,1.7,1.7,0,0,0-.12-.27l-.14-.26-.4-.72-.4-.72-.4-.72-.4-.71-.37-.63a6.51,6.51,0,0,0-.38-.57,2.78,2.78,0,0,0-.41-.45,1.44,1.44,0,0,0-.47-.27Z"/><path class="cls-8" d="M167.33,123.58a2,2,0,0,0-.73-.07,3.82,3.82,0,0,0-.85.16,3.34,3.34,0,0,0-.77.34,1.41,1.41,0,0,0-.5.47,1.48,1.48,0,0,0,.15.85,13.36,13.36,0,0,0,.66,1.48,16.77,16.77,0,0,0,.89,1.55,5,5,0,0,0,.85,1,1.5,1.5,0,0,0,.84-.05,2.43,2.43,0,0,0,.68-.4l.63-.52a2.58,2.58,0,0,1,.69-.41c.09,0,0-.27-.09-.63a12,12,0,0,0-.61-1.3c-.26-.48-.55-1-.83-1.4a5.37,5.37,0,0,0-.75-1l-.06,0-.06,0-.07,0-.08,0Z"/><path class="cls-8" d="M132.33,147.2a1.46,1.46,0,0,0-.55-.07,1.19,1.19,0,0,0-.47.12.92.92,0,0,0-.33.27.68.68,0,0,0-.13.37A3.23,3.23,0,0,0,131,149a5.19,5.19,0,0,0,.47,1,9.57,9.57,0,0,0,.66,1c.24.32.49.62.73.91l.14.15.13.12.13.08.13.05a.63.63,0,0,0,.38,0,1.07,1.07,0,0,0,.34-.18,3.41,3.41,0,0,0,.31-.27l.29-.27a1.62,1.62,0,0,0-.14-.83,12.43,12.43,0,0,0-.56-1.36,13.42,13.42,0,0,0-.72-1.33,2.57,2.57,0,0,0-.62-.76l-.08,0-.08,0-.08,0-.08,0Z"/><path class="cls-8" d="M176.93,84.34a.73.73,0,0,0-.3,0,1,1,0,0,0-.28.07l-.27.13-.27.13-.94.43-.94.44L173,86l-.94.44-.23.1a.63.63,0,0,0-.19.13.4.4,0,0,0-.1.22.94.94,0,0,0,0,.36,6.38,6.38,0,0,0,.43,1.14,5,5,0,0,0,.59.92,3.77,3.77,0,0,0,.71.68,2.89,2.89,0,0,0,.79.42,2.47,2.47,0,0,0,.44.1,2.38,2.38,0,0,0,.45,0,2.42,2.42,0,0,0,.45-.07,2.61,2.61,0,0,0,.45-.15l.65-.29.65-.29.64-.29.64-.3.26-.13.25-.15.26-.16.27-.16a5.8,5.8,0,0,0-.31-1,7.9,7.9,0,0,0-.45-.92c-.17-.3-.36-.59-.55-.88s-.4-.57-.6-.84l-.17-.21-.16-.16-.16-.11-.15-.07Z"/><path class="cls-8" d="M157.3,57.13a1.75,1.75,0,0,0-.69.07c-.33.07-.72.18-1.11.31a10.74,10.74,0,0,0-1.05.41,1.21,1.21,0,0,0-.52.35,1.4,1.4,0,0,0,.19.73,12.46,12.46,0,0,0,.63,1.23c.25.44.53.87.79,1.23a3.26,3.26,0,0,0,.65.74h.06a1.69,1.69,0,0,0,.73,0,7.8,7.8,0,0,0,1.06-.3,7.08,7.08,0,0,0,1-.43,1.18,1.18,0,0,0,.51-.42,1.43,1.43,0,0,0-.19-.75,12.14,12.14,0,0,0-.62-1.23,13.79,13.79,0,0,0-.77-1.21,2.68,2.68,0,0,0-.63-.69h0Z"/><path class="cls-8" d="M175.6,96.08l-.22,0h-.22l-.23.05-.23.1-.37.19-.37.19-.37.19-.36.2a3.89,3.89,0,0,0-.33.21,1,1,0,0,0-.26.27.62.62,0,0,0-.09.38,1.22,1.22,0,0,0,.19.52c.13.23.26.49.39.75s.26.53.4.78a3.65,3.65,0,0,0,.47.67,1.41,1.41,0,0,0,.58.4h.14a2.09,2.09,0,0,0,.7,0c.23,0,.45-.09.67-.15a3.82,3.82,0,0,1,.69-.12,2,2,0,0,1,.75.1l.21.08.22.11.23.15.23.18h0l.07,0,.09-.06.09-.08.07-.06a.65.65,0,0,0,.1-.28.76.76,0,0,0,0-.28,1.4,1.4,0,0,0-.11-.28c0-.09-.11-.19-.17-.28l-.47-.73-.47-.72-.47-.72-.46-.73a4.43,4.43,0,0,0-.26-.37,2.81,2.81,0,0,0-.27-.3,1.81,1.81,0,0,0-.27-.22,1.25,1.25,0,0,0-.28-.14Z"/><polygon class="cls-4" points="202 49.64 191.49 35.78 173.46 23.9 148.48 34.43 190.17 85.22 202 49.64"/><path class="cls-7" d="M98.83,146l-.24.55,57,42.79.21-.64L104.92,150.5l-1.06-.79-3.86-2.9-1-.72,0,0,0,0,0,0h-.13ZM157.08,12.61l-.17.38L173.46,23.9l18,11.88,12.24,8.07,0,0,0,0,0,0,0,0h0l.13-.39L157.08,12.61Z"/><path class="cls-4" d="M264,186.33,259.32,212l27.81,20.13,1.23-8.58L264,186.33ZM253.46,75.4,246,107.33l26.84,31.22L265.19,180l24.14,36.62L301,135.21,253.46,75.4Z"/><path class="cls-5" d="M272.38,55.21l-15.85,7.13L253.46,75.4,301,135.21,309,78.76,272.38,55.21Zm-12.33-7.92-2,8.44,8.95-4-7-4.48Z"/><path class="cls-6" d="M244.1,182.35a1.08,1.08,0,0,1-.3-.16,2.14,2.14,0,0,1-.29-.26c-.1-.1-.19-.22-.28-.34l-.28-.39a2.59,2.59,0,0,1-.35-.65,1,1,0,0,1,0-.49.74.74,0,0,1,.18-.36,1.33,1.33,0,0,1,.33-.26l1.49-.88,1.49-.87,1.48-.86L249,176l.2-.1.19-.05h.19l.19,0a1,1,0,0,1,.26.13,1.61,1.61,0,0,1,.26.22,2.6,2.6,0,0,1,.25.31,4.23,4.23,0,0,1,.24.41,10.07,10.07,0,0,0,.6.94c.21.31.44.63.64,1a5.8,5.8,0,0,1,.52,1,3.63,3.63,0,0,1,.23,1.18l-.55.38-.57.39-.57.41c-.19.15-.37.3-.55.46a1.72,1.72,0,0,1-.29.22,1.18,1.18,0,0,1-.29.13,1,1,0,0,1-.29,0,1,1,0,0,1-.29-.05,1.57,1.57,0,0,1-.39-.2,3,3,0,0,1-.4-.34,5.57,5.57,0,0,1-.41-.46q-.21-.26-.42-.56l-.13-.16-.12-.12-.12-.09-.12-.05a.58.58,0,0,0-.18,0l-.17,0-.17.06-.16.09-.46.26-.46.25-.45.26-.44.28-.18.1-.17.05h-.17l-.16,0Zm-1-7.66a1.13,1.13,0,0,1-.47-.35,4,4,0,0,1-.42-.61c-.13-.23-.26-.47-.39-.71s-.25-.47-.37-.66c-.5-.8-.87-1.4-1.12-1.87a2.43,2.43,0,0,1-.36-1.09.91.91,0,0,1,.39-.7,7.82,7.82,0,0,1,1.13-.71l.13-.08.13-.08.14-.08.15-.06a1.76,1.76,0,0,0,.45-.21l.43-.28a1.69,1.69,0,0,1,.45-.2.85.85,0,0,1,.49,0l.12,0,.12.07.12.09.13.11a7.44,7.44,0,0,1,.9,1,13,13,0,0,1,.76,1.18c.24.41.47.83.69,1.26s.45.85.68,1.26a.41.41,0,0,1,0,.14,1.06,1.06,0,0,1,0,.16c0,.06,0,.12,0,.18s0,.13,0,.19l-.92.66c-.31.22-.63.42-1,.61a6.43,6.43,0,0,1-1,.47,4.83,4.83,0,0,1-1.15.25h-.18l-.06,0Zm-5.69-11.25,0,0,0,0,0,0,0,0c-.2-.31-.44-.61-.67-.92s-.47-.63-.69-1a6.33,6.33,0,0,1-.56-1,3.62,3.62,0,0,1-.29-1.11c0-.16.15-.36.42-.55a5.52,5.52,0,0,1,1-.55,7.44,7.44,0,0,1,1.17-.39,1.79,1.79,0,0,1,.83-.06h0l0,0,0,0,0,0c.2.32.45.64.7,1s.5.64.72,1a4.25,4.25,0,0,1,.52,1,2.28,2.28,0,0,1,.1,1.1,1.16,1.16,0,0,1-.44.63,4,4,0,0,1-.9.55,4.7,4.7,0,0,1-1,.34,1.8,1.8,0,0,1-.85,0Zm-.31-18.3-1.82,7.78,0,.16,0,.17,0,.17c0,.06,0,.11,0,.17l-.1.06-.09.06-.09.06-.09.06-8.14,34.74.05,0,.05,0,.05,0,.05,0L259.32,212,264,186.33l-26.93-41.18Zm23.22,20.67a1.56,1.56,0,0,1-.68-.49,4.74,4.74,0,0,1-.53-.8c-.16-.3-.32-.61-.49-.9a4.26,4.26,0,0,0-.54-.78,2.56,2.56,0,0,1-.45-.63,1,1,0,0,1-.11-.52.74.74,0,0,1,.15-.4A1.12,1.12,0,0,1,258,161l2.15-1.21,2.15-1.19,2.14-1.19,2.13-1.18.14-.08.15-.07.15,0a.45.45,0,0,1,.17,0l.11.05.12.08.13.12.14.17a4.14,4.14,0,0,1,.25.36,2.16,2.16,0,0,1,.18.37,1.49,1.49,0,0,1,.09.39,1.4,1.4,0,0,1,0,.43l-.14.09-.16.1-.18.11-.19.12-.83.5-.83.51L265,160c-.29.16-.57.32-.87.46a2.7,2.7,0,0,0-.58.36,1,1,0,0,0-.32.49,1.26,1.26,0,0,0,.06.72,4.45,4.45,0,0,0,.57,1.05,1.74,1.74,0,0,1,.27.56.68.68,0,0,1,0,.4.7.7,0,0,1-.2.28,1.63,1.63,0,0,1-.28.2l-.62.38-.62.38a6.87,6.87,0,0,1-.65.33,4.45,4.45,0,0,1-.7.24l-.21,0h-.2l-.18,0-.17,0Zm-5.77-9.11-.09,0-.09,0-.09,0-.09,0a4.8,4.8,0,0,1-1.16-1.25,5.45,5.45,0,0,1-.68-1.52,3.48,3.48,0,0,1-.11-1.42,1.45,1.45,0,0,1,.55-1l.09-.06.09-.06.09-.06.1-.06a4.85,4.85,0,0,1,.6-.31,3,3,0,0,1,.56-.18,2.11,2.11,0,0,1,.53,0,1.85,1.85,0,0,1,.5.09,2.29,2.29,0,0,1,.67.37,4.13,4.13,0,0,1,.66.66,8.44,8.44,0,0,1,.66,1c.23.37.45.8.69,1.27l.09.2a2.09,2.09,0,0,1,.07.21,2,2,0,0,1,0,.2,1.24,1.24,0,0,1,0,.19c0,.09-.21.27-.53.48s-.74.46-1.18.69-.89.45-1.25.6a1.72,1.72,0,0,1-.73.21Zm-6-8.66a1.71,1.71,0,0,1-.69-.5,6.35,6.35,0,0,1-.64-.88c-.21-.33-.41-.69-.62-1s-.4-.69-.61-1a1.85,1.85,0,0,1-.3-.6.66.66,0,0,1,0-.42.77.77,0,0,1,.22-.29,3,3,0,0,1,.3-.22l.54-.34.55-.32.55-.31.55-.31.1-.06.1-.05.11,0h.19a2.69,2.69,0,0,1,.86.71,13.54,13.54,0,0,1,1.07,1.35,12.44,12.44,0,0,1,.89,1.45,2.06,2.06,0,0,1,.31,1c-.21.24-.43.49-.67.72a5.39,5.39,0,0,1-.76.62,3.43,3.43,0,0,1-.87.42,2.72,2.72,0,0,1-1,.12h-.16l-.05,0Zm-5-7.27a.6.6,0,0,1-.18-.1,1.42,1.42,0,0,1-.18-.18l-.17-.22-.16-.23c-.7-1.05-1.3-1.81-1.75-2.39a4.18,4.18,0,0,1-.82-1.34c-.08-.35,0-.64.43-1a15,15,0,0,1,2-1.37,1.08,1.08,0,0,0,.2-.17l.19-.2a.62.62,0,0,1,.22-.14.46.46,0,0,1,.29,0l.13.06.15.1.17.14.19.19a16.3,16.3,0,0,1,1.09,1.28,15,15,0,0,1,.92,1.35,7.2,7.2,0,0,1,.6,1.21,1.48,1.48,0,0,1,.12.85l-.76.52-.79.54-.81.55-.84.53-.06,0h-.12l-.06,0Zm2.4-33.45-3.53,15.08.15-.05.15,0h.16l.16,0a.93.93,0,0,1,.21.1,1.44,1.44,0,0,1,.22.18,2.54,2.54,0,0,1,.24.27,4.4,4.4,0,0,1,.26.37,4.66,4.66,0,0,1,.4.77,1.44,1.44,0,0,1,.11.58.69.69,0,0,1-.17.43,1.22,1.22,0,0,1-.45.3l-.57.26-.55.28-.54.3-.52.32-.06,0-.06,0-.06,0-.06,0-.38,1.63.07.12.08.12.09.13.1.13a.85.85,0,0,1,.1.18,1.58,1.58,0,0,1,.08.23,1,1,0,0,1,0,.2.16.16,0,0,1,0,.12l-.24.2-.25.2-.25.19-.26.18-2.15,9.15L265.19,180l7.63-41.48L246,107.33Z"/><path class="cls-2" d="M238.21,140.46l-.86,3.68,51.18,78.17.63-4.44-51-77.4ZM268,52.37,257.8,56.88l-1,4.28,14.63-6.56L268,52.37Z"/><polygon class="cls-7" points="237.35 144.14 237.11 145.15 288.36 223.53 288.53 222.31 237.35 144.14 237.35 144.14"/><path class="cls-7" d="M238.44,139.46l-.23,1,51,77.4.17-1.2L265.19,180l-26.75-40.58Zm33-84.87L256.8,61.16l-.28,1.18,15.85-7.13-.95-.61Z"/><polygon class="cls-7" points="267.02 51.76 258.07 55.72 257.8 56.88 267.96 52.37 267.02 51.76 267.02 51.76"/><path class="cls-8" d="M235.29,152.93l-.21.9.09-.06.09-.06.09-.06.1-.06c0-.06,0-.12,0-.17l0-.17,0-.17,0-.16Z"/><path class="cls-8" d="M249.77,175.85l-.19,0h-.19l-.19.05-.2.1-1.48.87-1.48.86-1.49.87-1.49.88a1.33,1.33,0,0,0-.33.26.74.74,0,0,0-.18.36,1,1,0,0,0,0,.49,2.59,2.59,0,0,0,.35.65l.28.39c.09.12.19.24.28.34a2.14,2.14,0,0,0,.29.26,1.08,1.08,0,0,0,.3.16l.16,0h.17l.17-.05.18-.1.44-.28.45-.26.46-.25.46-.26.16-.09.17-.06.17,0a.58.58,0,0,1,.18,0l.12.05.12.09.12.12.13.16q.21.31.42.56a5.57,5.57,0,0,0,.41.46,3,3,0,0,0,.4.34,1.57,1.57,0,0,0,.39.2,1,1,0,0,0,.29.05,1,1,0,0,0,.29,0,1.18,1.18,0,0,0,.29-.13,1.72,1.72,0,0,0,.29-.22c.18-.16.36-.32.55-.46l.57-.41.57-.39.55-.38a3.63,3.63,0,0,0-.23-1.18,5.8,5.8,0,0,0-.52-1c-.2-.33-.43-.64-.64-1a10.07,10.07,0,0,1-.6-.94,4.23,4.23,0,0,0-.24-.41,2.6,2.6,0,0,0-.25-.31A1.61,1.61,0,0,0,250,176a1,1,0,0,0-.26-.13Z"/><path class="cls-8" d="M243.86,167a.85.85,0,0,0-.49,0,1.69,1.69,0,0,0-.45.2l-.43.28a1.76,1.76,0,0,1-.45.21l-.15.06-.14.08-.13.08-.13.08a7.82,7.82,0,0,0-1.13.71.91.91,0,0,0-.39.7,2.43,2.43,0,0,0,.36,1.09c.25.47.62,1.07,1.12,1.87.12.2.24.42.37.66s.26.48.39.71a4,4,0,0,0,.42.61,1.13,1.13,0,0,0,.47.35l.06,0h.18a4.83,4.83,0,0,0,1.15-.25,6.43,6.43,0,0,0,1-.47c.33-.19.65-.39,1-.61l.92-.66c0-.07,0-.13,0-.19s0-.12,0-.18a1.06,1.06,0,0,0,0-.16.41.41,0,0,0,0-.14c-.23-.41-.45-.84-.68-1.26s-.45-.85-.69-1.26a13,13,0,0,0-.76-1.18,7.44,7.44,0,0,0-.9-1l-.13-.11-.12-.09-.12-.07-.12,0Z"/><path class="cls-8" d="M238.5,157.81a1.79,1.79,0,0,0-.83.06,7.44,7.44,0,0,0-1.17.39,5.52,5.52,0,0,0-1,.55c-.27.19-.44.39-.42.55a3.62,3.62,0,0,0,.29,1.11,6.33,6.33,0,0,0,.56,1c.22.33.46.64.69,1s.47.62.67.92l0,0,0,0,0,0,0,0a1.8,1.8,0,0,0,.85,0,4.7,4.7,0,0,0,1-.34,4,4,0,0,0,.9-.55,1.16,1.16,0,0,0,.44-.63,2.28,2.28,0,0,0-.1-1.1,4.25,4.25,0,0,0-.52-1c-.22-.33-.47-.65-.72-1s-.49-.64-.7-1l0,0,0,0,0,0Z"/><path class="cls-8" d="M241.06,128.31l-.47,2,.26-.18.25-.19.25-.2.24-.2a.16.16,0,0,0,0-.12,1,1,0,0,0,0-.2,1.58,1.58,0,0,0-.08-.23.85.85,0,0,0-.1-.18l-.1-.13-.09-.13-.08-.12-.07-.12Zm2-6-.16,0h-.16l-.15,0-.15.05-1,4.28.06,0,.06,0,.06,0,.06,0,.52-.32.54-.3.55-.28.57-.26a1.22,1.22,0,0,0,.45-.3.69.69,0,0,0,.17-.43,1.44,1.44,0,0,0-.11-.58,4.66,4.66,0,0,0-.4-.77,4.4,4.4,0,0,0-.26-.37,2.54,2.54,0,0,0-.24-.27,1.44,1.44,0,0,0-.22-.18.93.93,0,0,0-.21-.1Z"/><path class="cls-8" d="M267.2,156.09a.45.45,0,0,0-.17,0l-.15,0-.15.07-.14.08-2.13,1.18-2.14,1.19-2.15,1.19L258,161a1.12,1.12,0,0,0-.35.29.74.74,0,0,0-.15.4,1,1,0,0,0,.11.52,2.56,2.56,0,0,0,.45.63,4.26,4.26,0,0,1,.54.78c.17.29.32.61.49.9a4.74,4.74,0,0,0,.53.8,1.56,1.56,0,0,0,.68.49l.17,0,.18,0h.2l.21,0a4.45,4.45,0,0,0,.7-.24,6.87,6.87,0,0,0,.65-.33l.62-.38.62-.38a1.63,1.63,0,0,0,.28-.2.7.7,0,0,0,.2-.28.68.68,0,0,0,0-.4,1.74,1.74,0,0,0-.27-.56,4.45,4.45,0,0,1-.57-1.05,1.26,1.26,0,0,1-.06-.72,1,1,0,0,1,.32-.49,2.7,2.7,0,0,1,.58-.36c.3-.15.58-.3.87-.46l.85-.49.83-.51.83-.5.19-.12.18-.11.16-.1.14-.09a1.4,1.4,0,0,0,0-.43,1.49,1.49,0,0,0-.09-.39,2.16,2.16,0,0,0-.18-.37,4.14,4.14,0,0,0-.25-.36l-.14-.17-.13-.12-.12-.08-.11-.05Z"/><path class="cls-8" d="M243.64,133.45a.46.46,0,0,0-.29,0,.62.62,0,0,0-.22.14l-.19.2a1.08,1.08,0,0,1-.2.17,15,15,0,0,0-2,1.37c-.39.36-.51.65-.43,1a4.18,4.18,0,0,0,.82,1.34c.44.58,1,1.34,1.75,2.39l.16.23.17.22a1.42,1.42,0,0,0,.18.18.6.6,0,0,0,.18.1l.06,0h.12l.06,0,.84-.53.81-.55.79-.54.76-.52a1.48,1.48,0,0,0-.12-.85,7.2,7.2,0,0,0-.6-1.21,15,15,0,0,0-.92-1.35,16.3,16.3,0,0,0-1.09-1.28l-.19-.19-.17-.14-.15-.1-.13-.06Z"/><path class="cls-8" d="M248.93,141.71h-.19l-.11,0-.1.05-.1.06-.55.31-.55.31-.55.32-.54.34a3,3,0,0,0-.3.22.77.77,0,0,0-.22.29.66.66,0,0,0,0,.42,1.85,1.85,0,0,0,.3.6c.2.29.4.63.61,1s.41.71.62,1a6.35,6.35,0,0,0,.64.88,1.71,1.71,0,0,0,.69.5l.05,0h.16a2.72,2.72,0,0,0,1-.12,3.43,3.43,0,0,0,.87-.42,5.39,5.39,0,0,0,.76-.62c.24-.23.46-.47.67-.72a2.06,2.06,0,0,0-.31-1,12.44,12.44,0,0,0-.89-1.45,13.54,13.54,0,0,0-1.07-1.35,2.69,2.69,0,0,0-.86-.71Z"/><path class="cls-8" d="M255.33,150.67a1.85,1.85,0,0,0-.5-.09,2.11,2.11,0,0,0-.53,0,3,3,0,0,0-.56.18,4.85,4.85,0,0,0-.6.31l-.1.06-.09.06-.09.06-.09.06a1.45,1.45,0,0,0-.55,1,3.48,3.48,0,0,0,.11,1.42,5.45,5.45,0,0,0,.68,1.52,4.8,4.8,0,0,0,1.16,1.25l.09,0,.09,0,.09,0,.09,0a1.72,1.72,0,0,0,.73-.21c.36-.15.81-.37,1.25-.6s.86-.48,1.18-.69.52-.39.53-.48a1.24,1.24,0,0,0,0-.19,2,2,0,0,0,0-.2,2.09,2.09,0,0,0-.07-.21l-.09-.2c-.24-.48-.46-.9-.69-1.27a8.44,8.44,0,0,0-.66-1A4.13,4.13,0,0,0,256,151a2.29,2.29,0,0,0-.67-.37Z"/><path class="cls-7" d="M260.15,46.88l-.1.41,7,4.48.94.61,3.47,2.23.95.61L309,78.76,301,135.21l-11.63,81.45-.17,1.2-.63,4.44-.17,1.23-1.23,8.58L259.32,212l-32.18-23.3-.05,0-.05,0-.05,0-.05,0-.14.59,60.87,44.09L309.6,78.65,260.15,46.88Z"/><path class="cls-7" d="M299.19,256.85l22.2-180.26a.37.37,0,0,0,0-.13.49.49,0,0,0-.06-.13.66.66,0,0,0-.1-.12l-.13-.11-58.82-37.5,0,0,0,0,0,0,0,0-.18.76h0l58.38,37.25L298,255.43l-73.8-54-.05,0-.05,0-.05,0-.06,0h0l-.3,1.26h0l74.56,54.6.05,0,.06,0,.06,0,.06,0,.1,0h.21l.1,0,.13-.07a.56.56,0,0,0,.18-.24A.62.62,0,0,0,299.19,256.85Z"/><path class="cls-7" d="M262.11,38.51h-.18L206.87,35l-.26.78h.19l55.13,3.46Z"/><path class="cls-7" d="M206.87,35,160.69,4.81l0,0,0,0,0,0,0,0h0l-.31.72,46.23,30.24,0,0,0,0,0,0,0,0h0l.26-.78Z"/><path class="cls-7" d="M223.94,201.33l-.06,0h-.17l-72.31.54h0l-.43,1.3.06,0h.19l72.44-.59Z"/><path class="cls-7" d="M93.8,158.09l0,0,0,0-.05,0-.06,0h0l-.52,1.18L150.74,203l0,0,.05,0,.05,0,.06,0h0l.43-1.3Z"/><path class="cls-7" d="M93.53,158h-.18L1.91,157,91.15.32l69.06,5.12.31-.72h-.18L90.78-.49h-.17l-.15,0-.12.07a.36.36,0,0,0-.09.1L.08,157.39a.62.62,0,0,0-.06.15.57.57,0,0,0,0,.15.53.53,0,0,0,0,.15.57.57,0,0,0,.06.14l.06.08.08.07.09.05.1,0,.06,0H.67l92.41.92h0l.52-1.18Z"/><path class="cls-2" d="M206.61,35.77l0,0,0,0,0,0,0,0L160.21,5.45l-3,6.81h0l0,0,0,0,0,0,0,0,46.76,30.8h0l2.45-7.36Z"/><path class="cls-2" d="M261.93,39.27,206.8,35.81h-.19l-2.45,7.36,55.89,3.33h.18Z"/><path class="cls-2" d="M23.38,146h-.18l-.06,0-.1,0-.09-.05-.08-.06-.06-.07a.51.51,0,0,1-.1-.28.52.52,0,0,1,0-.15.58.58,0,0,1,.06-.15L97.92,8.26a.37.37,0,0,1,.09-.1l.12-.07.15,0h.17l58.59,4.18h.19l3-6.81L91.15.32,1.91,157l91.44,1h.18l.06,0,4.74-10.86Z"/><polygon class="cls-7" points="98.83 145.98 98.68 146.33 98.83 145.98 98.83 145.98"/><path class="cls-7" d="M98.59,146.53l.09-.2.15-.35-.05,0H98.6L24.55,144.8,49.66,98.85l.67-1.23,2.44-4.47.66-1.21L84.21,35.63,98.84,8.87,156.91,13l.32-.74h-.19L98.46,8h-.17l-.15,0L98,8.16a.37.37,0,0,0-.09.1L22.79,145.17a.58.58,0,0,0-.06.15.51.51,0,0,0,0,.29.53.53,0,0,0,.07.13l.06.07.08.06.09.05.1,0,.06,0h.18l75,1.12.26-.6Z"/><path class="cls-7" d="M98.59,146.53l-.26.6,56.8,42.7,0,0,.05,0,.05,0,.06,0h0l.2-.61Z"/><path class="cls-7" d="M288.32,233.47,310.13,78.82a.37.37,0,0,0,0-.13.48.48,0,0,0-.05-.13.67.67,0,0,0-.1-.13l-.13-.11L260.41,46.58l0,0,0,0,0,0,0,0h-.18l-55.89-3.33-.27.8h.19l56,3.32.1-.41L309.6,78.65l-21.94,154.6-60.87-44.09.14-.59h0l-.06,0h-.17l-27.54.06H197.5l-41.73.08-.21.64-.2.61.06,0h.18l71.06-.18,60.7,44,.05,0,.05,0,.06,0,.06,0,.1,0h.2l.09,0,.13-.06.11-.1a.56.56,0,0,0,.08-.13A.58.58,0,0,0,288.32,233.47Z"/><path class="cls-7" d="M204.16,43.13,157.4,12.33l0,0,0,0,0,0,0,0h0l-.32.74.17-.38L204,43.54l-.13.39h0l.27-.8Z"/><path class="cls-2" d="M155.35,189.93l-.06,0-.05,0-.05,0,0,0-56.8-42.7L93.59,158h0l.06,0,.05,0,0,0,0,0,57.6,43.74,4-11.9Z"/><path class="cls-2" d="M226.65,189.79l-71.06.18h-.18l-.06,0-4,11.9h0l72.31-.54h.17l.06,0Z"/><path class="cls-10" d="M206.72,35.81,207,35,160.8,4.84l0,0,0,0,0,0,0,0L93.18,159.21l57.67,43.85,0,0,.05,0,.06,0,.06,0,.43-1.3Z"/><path class="cls-10" d="M299.19,256.85l22.2-180.26a.37.37,0,0,0,0-.13.49.49,0,0,0-.06-.13.66.66,0,0,0-.1-.12l-.13-.11-58.82-37.5,0,0,0,0,0,0,0,0L223.65,202.59l74.56,54.6.05,0,.06,0,.06,0,.06,0,.1,0h.21l.1,0,.13-.07a.56.56,0,0,0,.18-.24A.62.62,0,0,0,299.19,256.85Z"/><path class="cls-11" d="M304.69,179.1a7.59,7.59,0,0,1,8.82,6.09l7.62-1.4A15.32,15.32,0,0,0,291,189.32l7.63-1.4A7.58,7.58,0,0,1,304.69,179.1Z"/><path class="cls-11" d="M233.81,133.48a7.57,7.57,0,0,1,8.81,6.09l7.63-1.4a15.32,15.32,0,0,0-30.14,5.52l7.63-1.39A7.56,7.56,0,0,1,233.81,133.48Z"/><path class="cls-11" d="M326.07,144.93a7.55,7.55,0,0,1,8.8,6.07l7.63-1.39a15.32,15.32,0,0,0-30.14,5.53l7.63-1.4A7.57,7.57,0,0,1,326.07,144.93Z"/><path class="cls-11" d="M319.73,169.64a7.58,7.58,0,0,1,8.81,6.08l7.62-1.39A15.32,15.32,0,1,0,306,179.85l7.63-1.4A7.57,7.57,0,0,1,319.73,169.64Z"/><path class="cls-11" d="M271.54,188.46a7.56,7.56,0,0,1,8.81,6.08l7.62-1.4a15.32,15.32,0,1,0-30.13,5.52l7.63-1.39A7.56,7.56,0,0,1,271.54,188.46Z"/><path class="cls-11" d="M240.71,180.34a7.57,7.57,0,0,1,8.82,6.08l7.62-1.4A15.32,15.32,0,0,0,227,190.55l7.62-1.4A7.57,7.57,0,0,1,240.71,180.34Z"/><path class="cls-11" d="M231.71,166.42a7.56,7.56,0,0,1,8.81,6.08l7.62-1.39A15.32,15.32,0,1,0,218,176.63l7.62-1.4A7.57,7.57,0,0,1,231.71,166.42Z"/><path class="cls-12" d="M283.5,196.32a56.06,56.06,0,0,1-31.49-3c-13.53-5.6-22.27-16.27-24.59-30C222.81,136,259.73,108.26,260.1,108l2.5.07c-.36.27-37,27.72-32.4,54.75,2.29,13.59,8.68,23,22,28.56a57.5,57.5,0,0,0,23.45,4.29,54.53,54.53,0,0,0,13.52-2.48c29.74-8.56,41.52-24.2,37.44-48.05s-44.53-39-45-39.11l.17-2c.44.16,43.42,16.42,47.57,40.61,2.07,12.06-.41,22.54-7.33,31.14-6.8,8.44-17.74,14.89-32.52,19.13A61.33,61.33,0,0,1,283.5,196.32Z"/><path class="cls-11" d="M240.52,172.5a7.57,7.57,0,0,1-14.89,2.73l-7.62,1.4a15.32,15.32,0,0,0,30.14-5.52Z"/><path class="cls-11" d="M249.53,186.42a7.57,7.57,0,0,1-14.89,2.73l-7.62,1.4A15.32,15.32,0,1,0,257.15,185Z"/><path class="cls-11" d="M313.51,185.2a7.57,7.57,0,0,1-14.89,2.72l-7.63,1.4a15.32,15.32,0,0,0,30.14-5.52Z"/><path class="cls-11" d="M280.35,194.54a7.57,7.57,0,1,1-14.88,2.73l-7.63,1.39A15.32,15.32,0,1,0,288,193.14Z"/><path class="cls-11" d="M328.54,175.72a7.57,7.57,0,1,1-14.89,2.73l-7.63,1.4a15.32,15.32,0,0,0,30.14-5.52Z"/><path class="cls-11" d="M334.87,151A7.57,7.57,0,1,1,320,153.73l-7.63,1.4a15.32,15.32,0,1,0,30.14-5.53Z"/><path class="cls-11" d="M242.62,139.57a7.57,7.57,0,1,1-14.88,2.73l-7.63,1.39a15.32,15.32,0,1,0,30.14-5.52Z"/><path class="cls-13" d="M334.79,55c0,38.41-40.33,80-51.28,90.61a3.91,3.91,0,0,1-5.43,0c-11-10.59-51.28-52.2-51.28-90.61a54,54,0,0,1,108,0Z"/><path class="cls-12" d="M321.91,75.63c0,21.93-19.18,39.72-41.11,39.72s-41.11-17.79-41.11-39.72,19.18-43.9,41.11-43.9S321.91,53.7,321.91,75.63Z"/><ellipse class="cls-12" cx="245.82" cy="51.1" rx="9.76" ry="9.75"/><ellipse class="cls-12" cx="315.76" cy="51.1" rx="9.76" ry="9.75"/><circle class="cls-14" cx="245.82" cy="51.1" r="6.24"/><circle class="cls-14" cx="315.77" cy="51.1" r="6.24"/><circle class="cls-15" cx="268.21" cy="63.9" r="1.81"/><circle class="cls-15" cx="293.38" cy="63.9" r="1.81"/><path class="cls-16" d="M295.29,84c0,7.73-6.76,14-14.5,14s-14.5-6.27-14.5-14,6.76-15.49,14.5-15.49S295.29,76.3,295.29,84Z"/><path class="cls-15" d="M277.56,90.36h-.18a3.84,3.84,0,0,1-3-2,.54.54,0,0,1,.17-.75.54.54,0,0,1,.75.17,2.85,2.85,0,0,0,2.12,1.54,4.25,4.25,0,0,0,2.81-1.46v-5a.54.54,0,0,1,1.09,0V88a.53.53,0,0,1-.12.35C281.15,88.45,279.55,90.36,277.56,90.36Z"/><path class="cls-15" d="M284,90.36c-2,0-3.59-1.91-3.65-2a.54.54,0,0,1-.13-.35V82.8a.54.54,0,0,1,1.09,0v5a4.15,4.15,0,0,0,2.81,1.46,2.83,2.83,0,0,0,2.11-1.55.54.54,0,0,1,.92.59,3.83,3.83,0,0,1-3,2Z"/><path class="cls-12" d="M276.73,76.84c0-2.16,1.9-2.31,4.06-2.31s4.06.14,4.06,2.31-1.89,6-4.06,6S276.73,79,276.73,76.84Z"/><path class="cls-11" d="M239.49,63.16c-14.44,0-23.27-10.46-24.86-14.27-1.19-2.87-1.79-6.67-.44-8.7a3.62,3.62,0,0,1,3.24-1.51,16.54,16.54,0,0,1,7,2.17,14.28,14.28,0,0,0,6.53,1.5c10.83,0,22.6-10.46,24-11.75l8.66,23.91c-8.34,5.74-16.44,8.66-24.09,8.66Z"/><path class="cls-17" d="M254.87,30.81l8.56,23.65C255.15,60.15,247.1,63,239.49,63c-14.37,0-23.17-10.41-24.75-14.2-1.18-2.84-1.78-6.59-.45-8.59a3.5,3.5,0,0,1,3.13-1.45h0a16.43,16.43,0,0,1,6.9,2.16,14.4,14.4,0,0,0,6.58,1.51c10.58,0,22-9.93,24-11.66m.11-.44s-12.5,11.85-24.07,11.85a14.12,14.12,0,0,1-6.47-1.48c-3-1.55-5.33-2.18-7-2.18-5.34,0-4.56,6.44-2.92,10.38,1.48,3.54,10.22,14.35,25,14.35,6.83,0,15-2.31,24.24-8.73L255,30.37Z"/><path class="cls-11" d="M322.09,63.16c-7.65,0-15.76-2.91-24.09-8.66l8.66-23.91c1.41,1.29,13.19,11.75,24,11.75a14.28,14.28,0,0,0,6.53-1.5,16.54,16.54,0,0,1,7-2.17,3.63,3.63,0,0,1,3.24,1.51c1.36,2,.76,5.84-.44,8.7C345.37,52.7,336.53,63.16,322.09,63.16Z"/><path class="cls-17" d="M306.71,30.81c1.92,1.73,13.38,11.66,24,11.66A14.4,14.4,0,0,0,337.25,41a16.42,16.42,0,0,1,6.9-2.16,3.51,3.51,0,0,1,3.14,1.45c1.33,2,.73,5.75-.45,8.58C345.26,52.63,336.46,63,322.09,63c-7.6,0-15.65-2.89-23.94-8.58l8.56-23.65m-.11-.44-8.76,24.18c9.29,6.42,17.41,8.73,24.24,8.73,14.76,0,23.5-10.81,25-14.35,1.64-3.94,2.42-10.38-2.92-10.38-1.68,0-4,.64-7,2.18a14.11,14.11,0,0,1-6.47,1.48c-11.56,0-24.07-11.85-24.07-11.85Z"/><path class="cls-18" d="M314.13,43.81c0,6.08-5.82,11-13,11H259.74c-7.19,0-13-4.93-13-11V29.26c0-6.08,5.83-11,13-11h41.37c7.19,0,13,4.93,13,11Z"/><polygon class="cls-19" points="283.99 31.18 291.48 32.52 285.87 37.66 286.91 45.2 280.29 41.45 273.44 44.77 274.96 37.31 269.69 31.82 277.25 30.97 280.84 24.25 283.99 31.18"/></svg>