<svg xmlns="http://www.w3.org/2000/svg" xmlns:xlink="http://www.w3.org/1999/xlink" viewBox="0 0 362.31 263.84"><defs><style>.cls-1{fill:none;}.cls-2{isolation:isolate;}.cls-3{fill:#fff;}.cls-4{fill:#e6ddca;}.cls-5{fill:#8dc63f;}.cls-6{fill:#00aeef;}.cls-7{fill:#53a9ff;}.cls-8{fill:#ccc;}.cls-9{clip-path:url(#clip-path);}.cls-10{fill:#fbb040;}.cls-11{clip-path:url(#clip-path-2);}.cls-12{fill:#f1f2f2;}.cls-12,.cls-13{mix-blend-mode:multiply;}.cls-13{fill:#d5d7d8;}.cls-14{fill:#0e69b4;}.cls-15{fill:#854336;}.cls-16{fill:#692214;}.cls-17{fill:#020102;}.cls-18{fill:#f6e0bd;}.cls-19{fill:#d96900;}.cls-20{fill:#a34f00;}.cls-21{fill:#ed9926;}.cls-22{fill:#d41900;}</style><clipPath id="clip-path"><polygon class="cls-1" points="342.91 67.35 302.78 247.01 202.23 237.24 267.8 67.26 342.91 67.35"/></clipPath><clipPath id="clip-path-2"><polygon class="cls-1" points="209.08 18.96 117.72 179.33 202.23 237.24 267.8 67.26 209.08 18.96"/></clipPath></defs><title>routs_map1_bear</title><g class="cls-2"><g id="routs"><polygon class="cls-3" points="126.85 0.73 0 162.74 113.95 188.12 199.85 246.42 309.35 257.34 350 62.17 269.29 62.17 210.98 14.31 126.85 0.73"/><path class="cls-4" d="M198.48,31.29,209.26,19l-1-.15c-4.31,3-9.77,6.84-15.86,11.24Z"/><polygon class="cls-4" points="201.69 31.93 205.25 25.67 200.05 31.61 201.69 31.93"/><path class="cls-4" d="M188.73,20l3.75-3.67L131.57,6.26l-7.65,9.88,54.44,11.13C182,24.69,185.47,22.25,188.73,20Z"/><path class="cls-4" d="M190.41,31.53c-3.53,2.53-7.26,5.22-11.07,8l5.78,6.53,12-13.25Z"/><polygon class="cls-4" points="186.12 47.39 190.2 52.1 200.72 33.63 198.72 33.23 186.12 47.39"/><path class="cls-4" d="M128.42,144.1l-18.87,17.73,15.15,5.24,14.22-24.95c-.93-.54-2.29-1.16-3.51-1.77Z"/><path class="cls-4" d="M127.2,135.86a74.17,74.17,0,0,1-10.79-7.57,43.32,43.32,0,0,1-5.38-5.51l-1.22-.56-13.9,3.39-15.1,12.61L112,149.95Z"/><polygon class="cls-4" points="102.4 161.36 89.02 173.2 90.74 173.57 103.68 161.8 102.4 161.36"/><polygon class="cls-4" points="97.25 100.85 69.1 86.88 60.65 97.78 86.43 109.46 97.25 100.85"/><polygon class="cls-4" points="59.81 132.38 23.38 158.94 45.51 163.79 76.93 138.83 59.81 132.38"/><polygon class="cls-4" points="45.18 117.75 14.74 157.04 20.69 158.34 73.18 119.78 45.18 117.75"/><polygon class="cls-4" points="91.91 121.02 76.07 119.97 61.63 131.01 78.66 137.41 93.52 125.09 91.91 121.02"/><polygon class="cls-4" points="84.67 110.85 59.39 99.41 46.41 116.16 75.21 118.21 84.67 110.85"/><polygon class="cls-4" points="79.09 139.64 48.15 164.36 86.43 172.65 110.36 151.41 79.09 139.64"/><path class="cls-4" d="M106.71,115.76a28.56,28.56,0,0,1-1.37-17.9c.11-.5.24-1,.39-1.51l-17.36,14,14.33,6.48Z"/><polygon class="cls-4" points="92.82 119.38 99.63 117.63 86.61 111.73 78.09 118.41 92.83 119.36 92.82 119.38"/><polygon class="cls-4" points="173.33 73.57 177.22 74.9 178.05 73.44 174.45 72.33 173.33 73.57"/><polygon class="cls-4" points="172.77 71.79 164.09 69.14 163.09 70.13 171.61 72.97 172.77 71.79"/><polygon class="cls-4" points="156.97 89.91 166.06 94.47 176.25 76.58 171.75 75.07 156.97 89.91"/><path class="cls-4" d="M144.23,85.77l-12.13-6c-5.72,6.57-9.21,12.49-10.29,17.66,0,.12,0,.24-.07.37l16.11,8.13,2.06-1.94-2.74-.89Z"/><polygon class="cls-4" points="163.31 64.95 175.68 68.89 185.24 59.09 167.85 56.04 155.09 67.62 159.25 68.93 163.31 64.95"/><polygon class="cls-4" points="177.57 69.18 179.97 70.06 182.16 66.22 180.81 65.98 177.57 69.18"/><polygon class="cls-4" points="178.34 56.19 187.01 57.69 187.83 56.25 182.95 50.92 178.34 56.19"/><polygon class="cls-4" points="157.76 70.35 153.54 68.94 139.62 81.23 145.01 83.91 145.97 81.6 157.76 70.35"/><path class="cls-4" d="M137.69,125.91l12.1-11.75-23.63-11.9-4.61,4.06C123,114.64,129.29,120.71,137.69,125.91Z"/><path class="cls-4" d="M161.57,53.24l14.72,2.59L182,49.59l-6.31-7.26c-.61.46-1.31,1.05-1.92,1.51C169.51,47,165.69,49.74,161.57,53.24Z"/><path class="cls-4" d="M139.25,126.92c2.08,1.22,3.54,2,6.33,3.49l8.09-14.19-2.33-1.2Z"/><polygon class="cls-4" points="139.66 106.81 151.31 112.67 155.11 108.91 141.96 104.62 139.66 106.81"/><path class="cls-4" d="M176.33,28.7l-53.62-11-3,3.84L171.8,31.92Z"/><path class="cls-4" d="M104,159.9l1.24.43,19.67-18.52,6.73-3.45c-.89-.48-1.78-1-2.66-1.46Z"/><polygon class="cls-4" points="107.97 163.31 95.87 174.67 117.72 179.33 123.74 168.76 107.97 163.31"/><path class="cls-4" d="M147.2,65l3,.91,3,1.14,12.57-11.34-6-1.06C155.3,58,151,61.6,147.2,65Z"/><path class="cls-4" d="M165.08,36.86c.85-.62,1.78-1.36,2.63-2L117.3,24.67l-13.95,18,43.51,7.94C152.74,45.77,158.6,41.52,165.08,36.86Z"/><path class="cls-4" d="M145.06,52l-42.83-7.84-3.47,4.47,35.61,12.09C137.7,57.82,141.42,54.69,145.06,52Z"/><polygon class="cls-4" points="148.11 87.7 142.82 100.91 143.04 100.99 153.88 90.56 148.11 87.7"/><path class="cls-4" d="M124.37,101.36l-2.95-1.48a24.25,24.25,0,0,0-.12,4.17Z"/><polygon class="cls-4" points="170.12 74.48 161.56 71.62 150.18 82.62 148.87 85.83 155.4 89.07 170.12 74.48"/><path class="cls-4" d="M128,66.26q2.26-2.1,4.74-4.26L97.53,50.19l-5.65,7.29,29.9,14.88Q124.67,69.37,128,66.26Z"/><polygon class="cls-4" points="150.55 96.38 145.07 101.65 158.13 105.9 162.29 101.71 150.55 96.38"/><path class="cls-4" d="M133.48,78.19l4.39,2.18L151.63,68.3l-6-2A153.77,153.77,0,0,0,133.48,78.19Z"/><path class="cls-5" d="M106.91,93c2.46-5.9,7-12.29,13.4-19.11L90.61,59.12,70.37,85.23,99,99.45Z"/><polygon class="cls-5" points="152.94 113.55 154.66 114.47 157.39 109.7 156.87 109.52 152.94 113.55"/><path class="cls-3" d="M103.68,161.8l1.59-1.47L104,159.9l25-23c.88.49,1.77,1,2.66,1.46l2.41-1.25A83.12,83.12,0,0,1,118.69,127c-9.58-8.33-13.05-17.89-10.62-29.22,2-8.92,9.49-19.21,21.95-30.68,9.54-9,21.93-18.81,36.63-29.32l3.19-2.31-.28-.33-1.76-.35,0,0c-.85.61-1.82,1.41-2.67,2-6.48,4.66-12.34,8.91-18.22,13.76l-43.51-7.94-1.13,1.46L145.06,52c-3.64,2.71-7.35,5.84-10.69,8.71L98.76,48.61l-1.23,1.59L132.79,62q-2.48,2.16-4.74,4.26-3.37,3.11-6.27,6.11L91.88,57.48l-1.27,1.64,29.7,14.77c-6.44,6.83-10.94,13.21-13.4,19.11L99,99.45,70.37,85.23,69.1,86.88l28.14,14-10.81,8.61L60.65,97.78l-1.26,1.63,25.27,11.44-9.45,7.36-28.8-2-1.24,1.59,28,2L20.69,158.34l2.69.59,36.42-26.55,17.12,6.44-31.42,25,2.64.57L79.1,139.64l31.27,11.77L86.43,172.65l2.59.55,13.39-11.84Zm2-65.45c-.14.51-.28,1-.39,1.51a28.56,28.56,0,0,0,1.37,17.9l-4,1.06-14.33-6.48ZM86.61,111.73l13,5.9-6.81,1.75v0l-14.74-1Zm-8,25.68-17-6.41,14.44-11,15.84,1,1.6,4.07Zm2.16.82,15.1-12.61,13.9-3.39,1.22.56a43.32,43.32,0,0,0,5.38,5.51,74.17,74.17,0,0,0,10.79,7.57L112,149.95Z"/><path class="cls-3" d="M183.16,50.88l-1.22-1.19-5.65,6.14-14.72-2.59c4.12-3.5,8-6.28,12.23-9.45.61-.46,1.28-1,1.89-1.46L174.55,41l-2.1,1.54c-23.38,16.87-39.93,31.65-48.11,43.76a32.69,32.69,0,0,0-5.21,11.24c-3.36,17,8.64,26.31,24.57,34.41l1.61-1,.27-.48c-2.79-1.48-4.26-2.28-6.33-3.49L151.34,115l2.33,1.2,1-1.75-1.73-.93,4.11-4-2-.66-3.78,3.77-11.64-5.87,2.3-2.18-2-.67-2.05,1.94-16.11-8.13c0-.12,0-.24.07-.37,1.08-5.17,4.57-11.09,10.29-17.66l12.13,6,.78-1.86-5.39-2.68,13.93-12.29,4.21,1.41,1.54-1.49-4.21-1.24L167.85,56l17.38,3-9.55,9.8,2,.39,3.12-3.3,1.34.23L187,57.69l-8.68-1.51Zm-57,51.39,23.63,11.9-12.1,11.75c-8.4-5.2-14.65-11.27-16.14-19.59Zm-1.8-.91L121.29,104a24.25,24.25,0,0,1,.12-4.17Zm13.51-21-4.39-2.18A153.77,153.77,0,0,1,145.63,66.3l6,2ZM153.18,67l-2.9-1.29-2.75-1.25h0q5.47-4.61,12.18-9.74l6,1Z"/><path class="cls-3" d="M171.8,31.92l1.05.21.62.72c8.37-6.08,16.2-11.51,22.65-15.93l-3.65-.58L188.73,20c-3.26,2.25-6.73,4.68-10.37,7.26L123.92,16.13,122.7,17.7l53.62,11Z"/><path class="cls-3" d="M179.34,39.58c3.81-2.82,7.54-5.52,11.07-8l6.66,1.33-12,13.25,1.15,1.29,12.55-14.19,1.93.39,1-1.68-1.64-.32,5.2-5.93L209.08,19l.17,0L198.47,31.28l-6-1.2c6.09-4.41,11.56-8.24,15.86-11.24l-2.39-.37c-7.16,5-17.08,11.88-27.73,19.79Z"/><polygon class="cls-3" points="107.97 163.31 123.74 168.76 124.7 167.07 109.45 161.81 107.97 163.31"/><path class="cls-3" d="M135.4,140.35c1.23.61,2.58,1.23,3.51,1.77L140,140.2c-1-.43-1.49-.75-2.28-1.14Z"/><polygon class="cls-3" points="174.7 72.38 172.77 71.79 171.61 72.97 163.09 70.13 161.56 71.62 170.12 74.48 155.4 89.07 148.87 85.83 148.11 87.7 153.88 90.56 143.04 100.99 145.07 101.65 150.55 96.38 162.29 101.71 157.95 105.86 159.31 106.33 166.06 94.47 156.97 89.91 171.75 75.07 176.25 76.58 177.22 74.9 173.33 73.57 174.7 72.38"/><path class="cls-6" d="M140,140.2l2-3.46-4.35,2.3C138.42,139.44,139,139.78,140,140.2Z"/><path class="cls-7" d="M178.18,38.25c10.65-7.91,20.57-14.84,27.73-19.79l-9.78-1.55c-6.44,4.42-14.27,9.85-22.65,15.93Z"/><path class="cls-7" d="M119.13,97.49a32.68,32.68,0,0,1,5.21-11.24c8.18-12.11,24.74-26.9,48.12-43.77l2.12-1.57-4.75-5.42-3.19,2.31C151.94,48.31,139.56,58.15,130,67.11c-12.46,11.47-19.92,21.76-21.95,30.68-2.43,11.33,1,20.89,10.62,29.22a83.12,83.12,0,0,0,15.39,10.09l9.8-5.18C128,123.84,115.76,114.49,119.13,97.49Z"/><polygon class="cls-8" points="169.54 35.15 169.83 35.48 174.58 40.9 175.75 42.23 182.11 49.39 183.11 50.66 187.91 56.13 190.2 52.1 186.12 47.39 186.18 47.39 185.08 46.11 179.32 39.57 178.17 38.25 173.47 32.85 172.85 32.12 171.8 31.92 119.73 21.54 117.3 24.67 167.78 34.8 169.54 35.15"/><polygon class="cls-8" points="109.75 161.87 128.42 144.1 135.6 140.39 137.82 139.08 141.98 136.75 145.31 130.9 143.7 131.9 133.99 137.09 131.63 138.35 124.92 141.81 105.26 160.33 103.67 161.8 90.74 173.57 95.88 174.68 108.17 163.35 109.75 161.87"/><polygon class="cls-8" points="175.76 68.75 163.3 64.96 159.3 68.86 157.76 70.35 145.97 81.6 145.01 83.91 144.23 85.77 137.18 103.06 139.91 103.96 141.96 104.62 155.11 108.91 156.96 109.53 157.39 109.7 159.31 106.33 157.95 105.86 144.98 101.63 143 100.98 142.79 100.91 148.1 87.7 148.87 85.83 150.18 82.62 161.56 71.62 163.09 70.13 164.09 69.14 172.77 71.79 174.53 72.35 178.05 73.44 179.96 70.08 177.5 69.31 175.76 68.75"/><g class="cls-9"><polygon class="cls-4" points="267.36 65.27 200.29 239.6 304.75 250.13 346.44 62.9 267.36 65.27"/><polygon class="cls-5" points="255.53 148.42 270.47 125.58 263 124.2 247.91 145.59 255.53 148.42"/><polygon class="cls-5" points="267.8 67.26 265.99 71.95 269.14 67.3 267.8 67.26"/><polygon class="cls-3" points="236.66 173.96 228.9 182.82 232.99 184.34 240.97 173.38 230.13 169.54 240.23 156.11 238.34 155.57 228.75 168.5 226.17 175.18 229.04 171.21 236.66 173.96"/><polygon class="cls-3" points="237.91 186.05 237.84 186.13 239.8 186.85 241.6 184.35 247.7 175.77 245.77 175.08 237.91 186.05"/><polygon class="cls-3" points="261.25 152.66 263.08 153.35 264.22 151.64 262.01 150.83 261.25 152.66"/><polygon class="cls-3" points="269.13 67.3 265.99 71.95 263.42 78.6 271.13 67.36 269.13 67.3"/><polygon class="cls-3" points="288.01 80.29 288.15 80.29 262.62 80.68 261.95 82.43 287.05 82.08 288.01 80.29"/><path class="cls-3" d="M264.11,122.65l8.36-12.31,10.62.49.28-.42.76-1.23-10.53-.47,10.21-15.78L281,94l-9.53,14.57L252,108.34l-.64,1.65,19.05.25-8.09,12-14.86-2.17-.67,1.81,5.68,1h0l-6.26,8.95-3.24-.1-.69,1.77,11.85.37-13.42,18.29,2,.56,4-5.51,10,3.72,1.16-1.69-.46-.17,15-23.17,55.15,9.89.42-1.89Zm-8.58,25.77-7.62-2.83L263,124.2l7.47,1.38Z"/><polygon class="cls-3" points="266.85 154.68 266.85 154.68 277.01 158.5 274.63 162.74 277.52 163.31 279.52 159.44 319.06 174.09 319.5 172.13 268.41 153.15 266.85 154.68"/><polygon class="cls-3" points="217.51 213.32 219.63 214.02 220.89 212.36 218.78 211.67 217.51 213.32"/><polygon class="cls-3" points="288.35 110.6 288.09 111.03 290.08 111.12 290.34 110.69 291.09 109.45 289.13 109.37 288.35 110.6"/><polygon class="cls-3" points="276.74 164.64 274.74 163.64 264.47 181.7 252.49 177.46 244.65 188.66 257.45 193.39 245.84 212.19 245.88 212.21 248.05 212.79 265.52 184.15 265.53 184.17 313.06 200.97 313.5 199.02 266.52 182.41 276.74 164.64"/><polygon class="cls-3" points="295.28 110.88 295.03 111.32 332.83 112.48 333.22 110.75 296.04 109.64 295.28 110.88"/><polygon class="cls-3" points="245.94 216.24 244.44 215.83 243.7 215.63 241.49 219.09 241.39 218.99 225.95 213.87 225.95 213.87 224.79 215.63 240.34 220.75 227.6 240.29 230.08 240.93 242.61 221.51 304 241.53 304.44 239.59 243.71 219.8 245.94 216.24"/><polygon class="cls-3" points="212.94 210.74 213.72 209.98 212.59 210.4 212.16 211.5 212.44 211.62 212.94 210.74"/><polygon class="cls-8" points="283.47 93.33 284.14 93.11 299.8 67.23 295.97 67.17 288.01 80.29 286.9 82.08 281.82 90.45 255.29 99.7 253.79 103.59 280.95 94.25 283.47 93.33"/><polygon class="cls-8" points="248.05 212.79 245.88 212.21 245.84 212.19 240.16 210.38 231.87 206.11 231.85 206.11 231.85 206.11 228.28 209.76 237.3 214.02 243.7 215.62 306 232.61 306.85 228.78 248.11 212.81 248.05 212.79"/><polygon class="cls-8" points="220.54 201.15 220.54 201.15 216.58 200.04 215.09 203.91 218.06 204.5 220.54 201.15"/><path class="cls-8" d="M240.23,156.11l10.89,3h0l2.34-3.38h0l-10.78-2.92-2-.56L236.22,151c.39-1.06.11-2.11.45-3l-2.48,6.44,4.16,1.16Z"/><polygon class="cls-8" points="255.57 160.55 257.93 161.05 260.59 157.29 257.99 156.69 255.57 160.55"/><polygon class="cls-8" points="286.36 164.57 278.06 162.34 278.04 162.33 265.23 158.47 265.22 158.47 265.22 158.47 262.89 162.06 274.08 165.19 276.07 165.78 284.28 168.01 317.82 179.69 318.69 175.79 286.45 164.6 286.36 164.57"/><polygon class="cls-8" points="225.41 202.48 222.11 206.7 224.58 207.9 227.56 204.03 225.41 202.48"/><polygon class="cls-10" points="227.32 212.47 229.19 209.96 231.69 206.58 238.79 196.85 244.65 188.66 252.49 177.46 262.83 162.25 293.23 113.4 294.96 110.89 295.29 110.52 319.59 67.39 315.14 67.38 291.17 109.15 290.44 110.37 281.06 125.59 279.97 127.32 264.22 151.64 263.08 153.35 260.27 157.53 257.97 160.93 247.7 175.77 241.6 184.35 227.71 203.34 226.97 204.31 224.44 207.68 220.89 212.36 219.81 214.04 202.61 236.26 202.08 237.64 206.97 239.08 226.12 214.07 227.32 212.47"/><polygon class="cls-10" points="218.78 211.67 222.53 206.75 225.07 203.4 237.91 186.05 245.77 175.08 253.11 164.59 256 160.39 258.31 157 258.37 156.92 278.73 125.91 279.15 125.24 279.17 125.22 288.2 110.69 288.45 110.28 313.35 67.38 308.83 67.34 284.23 108.87 283.48 110.08 274.41 124.37 273.9 125.17 253.47 155.69 251.12 159.07 246.01 166.34 240.97 173.38 232.99 184.34 223.6 196.88 220.36 201.13 217.79 204.47 213.54 209.96 211.61 212.94 205.2 229.55 217.69 213.34 218.78 211.67"/></g><g class="cls-11"><polygon class="cls-4" points="224.34 87.1 236.08 74.51 232.71 71.84 232.61 71.86 225.17 78.94 220.07 83.78 224.34 87.1"/><polygon class="cls-4" points="223.1 88.32 218.76 84.94 218.8 84.81 207.36 95.07 212.56 98.99 223.1 88.32"/><polygon class="cls-4" points="262.4 80.48 262.91 79.16 262.08 80.24 262.4 80.48"/><polygon class="cls-4" points="219 103.42 230.55 94.3 231.26 94.63 224.77 89.61 214.32 100.23 219 103.42"/><polygon class="cls-4" points="228.25 34.35 210.6 20.24 205.25 25.67 201.69 31.93 217.53 45.96 228.25 34.35"/><polygon class="cls-4" points="230.7 68.07 231.81 66.95 246.09 49.02 229.7 35.56 213.05 53.92 230.7 68.07"/><polygon class="cls-4" points="237.62 110.98 247.41 120.11 251.32 109.98 243.35 103.91 237.62 110.98"/><polygon class="cls-4" points="211.83 55.17 199.84 67.89 216.69 81.14 216.86 80.91 221.87 76.35 229.4 69.23 211.83 55.17"/><polygon class="cls-4" points="245.81 97.39 245.73 97.52 253.36 88.07 237.68 75.78 226 88.39 235.16 95.47 235.54 95.4 243.67 97.11 245.75 97.49 245.81 97.39"/><polygon class="cls-4" points="248.17 98.08 255.29 99.7 261.95 82.43 261.14 81.82 248.17 98.08"/><polygon class="cls-4" points="233.94 70.63 237.28 73.28 253.5 55.18 249.12 51.5 234.25 70.27 233.94 70.63"/><polygon class="cls-4" points="194.37 63.56 198.26 66.64 216.16 47.52 200.72 33.63 190.2 52.1 194.22 63.06 194.37 63.56"/><polygon class="cls-4" points="197.18 67.56 195.76 66.44 196.48 68.27 197.18 67.56"/><polygon class="cls-4" points="174.25 141.65 173.76 141.98 188.14 162.32 189.99 160.4 174.25 141.65"/><polygon class="cls-4" points="191.43 158.9 181.91 136.36 175.77 140.61 191.25 159.09 191.43 158.9"/><path class="cls-4" d="M171.34,138.1l-7.24-8.92-12.39,4.48-1.87,1.8c1.73,2,3.5,4.1,5.29,6.18,8.38,9.58,17.16,19.46,23.48,30.44l7-7.11-17.45-24.7Z"/><polygon class="cls-4" points="192.46 161.22 189.54 164.27 196.44 173.68 195.66 168.35 192.46 161.22"/><polygon class="cls-4" points="202.46 198.09 206.78 193.36 200.13 184.63 202.46 198.09"/><path class="cls-4" d="M180.18,132l-.33-.83L176,127.54a5.67,5.67,0,0,1-6-.6l-.07.08-4,1.49,6.95,8.56Z"/><polygon class="cls-4" points="203.42 200.98 212.59 210.4 215.09 203.91 208.53 195.49 203.42 200.98"/><path class="cls-4" d="M152.19,157.24c-2.06-2.38-4.33-4.88-6.45-7.29s-5.58-5.64-6.82-7.83L124.7,167.07l6.24,5.69Z"/><path class="cls-4" d="M179.85,174.25c.74,1.34,1.44,2.71,2.1,4.09l18.46,19.55-2.81-16.62L187,166.91Z"/><path class="cls-4" d="M239.31,131.81l-5.44,10.34a13.78,13.78,0,0,1,2.51,6.54l5.84-15.14-2.77-2.18Z"/><polygon class="cls-4" points="244.46 102.62 251.95 108.34 253.79 103.59 245.42 101.67 244.46 102.62"/><polygon class="cls-4" points="234.38 114.52 239.98 118.31 239.55 128.72 239.55 128.72 239.67 128.81 242.91 131.78 246.71 121.92 236.53 112.2 234.38 114.52"/><polygon class="cls-4" points="241.65 102.61 239.01 100.59 238.98 100.4 231.9 98.75 222.68 106.13 232.55 113.41 241.65 102.61"/><polygon class="cls-4" points="211.22 166.09 197.98 170.77 198.92 177.03 209.21 190.67 221.13 177.23 211.22 166.09"/><path class="cls-4" d="M226.72,154.81l-3.89,7-1.13.43,6.37,7.21.39-.2,5.44-14.1-.25-.22C231.84,156.12,229.2,156.07,226.72,154.81Z"/><polygon class="cls-4" points="226.78 170.68 219.93 162.88 213.01 165.43 222.3 175.88 226.78 170.68"/><polygon class="cls-4" points="210.7 193.2 216.58 200.04 225.89 175.91 210.77 193.25 210.7 193.2"/><polygon class="cls-4" points="208.38 111.6 215.94 105.81 211.72 102.77 205.64 108.81 208.38 111.6"/><path class="cls-4" d="M211.88,212.23l-9.68-9.93-18,19c-.39,1-.88,1.91-1.33,2.87l11.61,7.88,16.89-18.41Z"/><path class="cls-4" d="M170.37,115.27a5.74,5.74,0,0,1,4.14.68l3.36-3.49-2.11-2.66Z"/><polygon class="cls-4" points="208.08 128.13 200.59 135.33 206.6 142.69 214.05 134.49 208.08 128.13"/><path class="cls-4" d="M184.1,183.3c.7,1.8,1.33,3.63,1.86,5.48a47.31,47.31,0,0,1,0,26.81l14.32-15.19Z"/><path class="cls-4" d="M220.74,141.55l-5.15-5.42-7.52,8.33,11.37,13.59.38-.14,3.36-5.93C220.61,148.94,219.55,144.75,220.74,141.55Z"/><path class="cls-4" d="M170.51,183.62,159.19,194.7l14.05,7a30.49,30.49,0,0,0-.82-12.71A42.7,42.7,0,0,0,170.51,183.62Z"/><polygon class="cls-4" points="204.92 230.28 199.66 235.62 202.8 238.31 204.92 230.28"/><polygon class="cls-4" points="167.75 99.54 159.96 106.89 167.91 114.65 174.42 108.09 167.75 99.54"/><polygon class="cls-4" points="235.79 126.17 236.09 120.28 231.99 117.34 229.03 120.8 235.79 126.17"/><path class="cls-4" d="M218,133.45l4.92,5.21c2-1.42,4.88-1.39,7.56.29l5.16-9.34.06-1.2-7.84-6.21Z"/><polygon class="cls-4" points="210.07 115.88 205.1 119.62 209.13 123.99 213.69 119.52 210.07 115.88"/><polygon class="cls-4" points="215.25 121.08 210.65 125.62 216.44 131.82 220.93 126.74 215.25 121.08"/><polygon class="cls-4" points="193.29 96.11 195.92 93.25 196 91.16 186.22 81.53 182.71 85.02 193.29 96.11"/><polygon class="cls-4" points="202.19 121.79 194.31 127.55 199.16 133.56 206.55 126.49 202.19 121.79"/><polygon class="cls-4" points="184.63 79.98 178.05 73.44 177.22 74.9 183.26 81.21 184.63 79.98"/><polygon class="cls-4" points="222.12 125.4 230.21 116.07 219.65 108.48 211.51 114.77 222.12 125.4"/><polygon class="cls-4" points="182.01 82.56 176.25 76.58 166.06 94.47 167.58 96.41 182.01 82.56"/><polygon class="cls-4" points="201.22 151.9 209.69 161.65 215.92 159.37 205.64 147.12 201.22 151.9"/><polygon class="cls-4" points="177.07 90.55 187.61 102.21 192.04 97.46 181.39 86.32 177.07 90.55"/><path class="cls-4" d="M178.25,124.59l4.7,4.47.32.82,5.29-3.74-8-10.16-3,3.14A7.44,7.44,0,0,1,178.25,124.59Z"/><path class="cls-4" d="M172.65,204.85,156.82,197l-5.74,5.47L169,214.77A45.09,45.09,0,0,0,172.65,204.85Z"/><polygon class="cls-4" points="199.15 118.48 188.84 107.16 183.07 113.3 191.51 124.03 199.15 118.48"/><path class="cls-4" d="M153.72,159,122,182.31,149,201l20.45-19.74C165.79,173.72,160.09,166.41,153.72,159Z"/><polygon class="cls-4" points="195.19 158.34 198.45 165.65 207.89 162.3 199.99 153.23 195.19 158.34"/><polygon class="cls-4" points="191.39 129.66 185 134.2 194.16 156.02 204.16 145.34 191.39 129.66"/><polygon class="cls-4" points="193.75 71.06 191.28 64.69 191.28 64.68 191.25 64.71 191.31 64.62 186.46 69.61 182.16 66.22 179.97 70.06 187.26 77.36 193.75 71.06"/><polygon class="cls-4" points="187.83 56.25 187.01 57.69 188.81 59.13 187.83 56.25"/><polygon class="cls-4" points="206.92 112.7 194.99 100.51 191.33 104.48 202.07 116.33 206.92 112.7"/><polygon class="cls-4" points="209.96 101.5 199.59 93.97 199.54 95.51 196.22 99.16 204.12 107.26 209.96 101.5"/><path class="cls-4" d="M154.33,128l4.82-4.94-5.47-6.85-8.09,14.19s.31.31.39.41Z"/><polygon class="cls-4" points="196.2 86.21 196.6 78.2 194.57 73.12 188.84 78.91 196.2 86.21"/><polygon class="cls-4" points="169.09 98.26 179.15 111.13 186.35 103.55 175.74 91.84 169.09 98.26"/><polygon class="cls-4" points="123.74 168.76 117.72 179.33 119.89 180.84 129.36 173.88 123.74 168.76"/><path class="cls-4" d="M163,124.86l4.12-1.54a7.05,7.05,0,0,1-.35-4.44L162,123.61Z"/><polygon class="cls-4" points="159.4 126.18 161.16 125.54 160.68 124.92 159.4 126.18"/><polygon class="cls-5" points="200.26 77.8 199.74 89.41 203.79 92.57 215.4 82.32 198.59 69.13 197.19 70.51 200.26 77.8"/><polygon class="cls-5" points="165.13 117.17 157.39 109.7 154.66 114.47 160.4 121.72 165.13 117.17"/><polygon class="cls-5" points="254.37 86.77 254.42 86.66 265.71 72.68 267.8 67.26 255.03 56.47 238.8 74.52 254.37 86.77"/><polygon class="cls-3" points="208.38 111.6 205.64 108.81 211.72 102.77 209.96 101.5 204.12 107.26 196.22 99.16 194.99 100.51 206.92 112.7 208.38 111.6"/><polygon class="cls-3" points="221.7 162.22 219.93 162.88 226.78 170.68 222.3 175.88 213.01 165.43 211.22 166.09 221.13 177.23 209.21 190.67 210.88 192.75 225.89 175.91 228.47 169.23 228.07 169.43 221.7 162.22"/><polygon class="cls-3" points="188.84 78.91 194.57 73.12 193.75 71.06 187.38 77.47 188.84 78.91"/><polygon class="cls-3" points="214.05 134.49 206.6 142.69 208.08 144.47 215.6 136.13 214.05 134.49"/><path class="cls-3" d="M145.88,130.63l-.28.48.51-.17Z"/><path class="cls-3" d="M154.33,128l5.07-1.84,1.28-1.26.49.61,1.83-.67-1-1.25,4.76-4.73a1,1,0,0,0,0-.14l-1.53-1.47-4.8,4.49-5.81-7.3-1,1.75,5.47,6.85Z"/><polygon class="cls-3" points="191.31 64.62 191.2 64.79 188.82 59.14 187.01 57.69 182.16 66.22 186.46 69.61 191.31 64.62"/><polygon class="cls-3" points="205.64 147.12 204.16 145.34 194.16 156.02 195.19 158.34 199.99 153.23 207.89 162.3 209.69 161.65 201.22 151.9 205.64 147.12"/><polygon class="cls-3" points="206.55 126.49 199.16 133.56 200.59 135.33 208.08 128.13 206.55 126.49"/><polygon class="cls-3" points="191.43 158.9 191.25 159.09 175.77 140.61 174.25 141.65 189.99 160.4 188.14 162.32 189.54 164.27 192.46 161.22 191.43 158.9"/><polygon class="cls-3" points="196.93 171.13 195.66 168.35 196.44 173.68 198.92 177.03 197.98 170.77 196.93 171.13"/><polygon class="cls-3" points="245.06 101.75 241.97 101.13 239.01 100.59 241.65 102.61 232.56 113.39 234.35 114.59 236.52 112.24 246.72 121.92 247.41 120.11 237.62 110.98 243.35 103.91 251.32 109.98 251.95 108.34 244.46 102.62 245.06 101.75"/><polygon class="cls-3" points="239.55 128.72 239.52 131.22 242.23 133.55 242.91 131.78 239.67 128.81 239.55 128.72"/><polygon class="cls-3" points="233.94 70.63 233.9 70.68 232.71 71.84 236.08 74.51 224.34 87.1 220.07 83.78 219.08 84.64 218.76 84.94 223.1 88.32 212.58 98.97 214.29 100.3 224.77 89.61 231.26 94.63 232.29 94.87 235.16 95.47 226 88.39 237.68 75.78 253.36 88.07 245.73 97.52 245.78 97.46 248.06 97.97 261.08 81.76 261.95 82.41 262.63 80.66 262.1 80.27 262.12 80.28 263.14 79.33 265.71 72.68 254.42 86.66 254.37 86.77 238.8 74.51 254.99 56.45 253.49 55.17 237.26 73.28 233.94 70.63"/><polygon class="cls-3" points="172.86 137.07 165.92 128.5 164.1 129.18 171.34 138.1 172.86 137.07"/><polygon class="cls-3" points="198.26 66.64 194.37 63.56 195.26 65.93 195.59 66.76 197 67.88 196.38 68.45 197.15 70.58 198.59 69.13 215.4 82.32 215.73 82.03 216.69 81.14 199.84 67.89 211.83 55.17 229.4 69.23 230.7 68.07 213.05 53.92 229.7 35.56 228.25 34.35 217.53 45.96 201.69 31.93 200.74 33.6 216.16 47.52 198.26 66.64"/><polygon class="cls-3" points="209.31 18.56 205.25 25.67 211.15 19.84 209.31 18.56"/><polygon class="cls-3" points="211.51 114.77 210.07 115.88 213.69 119.52 209.13 123.99 210.65 125.62 215.25 121.08 220.93 126.74 216.44 131.82 217.98 133.46 227.84 122.19 235.68 128.41 235.79 126.17 229.03 120.8 231.99 117.34 230.21 116.07 222.12 125.4 211.51 114.77"/><path class="cls-3" d="M174.66,189c-3.87-14.2-15.56-27-27.39-40.38-2.39-2.73-4.18-5.09-7.26-8.37l-1.09,1.92c1.24,2.19,4.59,5.28,6.82,7.83s4.31,4.85,6.37,7.23l-21.22,15.55-6.19-5.66-1,1.69,5.63,5.13-9.48,7,2.11,1.46L153.72,159c6.37,7.39,12.07,14.71,15.72,22.25L149,201l2.1,1.45,5.74-5.47,15.83,7.87a45.09,45.09,0,0,1-3.64,9.92l2.25,1.54C175.55,207.54,177.37,198.31,174.66,189Zm-15.48,5.75,11.33-11.08a42.7,42.7,0,0,1,1.91,5.36,30.49,30.49,0,0,1,.82,12.71Z"/><path class="cls-3" d="M184.09,221.27l18.12-19,9.68,9.93.7-1.83L203.42,201l5-5.58-1.56-2-4.34,4.72-2.34-13.47-2.54-3.37,2.8,16.62-18.46-19.55c-.66-1.38-1.36-2.74-2.1-4.09l7.15-7.33L185.58,165l-7,7.11c-6.32-11-15.1-20.86-23.48-30.44-1.79-2.08-3.57-4.13-5.29-6.18l1.87-1.8L147,135.31c2.14,2.56,4.35,5.12,6.6,7.72,12.23,13.91,25.33,28.46,30.12,45.79,3.56,12,1.63,23.37-3.21,33.81l2.29,1.56Q183.5,222.75,184.09,221.27Zm1.92-5.68a47.31,47.31,0,0,0,0-26.81c-.53-1.86-1.16-3.68-1.86-5.48l16.23,17.1Z"/><path class="cls-3" d="M167.75,99.54l6.68,8.56-6.51,6.55,1.18,1.13a4.78,4.78,0,0,1,1.28-.5l5.4-5.47,2.11,2.66,1.28-1.33L169.09,98.26l6.65-6.42,10.61,11.71,1.25-1.34L177.07,90.55l4.31-4.23L192,97.46l1.25-1.35L182.7,85l3.51-3.49-1.46-1.45-1.43,1.18-6.11-6.37-1,1.69,5.76,6L167.58,96.41l-1.52-1.94-6.75,11.86.51.47Z"/><path class="cls-7" d="M183.75,188.82C179,171.49,165.87,156.94,153.63,143c-2.25-2.59-4.62-5.27-6.75-7.82L142,136.75l-2,3.46c3.08,3.28,4.88,5.64,7.26,8.37,11.83,13.33,23.44,26.12,27.31,40.32,2.71,9.35,1,18.64-3.31,27.41l9.28,6.33C185.38,212.2,187.32,200.85,183.75,188.82Z"/><path class="cls-8" d="M151.71,133.67l12.39-4.48,1.82-.68,4-1.49.07-.08a5.67,5.67,0,0,0,6,.6l3.86,3.67.33.83-7.32,5-1.52,1-3.21,2.17L185.58,165l1.41,1.94,10.6,14.35,2.54,3.37,6.65,8.73,1.67,2.09,6.64,8.46,1.49-3.86-5.89-6.84-.07,0-1.47-2.23-10.27-13.77-2.47-3.41-6.89-9.44-1.4-2L173.76,142l.49-.34,1.52-1,6.14-4.25,9.52,22.53,1,2.32,3.21,7.14,1.27,2.78,1-.36,13.23-4.68,1.8-.66,6.92-2.55,1.77-.66,1.13-.43,3.89-7c2.48,1.26,5.12,1.31,6.93.1l.25.22,2.48-6.44a13.78,13.78,0,0,0-2.51-6.54l5.5-10.3v-.56l.07-2.25.49-10.57-5.53-4-1.77-1.27-9.93-7.15h0l9.24-7.42,7.11,1.57.11,0,2.91.64,3.2.76,8.53,1.93,1.5-3.9-7.12-1.62-2.37-.55-2.08-.47-8.11-1.79-.33-.07-2.85-.63-1-.23-.78-.17L219,103.43l-4.61-3.34-1.75-1.27L207.38,95l0,0,11.48-10.34,0,0,.31-.28,1-1,5-4.64,7.41-7,.15-.15L234,70.44l0,0,.26-.25L249.12,51.5l-3-2.48L231.86,66.85l-1.07,1-1.36,1.29-7.47,7-5,4.62-.11.1-.94.86-.34.31L203.86,92.43l-4.12-3,.51-11.61-3-7.45-.81-2.05-.71-1.83-.33-.85-.89-2.34-.23-.36L190.2,52.1l-2.29,4,1,2.52,2.29,6,0,0L193.73,71h0l.82,2.06,2,5.08-.4,8-7.37-7.3-1.58-1.55L180,70.08,178,73.44,184.63,80l1.52,1.5L196,91.14l-.06,2.1-2.63,2.86L192,97.45l-4.43,4.76-1.25,1.34-7.19,7.58-1.28,1.33L174.52,116a5.74,5.74,0,0,0-4.14-.68,4.78,4.78,0,0,0-1.28.5l-1.18-1.13-8.1-7.86-.51-.47-1.92,3.37,7.74,7.47,1.6,1.52s0,.12,0,.16a7.11,7.11,0,0,0,.37,4.46L163,124.85l-1.83.68-1.76.65L154.32,128,146,130.82l-.66.07L142,136.75l4.91-1.54Zm58,28-1.8.65-9.44,3.35-3.27-7.31-1-2.32L185,134.2l6.39-4.54,12.78,15.67,1.48,1.78,10.28,12.24Zm10.13-3.74-.38.14-11.37-13.59-1.47-1.78-6-7.36-1.43-1.77-4.84-6,7.88-5.76,4.36,4.71,1.52,1.64,6,6.36,1.55,1.64,5.15,5.42c-1.19,3.2-.14,7.38,2.44,10.42Zm12.69-8.1c-.92,2.34-3.6,2.82-6,1.08s-3.54-5-2.58-7.35,3.63-2.81,6-1.09S233.43,147.47,232.51,149.81Zm-12.86-41.32,10.56,7.59,1.78,1.27,4.11,2.94-.31,5.89-.11,2.23-.06,1.2-5.16,9.34c-2.69-1.68-5.55-1.71-7.56-.29L218,133.45l-1.54-1.64-5.79-6.2L209.13,124l-4-4.37,5-3.75,1.45-1.1Zm-24.66-8,1.23-1.35,3.32-3.64,0-1.55L210,101.5l1.76,1.27,4.21,3-7.56,5.79-1.46,1.1-4.85,3.63-10.74-11.85Zm-6.16,6.65,10.31,11.32L191.51,124l-8.44-10.73ZM180.54,116l8,10.16-5.29,3.74-.32-.82-4.7-4.47a7.44,7.44,0,0,0-.71-5.47Zm-6.46,2.73a4.28,4.28,0,0,1,1.46,5.16c-.84,1.62-2.88,1.93-4.55.69a4.23,4.23,0,0,1-1.45-5.15C170.4,117.79,172.44,117.47,174.08,118.7Z"/><path class="cls-5" d="M223.93,143.53c-1,2.32.2,5.62,2.58,7.35s5.08,1.26,6-1.08-.25-5.64-2.6-7.36S224.88,141.21,223.93,143.53Z"/><path class="cls-5" d="M171,124.55c1.67,1.24,3.71.93,4.55-.69a4.28,4.28,0,0,0-1.46-5.16c-1.65-1.23-3.68-.92-4.54.7A4.23,4.23,0,0,0,171,124.55Z"/><polygon class="cls-10" points="211.33 213.67 194.44 232.08 199.67 235.62 204.92 230.28 211.33 213.67"/></g><polygon class="cls-12" points="342.91 67.35 302.78 247.01 202.23 237.24 267.8 67.26 342.91 67.35"/><polygon class="cls-13" points="209.08 18.96 117.72 179.33 202.23 237.24 267.8 67.26 209.08 18.96"/><path class="cls-14" d="M348.81,90.51c0,38.41-40.33,80-51.28,90.61a3.91,3.91,0,0,1-5.43,0c-11-10.59-51.28-52.2-51.28-90.61a54,54,0,0,1,108,0Z"/><path class="cls-15" d="M335.93,111.13c0,21.93-19.18,39.72-41.11,39.72s-41.11-17.79-41.11-39.72,19.18-43.9,41.11-43.9S335.93,89.2,335.93,111.13Z"/><ellipse class="cls-15" cx="259.84" cy="86.6" rx="9.76" ry="9.75"/><ellipse class="cls-15" cx="329.78" cy="86.6" rx="9.76" ry="9.75"/><circle class="cls-16" cx="259.84" cy="86.6" r="6.24"/><circle class="cls-16" cx="329.78" cy="86.6" r="6.24"/><circle class="cls-17" cx="282.23" cy="99.41" r="1.81"/><circle class="cls-17" cx="307.4" cy="99.41" r="1.81"/><path class="cls-18" d="M309.31,119.54c0,7.73-6.76,14-14.5,14s-14.5-6.27-14.5-14,6.76-15.49,14.5-15.49S309.31,111.8,309.31,119.54Z"/><path class="cls-17" d="M291.58,125.86h-.18a3.84,3.84,0,0,1-3-2,.54.54,0,0,1,.17-.75.54.54,0,0,1,.75.17,2.85,2.85,0,0,0,2.12,1.54,4.25,4.25,0,0,0,2.81-1.46v-5a.54.54,0,0,1,1.09,0v5.22a.53.53,0,0,1-.12.35C295.17,123.95,293.57,125.86,291.58,125.86Z"/><path class="cls-17" d="M298,125.86c-2,0-3.59-1.91-3.65-2a.54.54,0,0,1-.13-.35V118.3a.54.54,0,0,1,1.09,0v5a4.15,4.15,0,0,0,2.81,1.46,2.83,2.83,0,0,0,2.11-1.55.54.54,0,0,1,.92.59,3.83,3.83,0,0,1-3,2Z"/><path class="cls-15" d="M290.75,112.35c0-2.16,1.9-2.31,4.06-2.31s4.06.14,4.06,2.31-1.89,6-4.06,6S290.75,114.51,290.75,112.35Z"/><path class="cls-19" d="M253.51,98.66c-14.44,0-23.27-10.46-24.86-14.27-1.19-2.87-1.79-6.67-.44-8.7a3.62,3.62,0,0,1,3.24-1.51,16.54,16.54,0,0,1,7,2.17,14.27,14.27,0,0,0,6.52,1.5h0c10.83,0,22.6-10.46,24-11.75L277.61,90c-8.34,5.74-16.44,8.66-24.09,8.66Z"/><path class="cls-20" d="M268.89,66.31,277.46,90c-8.29,5.69-16.34,8.58-23.94,8.58-14.37,0-23.17-10.41-24.75-14.2-1.18-2.84-1.78-6.59-.45-8.59a3.5,3.5,0,0,1,3.13-1.45h0a16.43,16.43,0,0,1,6.9,2.16A14.4,14.4,0,0,0,244.93,78c10.58,0,22-9.93,24-11.66m.11-.44s-12.5,11.85-24.07,11.85a14.12,14.12,0,0,1-6.47-1.48c-3-1.55-5.33-2.18-7-2.18-5.34,0-4.56,6.44-2.92,10.38,1.48,3.54,10.22,14.35,25,14.35,6.83,0,15-2.31,24.24-8.73L269,65.87Z"/><path class="cls-19" d="M336.11,98.66c-7.65,0-15.76-2.91-24.09-8.66l8.66-23.91c1.41,1.29,13.19,11.75,24,11.75a14.27,14.27,0,0,0,6.53-1.5,16.54,16.54,0,0,1,7-2.17,3.63,3.63,0,0,1,3.24,1.51c1.36,2,.76,5.84-.44,8.7C359.39,88.2,350.55,98.66,336.11,98.66Z"/><path class="cls-20" d="M320.73,66.31C322.65,68,334.12,78,344.69,78a14.4,14.4,0,0,0,6.58-1.51,16.42,16.42,0,0,1,6.9-2.16,3.51,3.51,0,0,1,3.14,1.45c1.33,2,.73,5.75-.45,8.58-1.58,3.79-10.38,14.2-24.75,14.2-7.6,0-15.65-2.89-23.94-8.58l8.56-23.65m-.11-.44-8.76,24.18c9.29,6.42,17.41,8.73,24.24,8.73,14.76,0,23.5-10.81,25-14.35,1.64-3.94,2.42-10.38-2.92-10.38-1.68,0-4,.64-7,2.18a14.11,14.11,0,0,1-6.47,1.48c-11.56,0-24.07-11.85-24.07-11.85Z"/><path class="cls-21" d="M328.15,79.31c0,6.08-5.82,11-13,11H273.76c-7.19,0-13-4.93-13-11V64.76c0-6.08,5.83-11,13-11h41.37c7.19,0,13,4.93,13,11Z"/><polygon class="cls-22" points="298.01 66.69 305.5 68.02 299.89 73.16 300.93 80.7 294.31 76.95 287.45 80.27 288.98 72.81 283.7 67.33 291.27 66.47 294.86 59.75 298.01 66.69"/></g></g></svg>