<svg id="ARTBOARD_1" data-name="ARTBOARD 1" xmlns="http://www.w3.org/2000/svg" viewBox="0 0 538.46 458.54"><defs><style>.cls-1,.cls-5{fill:#faffbe;}.cls-2{fill:#d13d0f;}.cls-3{fill:#fff;}.cls-11,.cls-4{fill:#ef8622;}.cls-4,.cls-5{fill-rule:evenodd;}.cls-6{fill:#980110;}.cls-7{fill:#ab1d28;}.cls-8{fill:#78151b;}.cls-9{fill:#f28076;}.cls-10{fill:#fcbd24;}</style></defs><title>contact_Info</title><path id="_Compound_Path_" data-name="&lt;Compound Path&gt;" class="cls-1" d="M493.16,353.62a2.69,2.69,0,0,1,2.69-2.69h0a2.69,2.69,0,0,1,2.69,2.69h0a2.7,2.7,0,0,1-2.69,2.69h0A2.69,2.69,0,0,1,493.16,353.62Zm0-10.76a2.69,2.69,0,0,1,2.69-2.69h0a2.7,2.7,0,0,1,2.69,2.69h0a2.69,2.69,0,0,1-2.69,2.69h0A2.69,2.69,0,0,1,493.16,342.86ZM493,332.31a2.69,2.69,0,0,1,2.69-2.69h0a2.69,2.69,0,0,1,2.69,2.69h0a2.69,2.69,0,0,1-2.69,2.69h0A2.69,2.69,0,0,1,493,332.31Zm-10.76,0a2.69,2.69,0,0,1,2.69-2.69h0a2.69,2.69,0,0,1,2.69,2.69h0a2.69,2.69,0,0,1-2.69,2.69h0A2.69,2.69,0,0,1,482.2,332.31Zm-10.76,0a2.69,2.69,0,0,1,2.69-2.69h0a2.69,2.69,0,0,1,2.69,2.69h0a2.69,2.69,0,0,1-2.69,2.69h0A2.69,2.69,0,0,1,471.44,332.31Zm-10.76,0a2.69,2.69,0,0,1,2.69-2.69h0a2.69,2.69,0,0,1,2.69,2.69h0a2.69,2.69,0,0,1-2.69,2.69h0A2.69,2.69,0,0,1,460.68,332.31Zm-10.76,0a2.69,2.69,0,0,1,2.69-2.69h0a2.69,2.69,0,0,1,2.69,2.69h0a2.69,2.69,0,0,1-2.69,2.69h0A2.69,2.69,0,0,1,449.93,332.31Zm-10.76,0a2.69,2.69,0,0,1,2.69-2.69h0a2.69,2.69,0,0,1,2.69,2.69h0a2.69,2.69,0,0,1-2.69,2.69h0A2.69,2.69,0,0,1,439.17,332.31Zm-10.76,0a2.69,2.69,0,0,1,2.69-2.69h0a2.69,2.69,0,0,1,2.69,2.69h0a2.69,2.69,0,0,1-2.69,2.69h0A2.69,2.69,0,0,1,428.42,332.31Zm-10.76,0a2.69,2.69,0,0,1,2.69-2.69h0a2.69,2.69,0,0,1,2.69,2.69h0a2.69,2.69,0,0,1-2.69,2.69h0A2.69,2.69,0,0,1,417.66,332.31Zm-10.76,0a2.69,2.69,0,0,1,2.69-2.69h0a2.69,2.69,0,0,1,2.69,2.69h0a2.69,2.69,0,0,1-2.69,2.69h0A2.69,2.69,0,0,1,406.91,332.31Zm-10.76,0a2.69,2.69,0,0,1,2.69-2.69h0a2.69,2.69,0,0,1,2.69,2.69h0a2.69,2.69,0,0,1-2.69,2.69h0A2.69,2.69,0,0,1,396.15,332.31Zm-10.76,0a2.69,2.69,0,0,1,2.69-2.69h0a2.69,2.69,0,0,1,2.69,2.69h0a2.69,2.69,0,0,1-2.69,2.69h0A2.69,2.69,0,0,1,385.39,332.31Z"/><path id="_Compound_Path_2" data-name="&lt;Compound Path&gt;" class="cls-1" d="M235.51,197.36a2.68,2.68,0,0,1,2.69-2.68h0a2.69,2.69,0,0,1,2.69,2.68h0a2.69,2.69,0,0,1-2.69,2.69h0A2.69,2.69,0,0,1,235.51,197.36Zm0-10.75a2.69,2.69,0,0,1,2.69-2.7h0a2.7,2.7,0,0,1,2.69,2.7h0a2.7,2.7,0,0,1-2.69,2.69h0A2.69,2.69,0,0,1,235.51,186.61Zm0-10.76a2.69,2.69,0,0,1,2.69-2.69h0a2.69,2.69,0,0,1,2.69,2.69h0a2.69,2.69,0,0,1-2.69,2.68h0A2.68,2.68,0,0,1,235.51,175.85Zm0-10.76a2.69,2.69,0,0,1,2.69-2.69h0a2.7,2.7,0,0,1,2.69,2.69h0a2.7,2.7,0,0,1-2.69,2.7h0A2.69,2.69,0,0,1,235.51,165.09Zm0-10.75a2.69,2.69,0,0,1,2.69-2.69h0a2.69,2.69,0,0,1,2.69,2.69h0a2.7,2.7,0,0,1-2.69,2.69h0A2.69,2.69,0,0,1,235.51,154.34Zm-.23-10.53a2.69,2.69,0,0,1,2.69-2.69h0a2.69,2.69,0,0,1,2.69,2.69h0A2.69,2.69,0,0,1,238,146.5h0A2.69,2.69,0,0,1,235.27,143.81Zm-10.76,0a2.69,2.69,0,0,1,2.69-2.69h0a2.69,2.69,0,0,1,2.69,2.69h0a2.69,2.69,0,0,1-2.69,2.69h0A2.69,2.69,0,0,1,224.52,143.81Zm-10.76,0a2.69,2.69,0,0,1,2.69-2.69h0a2.69,2.69,0,0,1,2.69,2.69h0a2.69,2.69,0,0,1-2.69,2.69h0A2.69,2.69,0,0,1,213.76,143.81Zm-10.76,0a2.69,2.69,0,0,1,2.69-2.69h0a2.69,2.69,0,0,1,2.69,2.69h0a2.69,2.69,0,0,1-2.69,2.69h0A2.69,2.69,0,0,1,203,143.81Zm-10.76,0a2.69,2.69,0,0,1,2.69-2.69h0a2.69,2.69,0,0,1,2.69,2.69h0a2.69,2.69,0,0,1-2.69,2.69h0A2.69,2.69,0,0,1,192.25,143.81Zm-10.76,0a2.69,2.69,0,0,1,2.69-2.69h0a2.69,2.69,0,0,1,2.69,2.69h0a2.69,2.69,0,0,1-2.69,2.69h0A2.69,2.69,0,0,1,181.49,143.81Z"/><path id="_Compound_Path_3" data-name="&lt;Compound Path&gt;" class="cls-1" d="M35.21,343.88a2.69,2.69,0,0,1,2.69-2.69h0a2.69,2.69,0,0,1,2.7,2.69h0a2.69,2.69,0,0,1-2.7,2.69h0A2.69,2.69,0,0,1,35.21,343.88Zm0-10.76a2.69,2.69,0,0,1,2.69-2.69h0a2.69,2.69,0,0,1,2.7,2.69h0a2.69,2.69,0,0,1-2.7,2.69h0A2.69,2.69,0,0,1,35.21,333.12Zm0-10.76a2.69,2.69,0,0,1,2.69-2.69h0a2.69,2.69,0,0,1,2.7,2.69h0a2.69,2.69,0,0,1-2.7,2.69h0A2.69,2.69,0,0,1,35.21,322.37Zm0-10.76a2.69,2.69,0,0,1,2.69-2.69h0a2.69,2.69,0,0,1,2.7,2.69h0a2.69,2.69,0,0,1-2.7,2.69h0A2.69,2.69,0,0,1,35.21,311.61Zm0-10.76a2.69,2.69,0,0,1,2.69-2.69h0a2.69,2.69,0,0,1,2.7,2.69h0a2.69,2.69,0,0,1-2.7,2.69h0A2.69,2.69,0,0,1,35.21,300.85Zm0-10.76a2.69,2.69,0,0,1,2.69-2.69h0a2.69,2.69,0,0,1,2.7,2.69h0a2.69,2.69,0,0,1-2.7,2.69h0A2.69,2.69,0,0,1,35.21,290.1Zm0-10.76a2.69,2.69,0,0,1,2.69-2.69h0a2.69,2.69,0,0,1,2.7,2.69h0A2.69,2.69,0,0,1,37.9,282h0A2.69,2.69,0,0,1,35.21,279.34Zm54-10.51a2.69,2.69,0,0,1,2.69-2.69h0a2.7,2.7,0,0,1,2.69,2.69h0a2.69,2.69,0,0,1-2.69,2.69h0A2.69,2.69,0,0,1,89.24,268.83Zm-10.76,0a2.69,2.69,0,0,1,2.69-2.69h0a2.7,2.7,0,0,1,2.69,2.69h0a2.69,2.69,0,0,1-2.69,2.69h0A2.69,2.69,0,0,1,78.48,268.83Zm-10.76,0a2.69,2.69,0,0,1,2.69-2.69h0a2.7,2.7,0,0,1,2.69,2.69h0a2.69,2.69,0,0,1-2.69,2.69h0A2.69,2.69,0,0,1,67.73,268.83Zm-10.76,0a2.69,2.69,0,0,1,2.69-2.69h0a2.7,2.7,0,0,1,2.69,2.69h0a2.69,2.69,0,0,1-2.69,2.69h0A2.69,2.69,0,0,1,57,268.83Zm-10.76,0a2.69,2.69,0,0,1,2.69-2.69h0a2.7,2.7,0,0,1,2.69,2.69h0a2.69,2.69,0,0,1-2.69,2.69h0A2.69,2.69,0,0,1,46.22,268.83Zm-10.76,0a2.69,2.69,0,0,1,2.69-2.69h0a2.7,2.7,0,0,1,2.69,2.69h0a2.69,2.69,0,0,1-2.69,2.69h0A2.69,2.69,0,0,1,35.46,268.83Z"/><path id="_Compound_Path_4" data-name="&lt;Compound Path&gt;" class="cls-1" d="M399.19,197.36a2.69,2.69,0,0,1,2.69-2.69h0a2.69,2.69,0,0,1,2.69,2.69h0a2.69,2.69,0,0,1-2.69,2.69h0A2.69,2.69,0,0,1,399.19,197.36Zm-10.76,0a2.69,2.69,0,0,1,2.69-2.69h0a2.69,2.69,0,0,1,2.69,2.69h0a2.69,2.69,0,0,1-2.69,2.69h0A2.69,2.69,0,0,1,388.44,197.36Zm-10.76,0a2.69,2.69,0,0,1,2.69-2.69h0a2.69,2.69,0,0,1,2.69,2.69h0a2.69,2.69,0,0,1-2.69,2.69h0A2.69,2.69,0,0,1,377.68,197.36Zm-10.76,0a2.69,2.69,0,0,1,2.69-2.69h0a2.69,2.69,0,0,1,2.69,2.69h0a2.69,2.69,0,0,1-2.69,2.69h0A2.69,2.69,0,0,1,366.93,197.36Zm43,0a2.69,2.69,0,0,1,2.69-2.69h0a2.69,2.69,0,0,1,2.69,2.69h0a2.69,2.69,0,0,1-2.69,2.69h0A2.69,2.69,0,0,1,409.94,197.35Zm0-10.76a2.69,2.69,0,0,1,2.69-2.69h0a2.69,2.69,0,0,1,2.69,2.69h0a2.69,2.69,0,0,1-2.69,2.69h0A2.69,2.69,0,0,1,409.94,186.59Zm0-10.76a2.69,2.69,0,0,1,2.69-2.69h0a2.69,2.69,0,0,1,2.69,2.69h0a2.69,2.69,0,0,1-2.69,2.69h0A2.69,2.69,0,0,1,409.94,175.83Zm0-10.76a2.69,2.69,0,0,1,2.69-2.69h0a2.69,2.69,0,0,1,2.69,2.69h0a2.69,2.69,0,0,1-2.69,2.69h0A2.69,2.69,0,0,1,409.94,165.08Zm0-10.76a2.69,2.69,0,0,1,2.69-2.69h0a2.69,2.69,0,0,1,2.69,2.69h0a2.69,2.69,0,0,1-2.69,2.69h0A2.69,2.69,0,0,1,409.94,154.32Zm0-10.76a2.69,2.69,0,0,1,2.69-2.69h0a2.69,2.69,0,0,1,2.69,2.69h0a2.69,2.69,0,0,1-2.69,2.69h0A2.69,2.69,0,0,1,409.94,143.57Zm0-10.76a2.69,2.69,0,0,1,2.69-2.69h0a2.69,2.69,0,0,1,2.69,2.69h0a2.69,2.69,0,0,1-2.69,2.69h0A2.69,2.69,0,0,1,409.94,132.81Zm0-10.76a2.69,2.69,0,0,1,2.69-2.69h0a2.69,2.69,0,0,1,2.69,2.69h0a2.69,2.69,0,0,1-2.69,2.69h0A2.69,2.69,0,0,1,409.94,122.06Zm0-10.76a2.69,2.69,0,0,1,2.69-2.69h0a2.69,2.69,0,0,1,2.69,2.69h0a2.69,2.69,0,0,1-2.69,2.69h0A2.69,2.69,0,0,1,409.94,111.3Zm0-10.76a2.69,2.69,0,0,1,2.69-2.69h0a2.69,2.69,0,0,1,2.69,2.69h0a2.69,2.69,0,0,1-2.69,2.69h0A2.69,2.69,0,0,1,409.94,100.54Zm0-10.76a2.69,2.69,0,0,1,2.69-2.69h0a2.69,2.69,0,0,1,2.69,2.69h0a2.69,2.69,0,0,1-2.69,2.69h0A2.69,2.69,0,0,1,409.94,89.79Z"/><g id="_Group_" data-name="&lt;Group&gt;"><circle id="_Path_" data-name="&lt;Path&gt;" class="cls-2" cx="411.98" cy="37.15" r="37.15"/><path id="_Compound_Path_5" data-name="&lt;Compound Path&gt;" class="cls-3" d="M412.27,18.27c-11,0-19.63,8.44-19.63,19.22,0,10.57,8.18,18.54,19,18.54a19.65,19.65,0,0,0,10.19-3l-1.74-3a15.47,15.47,0,0,1-8.45,2.6,14.85,14.85,0,0,1-15.28-15.09,15.86,15.86,0,0,1,15.87-15.82c9.16,0,15.32,6.3,15.32,15.68,0,4.25-1.84,7.72-4.09,7.72-.92,0-2-.44-2-2.56V27.6h-4.85v3.62L416,29.8a7.46,7.46,0,0,0-5.85-2.7c-5.18,0-8.94,4.33-8.94,10.3a9.73,9.73,0,0,0,9.53,10.12A7.72,7.72,0,0,0,417.29,44l.48-.69.22,1.43c.65,2.68,3.06,3.24,5,3.24,5,0,8.35-4.34,8.35-10.8C431.31,26.24,423.3,18.27,412.27,18.27Zm-1,25c-2.72,0-4.77-2.62-4.77-6.09,0-3.26,2-5.72,4.73-5.72,2.94,0,5,2.37,5,5.77C416.28,40.78,414.24,43.26,411.32,43.26Z"/></g><g id="_Group_2" data-name="&lt;Group&gt;"><path id="_Compound_Path_6" data-name="&lt;Compound Path&gt;" class="cls-4" d="M367.12,104.78H311.5a11,11,0,0,0-11,11v33a11,11,0,0,0,11,11h26.85L348.48,170l10.13-10.13h8.51a11,11,0,0,0,11-11v-33A11,11,0,0,0,367.12,104.78Z"/><path id="_Compound_Path_7" data-name="&lt;Compound Path&gt;" class="cls-5" d="M356.89,115.18H301.27a11,11,0,0,0-11,11v33a11,11,0,0,0,11,11h26.85l10.13,10.13,10.13-10.13h8.51a11,11,0,0,0,11-11v-33A11,11,0,0,0,356.89,115.18Z"/></g><g id="_Group_3" data-name="&lt;Group&gt;"><g id="_Group_4" data-name="&lt;Group&gt;"><rect id="_Path_2" data-name="&lt;Path&gt;" class="cls-6" x="203.45" y="253.06" width="24.12" height="20.81"/><rect id="_Path_3" data-name="&lt;Path&gt;" class="cls-6" x="295.73" y="253.06" width="24.12" height="20.81"/></g><g id="_Group_5" data-name="&lt;Group&gt;"><path id="_Path_4" data-name="&lt;Path&gt;" class="cls-2" d="M353.17,219.61h-183a65.4,65.4,0,0,0-65.4,65.4v11.31a17.19,17.19,0,0,0,17.19,17.19H158a17.19,17.19,0,0,0,17.19-17.19h0a36.24,36.24,0,0,1,36.24-36.24H311.9a36.24,36.24,0,0,1,36.24,36.24h0a17.19,17.19,0,0,0,17.19,17.19h36.05a17.19,17.19,0,0,0,17.19-17.19V285A65.4,65.4,0,0,0,353.17,219.61Z"/><path id="_Rectangle_" data-name="&lt;Rectangle&gt;" class="cls-1" d="M104.73,296.33h70.43a0,0,0,0,1,0,0v1.56a15.63,15.63,0,0,1-15.63,15.63H120.36a15.63,15.63,0,0,1-15.63-15.63v-1.56A0,0,0,0,1,104.73,296.33Z"/><path id="_Rectangle_2" data-name="&lt;Rectangle&gt;" class="cls-1" d="M348.14,296.33h70.43a0,0,0,0,1,0,0v1.56a15.63,15.63,0,0,1-15.63,15.63H363.77a15.63,15.63,0,0,1-15.63-15.63v-1.56A0,0,0,0,1,348.14,296.33Z"/></g><g id="_Group_6" data-name="&lt;Group&gt;"><g id="_Group_7" data-name="&lt;Group&gt;"><path class="cls-7" d="M176.65,286H104.73v10.29h70.43A36.23,36.23,0,0,1,176.65,286Z"/></g><g id="_Group_8" data-name="&lt;Group&gt;"><path class="cls-7" d="M346.65,286a36.23,36.23,0,0,1,1.49,10.29h70.43V286Z"/></g></g><g id="_Group_9" data-name="&lt;Group&gt;"><path id="_Path_5" data-name="&lt;Path&gt;" class="cls-2" d="M386.83,412.48,346,284.55a20,20,0,0,0-17.72-10.67H281.11a19.54,19.54,0,1,1-39.08,0H194.81a20,20,0,0,0-17.72,10.67L136.31,412.48a36.33,36.33,0,0,0,35,46.06H351.83A36.33,36.33,0,0,0,386.83,412.48Z"/><path id="_Path_6" data-name="&lt;Path&gt;" class="cls-8" d="M136.87,433.78a36.31,36.31,0,0,0,34.45,24.76H351.83a36.31,36.31,0,0,0,34.45-24.76Z"/><path id="_Path_7" data-name="&lt;Path&gt;" class="cls-7" d="M136.87,433.78H386.28a35.87,35.87,0,0,0,1.89-12H135A35.87,35.87,0,0,0,136.87,433.78Z"/><circle id="_Path_8" data-name="&lt;Path&gt;" class="cls-7" cx="261.65" cy="368.14" r="56.16"/><g id="_Group_10" data-name="&lt;Group&gt;"><circle id="_Path_9" data-name="&lt;Path&gt;" class="cls-1" cx="261.65" cy="359.57" r="56.16"/><circle id="_Path_10" data-name="&lt;Path&gt;" class="cls-2" cx="261.65" cy="359.57" r="29.77"/><g id="_Group_11" data-name="&lt;Group&gt;"><g id="_Group_12" data-name="&lt;Group&gt;"><circle class="cls-9" cx="261.65" cy="316.38" r="8.59"/></g><g id="_Group_13" data-name="&lt;Group&gt;"><circle class="cls-9" cx="240.05" cy="322.16" r="8.59" transform="translate(-128.92 163.19) rotate(-30)"/></g><g id="_Group_14" data-name="&lt;Group&gt;"><circle class="cls-9" cx="224.24" cy="337.97" r="8.59" transform="translate(-180.57 363.19) rotate(-60)"/></g><g id="_Group_15" data-name="&lt;Group&gt;"><circle class="cls-9" cx="218.46" cy="359.57" r="8.59"/></g><g id="_Group_16" data-name="&lt;Group&gt;"><circle class="cls-9" cx="224.24" cy="381.17" r="8.59" transform="translate(-160.54 163.19) rotate(-30)"/></g><g id="_Group_17" data-name="&lt;Group&gt;"><circle class="cls-9" cx="240.05" cy="396.98" r="8.59" transform="translate(-223.77 406.38) rotate(-60)"/></g><g id="_Group_18" data-name="&lt;Group&gt;"><circle class="cls-9" cx="261.65" cy="402.77" r="8.59"/></g><g id="_Group_19" data-name="&lt;Group&gt;"><circle class="cls-9" cx="283.25" cy="396.98" r="8.59" transform="translate(-160.54 194.81) rotate(-30)"/></g><g id="_Group_20" data-name="&lt;Group&gt;"><circle class="cls-9" cx="299.06" cy="381.17" r="8.59" transform="translate(-180.57 449.58) rotate(-60)"/></g><g id="_Group_21" data-name="&lt;Group&gt;"><circle class="cls-9" cx="304.85" cy="359.57" r="8.59"/></g><g id="_Group_22" data-name="&lt;Group&gt;"><circle class="cls-9" cx="299.06" cy="337.97" r="8.59" transform="translate(-128.92 194.81) rotate(-30)"/></g><g id="_Group_23" data-name="&lt;Group&gt;"><circle class="cls-9" cx="283.25" cy="322.16" r="8.59" transform="translate(-137.37 406.38) rotate(-60)"/></g></g></g><path id="_Path_11" data-name="&lt;Path&gt;" class="cls-7" d="M232.08,362.93a29.76,29.76,0,0,0,59.15,0Z"/><path id="_Path_12" data-name="&lt;Path&gt;" class="cls-7" d="M261.65,334.74A29.76,29.76,0,0,1,291.31,362c.07-.81.11-1.63.11-2.45a29.77,29.77,0,1,0-59.54,0c0,.83,0,1.64.11,2.45A29.76,29.76,0,0,1,261.65,334.74Z"/></g></g><g id="_Group_24" data-name="&lt;Group&gt;"><rect id="_Rectangle_3" data-name="&lt;Rectangle&gt;" class="cls-2" x="76.47" y="131.69" width="90" height="54.92"/><polygon id="_Path_13" data-name="&lt;Path&gt;" class="cls-8" points="121.47 159.15 76.47 131.69 166.47 131.69 121.47 159.15"/><polygon id="_Path_14" data-name="&lt;Path&gt;" class="cls-2" points="166.47 186.61 76.47 186.61 76.47 131.69 166.47 186.61"/><polygon id="_Path_15" data-name="&lt;Path&gt;" class="cls-8" points="166.47 131.69 76.47 131.69 121.47 104.22 166.47 131.69"/><polygon id="_Path_16" data-name="&lt;Path&gt;" class="cls-1" points="121.47 159.15 152.06 140.48 152.06 94.17 90.88 94.17 90.88 140.48 121.47 159.15"/><polygon id="_Path_17" data-name="&lt;Path&gt;" class="cls-7" points="166.47 186.61 76.47 186.61 121.47 159.15 166.47 186.61"/><g id="_Group_25" data-name="&lt;Group&gt;"><rect id="_Rectangle_4" data-name="&lt;Rectangle&gt;" class="cls-10" x="99.98" y="104.73" width="42.99" height="3.02"/><rect id="_Rectangle_5" data-name="&lt;Rectangle&gt;" class="cls-10" x="99.98" y="113.13" width="42.99" height="3.02"/><rect id="_Rectangle_6" data-name="&lt;Rectangle&gt;" class="cls-10" x="99.98" y="121.53" width="42.99" height="3.02"/><rect id="_Rectangle_7" data-name="&lt;Rectangle&gt;" class="cls-10" x="99.98" y="129.93" width="42.99" height="3.02"/></g></g><g id="_Group_26" data-name="&lt;Group&gt;"><circle id="_Path_18" data-name="&lt;Path&gt;" class="cls-2" cx="37.15" cy="394.67" r="37.15"/><path id="_Path_19" data-name="&lt;Path&gt;" class="cls-3" d="M41.43,396.46a1.26,1.26,0,0,1-.47-.39,1.76,1.76,0,0,1-.11-1.85c.18-.28.49-.36.76-.54s.53-.35.78-.55a9.61,9.61,0,0,0,1.39-1.35,10.55,10.55,0,0,0,1.95-3.51,11.42,11.42,0,0,0,.56-3.56c0-5.68-4.09-10.29-9.14-10.29S28,379,28,384.72a10.93,10.93,0,0,0,2.88,7.49,9.4,9.4,0,0,0,1.51,1.29c.28.19.6.31.86.52a1.3,1.3,0,0,1,.36,1.34,1.5,1.5,0,0,1-.76,1.12,18.72,18.72,0,0,1-2,.57c-.69.22-1.36.47-2,.76a18.35,18.35,0,0,0-3.67,2.11,16.7,16.7,0,0,0-4.91,5.74,14.67,14.67,0,0,0-1.58,5.66H55.57s-.21-1.68-.24-1.83a14.52,14.52,0,0,0-.48-1.8,15.17,15.17,0,0,0-1.6-3.33,17.27,17.27,0,0,0-5.38-5.28,19.27,19.27,0,0,0-3.45-1.71q-.92-.35-1.86-.6A6,6,0,0,1,41.43,396.46Z"/></g><g id="_Group_27" data-name="&lt;Group&gt;"><circle id="_Path_20" data-name="&lt;Path&gt;" class="cls-11" cx="492.74" cy="410.53" r="45.72"/><g id="_Group_28" data-name="&lt;Group&gt;"><path id="_Path_21" data-name="&lt;Path&gt;" class="cls-1" d="M491.63,442.27c.13-.44.2-.89.29-1.34.15-.74.31-1.48.46-2.23l.14-.66a4.73,4.73,0,0,0-3.73-5.56l-4.1-.81a4.73,4.73,0,0,0-5.56,3.73l-.1.46a28.53,28.53,0,0,1-11.8-11.81l.45-.09a4.73,4.73,0,0,0,3.73-5.56l-.81-4.1a4.73,4.73,0,0,0-5.56-3.73L463,411c-1.53.32-3.13.31-3.85,2a10.2,10.2,0,0,0-.54,2.6,13.73,13.73,0,0,0-.08,2.89,21.2,21.2,0,0,0,1.66,6.73,33.08,33.08,0,0,0,7.26,10.55A35.1,35.1,0,0,0,474,441a27,27,0,0,0,6.93,3,17.47,17.47,0,0,0,6.56.57c1.3-.15,3.11-.35,3.83-1.62A3.35,3.35,0,0,0,491.63,442.27Z"/><path id="_Path_22" data-name="&lt;Path&gt;" class="cls-1" d="M493.33,378.18a32,32,0,0,0-31.74,28.53l.46-.08,2.1-.44a9.33,9.33,0,0,1,2.95-.1,26.54,26.54,0,1,1,30,30.29,9.17,9.17,0,0,1-.13,2.53l-.3,1.42c-.1.49-.21,1-.31,1.49v.07a31.92,31.92,0,0,0-3-63.7Z"/></g></g><circle class="cls-1" cx="492.74" cy="410.53" r="10"/></svg>